<?xml version="1.0" encoding="utf-8"?>
<!-- Generator: Adobe Illustrator 21.0.0, SVG Export Plug-In . SVG Version: 6.00 Build 0)  -->
<svg version="1.1" id="Layer_1" xmlns="http://www.w3.org/2000/svg" xmlns:xlink="http://www.w3.org/1999/xlink" x="0px" y="0px"
	 viewBox="0 0 323.7 374.9" style="enable-background:new 0 0 323.7 374.9;" xml:space="preserve">
<style type="text/css">
	.st0{fill:#F3B41B;}
	.st1{fill:#FFFFFF;}
	.st2{fill:#020202;}
</style>
<g>
	<path class="st0" d="M97.3,63.9c7.7-19.6,12.6-40.4,23.5-58.6c1.8,0,3.6,0,5.4-0.1c5.1,8.8,9.2,18.1,12.6,27.7
		c6,17.4,11.9,34.8,18.4,51.9c1.6,4.1,3.8,7.9,5.9,11.8c4.2-4.2,7.9-8.9,10.6-14.3c10.2-19.2,19.3-38.9,29.6-58.1
		c3.5-6.5,7.5-12.9,13.1-17.8c8.6,13,11.5,28.6,16.2,43.2c5.3,16.5,8.4,34,16.6,49.5c7.3-6.1,13.2-13.5,18.9-21
		c15.2-18.7,29.3-38.3,45.6-56.1c1.6,0.1,3.2,0.1,4.8,0.2c-0.8,4.6-0.9,9.3-1.5,14c-2.6,25.9-6.9,51.7-11.5,77.3
		c-4.4,25.1-9.1,50.3-14.4,75.2c-2.2,10.6-4.7,21.1-7.6,31.6c-0.9,3.4-2.3,6.7-1.9,10.3c-15.1,0-30.1-0.1-45.2,0.3
		c-27.1,0.4-54.3,0.5-81.4,0c-14.6-0.4-29.2-0.2-43.8-0.2c-24.7,0-49.4,0-74.1,0c-0.8,0.1-1.3-0.6-1.8-1c-1.4-3.3-2.6-6.7-3.2-10.2
		c-9-42.1-15.8-84.6-21.9-127.3C8,71,4.2,49.8,5.4,28.5c0-2,0.9-3.8,2-5.4c3.8,0.7,6.8,3.3,9.3,6.2C30.2,45,41.2,62.6,53,79.6
		c6.4,9.3,12.5,18.9,20.5,27c1.4,1.5,3.6,0.9,5.3,1C87.2,94.1,91.7,78.7,97.3,63.9 M213.3,127.7c-4.2,1-7.7,3.6-10.7,6.6
		c-5.9,5.9-9.9,13.4-12.7,21.2c-2.6,7.3-4,15-4.7,22.8c-3.6,2.7-7.4,5.2-11.2,7.7c-1.9,1.2-1.4,3.8-0.7,5.6c0.6,1.3,2.1,2.9,3.6,2.1
		c2.7-1.3,5.1-3.1,7.5-4.8c0.2,3.2,0.4,6.7,2.7,9.2c1.8,2.1,4.7,2.8,7.3,2.7c8-0.3,15.6-2.8,23-5.6c3.2-1.2,3.7-6.1,1.1-8.1
		c-1.3-0.9-3-0.6-4.4-0.2c-4.4,1.3-8.9,2.6-13.3,3.8c-2.1,0.6-4.3,0.5-6.4,0c-0.2-2.6,0-5.3,0.1-7.9c9.6-6.1,17.8-14.4,23.7-24.2
		c2.3-3.9,4.2-8,5.4-12.4c3.2-2.2,6.9-3.4,10.7-3.9c5.2-0.7,10.6-1,15.5,0.8c4.8,1.6,8.8,5.5,10.4,10.3c2.1,5.9,1.1,12.3-0.8,18.2
		c-2.2,6.6-5.9,12.9-11.3,17.4c-3.8,3.1-8.8,5.3-13.8,4.8c-1.1-0.1-2.2-0.8-2.3-2c-0.5-4.1,0.1-8.2,0.7-12.2
		c0.8-5.3,1.5-10.6,2.5-15.9c1-5.5,2.6-11,5.9-15.6c-0.9-1.1-1.9-2.5-3.4-2.9c-2.2-0.6-4.6,0.3-6.3,1.7c-1.8,2.2-2.9,4.8-4,7.4
		c-4.9,12.7-5.3,26.5-5.5,39.9c0.2,1.1-0.3,2.8,1.1,3.3c5.4,2.7,11.7,3.9,17.7,3.2c6.7-0.9,12.9-4.4,17.6-9.1
		c6-6.2,9.9-14.3,11.6-22.8c1.5-7.6,1.6-15.9-2.2-22.8c-3.5-6.8-10.7-10.8-17.9-12.3c-8.4-1.7-17.4-1.8-25.5,1.3
		c-0.7-2.2-1.5-4.5-3.3-5.9C218.9,127.2,215.9,127.1,213.3,127.7 M165.7,134.5c-2.6,0.8-5.4,2-7.1,4.3c-1.2,2-0.4,4.4-0.4,6.6
		c3.8-1.4,7.5-2.8,11.6-3.2c-5.4,16.4-8.9,33.4-13,50.1c-3.7,0.5-7.5,0.8-10.7,2.7c-0.8,1.8-1.6,3.5-3.2,4.7
		c10.4,0.4,20.9,0.1,31.3,0.2c2,0,4.5-2.5,3.1-4.4c-2.4-2.3-6-2.5-9.1-2.9c4.7-16.9,7.9-34.1,12.3-51c2.9,0.1,6,0.3,8.8-1
		c2-1,2.1-3.8,1.2-5.6c-1.4-1.6-3.7-1.8-5.7-2C178.2,132.6,171.8,132.7,165.7,134.5 M137.1,140.6c-1,12.9-2.5,25.9-6.1,38.4
		c-1.4,4.6-3.1,9.3-6.2,13.1c-1.5,1.7-3.7,3.2-6.1,2.7c-1.7-0.5-2.5-2.2-3-3.7c-1.1-3.8-1.1-7.9-1.1-11.8c0.3-12.1,2.4-24.1,4.1-36
		c0.3-1.4-0.1-3.1-1.5-3.7c-2-0.9-4.4-0.8-6.5-0.1c-2.4,0.9-3.4,3.6-4,5.9c-2.5,12.1-5.2,24.3-10.3,35.7c-1.8,3.8-3.8,7.8-7.3,10.4
		c-1.8,1.3-4.7,1.6-6.3-0.3c-2.8-3.3-2.9-7.8-3-11.9c0.3-9.8,3.5-19.3,6.1-28.7c0.9-3.4,2.2-6.8,2.4-10.4c0.1-1.3-0.2-3-1.7-3.4
		c-2.3-0.5-5-0.5-6.9,1.1c-1.8,1.6-2.8,3.9-3.7,6.2c-3.7,9.9-6,20.5-6.2,31.1c0,6.1,0.5,12.2,2.6,17.9c1.1,3.1,2.9,6,5.6,8
		c2.9,1.9,6.5,1.5,9.7,0.8c4.2-0.9,7.8-3.6,10.1-7.2c3.8-5.7,5.5-12.6,6.9-19.3c-0.3,5,0.1,10.1,1.2,15c1,4,2.8,8.1,6.3,10.4
		c3.8,2.4,8.8,1.9,12.6,0c5.6-2.8,9.5-8,12.4-13.4c0.5,2.8,2.1,6.1,5.3,6.6c5.3,0.7,9.5-3.2,12.9-6.8c-0.2-2.7-0.5-5.4-0.6-8.1
		c-1.3,2.4-2.8,4.9-5.3,6.2c-2.1,1.2-5.2,1-6.8-0.9c-1.3-1.5-1.3-3.7-0.9-5.6c2.6-12.6,5.7-25.1,6.1-38c0-1.7,0-3.8-1.7-4.8
		c-1.8-0.9-3.9-0.7-5.7-0.2C138.5,136.2,137.2,138.4,137.1,140.6z"/>
	<path class="st1" d="M213.3,127.7c2.6-0.6,5.6-0.4,7.8,1.4c1.9,1.5,2.7,3.8,3.3,5.9c8.1-3.1,17.1-3,25.5-1.3
		c7.3,1.5,14.4,5.5,17.9,12.3c3.7,7,3.7,15.3,2.2,22.8c-1.7,8.4-5.6,16.6-11.6,22.8c-4.7,4.8-10.9,8.3-17.6,9.1
		c-6,0.8-12.3-0.4-17.7-3.2c-1.4-0.5-0.9-2.2-1.1-3.3c0.2-13.4,0.6-27.2,5.5-39.9c1.1-2.6,2.2-5.2,4-7.4c1.7-1.5,4.1-2.4,6.3-1.7
		c1.5,0.4,2.4,1.7,3.4,2.9c-3.3,4.6-4.8,10.1-5.9,15.6c-1,5.3-1.7,10.6-2.5,15.9c-0.5,4-1.2,8.1-0.7,12.2c0.1,1.1,1.2,1.9,2.3,2
		c5,0.4,10-1.7,13.8-4.8c5.4-4.5,9.1-10.8,11.3-17.4c1.8-5.8,2.8-12.3,0.8-18.2c-1.6-4.8-5.6-8.7-10.4-10.3
		c-5-1.8-10.4-1.5-15.5-0.8c-3.8,0.5-7.5,1.7-10.7,3.9c-1.2,4.4-3,8.5-5.4,12.4c-5.9,9.7-14.1,18.1-23.7,24.2
		c-0.1,2.6-0.3,5.3-0.1,7.9c2.1,0.5,4.3,0.6,6.4,0c4.5-1.2,8.9-2.5,13.3-3.8c1.4-0.4,3.1-0.8,4.4,0.2c2.6,2,2.1,7-1.1,8.1
		c-7.4,2.8-15.1,5.3-23,5.6c-2.6,0.1-5.5-0.6-7.3-2.7c-2.2-2.5-2.4-6-2.7-9.2c-2.4,1.7-4.8,3.6-7.5,4.8c-1.6,0.8-3-0.8-3.6-2.1
		c-0.8-1.7-1.2-4.4,0.7-5.6c3.8-2.5,7.6-5,11.2-7.7c0.8-7.7,2.1-15.4,4.7-22.8c2.8-7.8,6.8-15.3,12.7-21.2
		C205.6,131.3,209.1,128.7,213.3,127.7 M211.3,136.1c-3.7,2.2-5.9,6.1-8,9.7c-4.5,8.3-7.2,17.6-8,27c3.4-3.6,6.7-7.3,9.7-11.2
		c3.5-4.7,7.1-9.6,8.8-15.2c1.2-3.1,2-6.6,0.7-9.7C213.9,135.5,212.3,135.5,211.3,136.1z"/>
	<path class="st1" d="M165.7,134.5c6.1-1.8,12.5-1.9,18.7-1.5c2,0.2,4.3,0.4,5.7,2c1,1.8,0.8,4.6-1.2,5.6c-2.7,1.3-5.8,1.1-8.8,1
		c-4.5,16.9-7.6,34.2-12.3,51c3.1,0.4,6.7,0.6,9.1,2.9c1.4,2-1,4.4-3.1,4.4c-10.4-0.1-20.9,0.2-31.3-0.2c1.6-1.2,2.4-2.9,3.2-4.7
		c3.2-1.9,7.1-2.3,10.7-2.7c4.1-16.8,7.7-33.7,13-50.1c-4,0.3-7.8,1.8-11.6,3.2c-0.1-2.2-0.8-4.6,0.4-6.6
		C160.4,136.5,163.1,135.3,165.7,134.5z"/>
	<path class="st1" d="M137.1,140.6c0.1-2.1,1.4-4.4,3.6-4.9c1.9-0.4,4-0.7,5.7,0.2c1.6,1,1.7,3.1,1.7,4.8c-0.4,12.9-3.5,25.5-6.1,38
		c-0.4,1.9-0.4,4.1,0.9,5.6c1.6,2,4.7,2.1,6.8,0.9c2.5-1.3,4-3.8,5.3-6.2c0.1,2.7,0.4,5.4,0.6,8.1c-3.3,3.6-7.6,7.5-12.9,6.8
		c-3.2-0.4-4.8-3.7-5.3-6.6c-2.9,5.4-6.8,10.6-12.4,13.4c-3.9,1.9-8.9,2.5-12.6,0c-3.5-2.4-5.3-6.5-6.3-10.4c-1.1-4.9-1.5-10-1.2-15
		c-1.4,6.7-3,13.5-6.9,19.3c-2.3,3.5-5.9,6.3-10.1,7.2c-3.2,0.7-6.9,1.1-9.7-0.8c-2.7-1.9-4.5-4.9-5.6-8c-2.1-5.7-2.6-11.9-2.6-17.9
		c0.1-10.6,2.5-21.2,6.2-31.1c0.9-2.2,1.9-4.5,3.7-6.2c1.9-1.6,4.6-1.6,6.9-1.1c1.5,0.3,1.8,2.1,1.7,3.4c-0.3,3.6-1.5,7-2.4,10.4
		c-2.6,9.4-5.7,18.8-6.1,28.7c0,4.1,0.2,8.6,3,11.9c1.5,1.9,4.5,1.7,6.3,0.3c3.5-2.6,5.5-6.6,7.3-10.4c5.1-11.3,7.8-23.5,10.3-35.7
		c0.5-2.3,1.6-5,4-5.9c2.1-0.7,4.4-0.8,6.5,0.1c1.4,0.6,1.8,2.3,1.5,3.7c-1.8,12-3.9,23.9-4.1,36c0,4,0,8,1.1,11.8
		c0.5,1.5,1.3,3.3,3,3.7c2.4,0.5,4.6-1,6.1-2.7c3.1-3.8,4.8-8.4,6.2-13.1C134.6,166.5,136.1,153.5,137.1,140.6z"/>
	<path class="st0" d="M211.3,136.1c1-0.7,2.6-0.7,3.2,0.5c1.3,3.2,0.5,6.7-0.7,9.7c-1.8,5.7-5.3,10.6-8.8,15.2
		c-3,3.9-6.2,7.7-9.7,11.2c0.8-9.4,3.4-18.7,8-27C205.4,142.2,207.6,138.4,211.3,136.1z"/>
	<path class="st2" d="M130.1,244.4c1.2-1.5,3.5-2.1,5.1-0.9c2.8,2.1,4.8,5,6.5,8.1c9.5,16.9,19.2,33.6,29,50.3
		c3.7,6.5,7.8,12.8,11.3,19.5c5.4,10.1,10.1,20.6,15.1,30.9c0-34.2,0-68.5,0.1-102.7c0.1-1.7-0.5-3.8,1-5c1.8-1.4,4.6-2.2,6.5-0.8
		c1.5,1.1,2.9,2.7,2.7,4.7c0.1,38.1,0.7,76.2,0.5,114.2c0,2-0.4,3.9-0.8,5.8c-2.9,0.2-6.9,1.6-8.9-1.4c-16-25.5-31-51.6-46.2-77.6
		c-5.3-9-8.4-18.9-12.7-28.3c0.4,32.9,0.3,65.9,0.5,98.9c0,2.5,0.3,5.1-0.7,7.5c-0.3,0.6-0.6,1.3-1.3,1.4c-2.3,0.5-4.6,0.4-6.9,0.5
		h-0.5c-0.6-2.2-1.3-4.4-1.3-6.7c-0.1-37.8,0.1-75.5-0.1-113.3C129.3,247.9,128.9,245.8,130.1,244.4z"/>
	<path class="st2" d="M221.8,243.2c21.7,0.1,43.3,0,65,0c0.1,2.9,0,5.8,0,8.7c-5.7,1.3-11.5,1-17.3,0.9c-12.4-0.2-24.8-0.3-37.2-0.5
		c0.2,16.4-0.1,32.8,0,49.2c18,0,35.9-0.2,53.9,0c1.1-0.1,1.5,1.1,1.7,2c0.3,2.3-0.9,4.9-3,5.9c-17.7,0.8-35.5-0.1-53.3,0.4
		c-0.3,17.1,0.1,34.3,0.7,51.4c17.2,0.1,34.5-0.2,51.7,0.1c1.8-0.2,2.3,2.1,2.9,3.4c-0.1,1.5-1.1,2.8-1.7,4.1c-19,0.6-38,0-57,0.4
		c-2.3,0-4.6-0.4-6.8-1.2c0.3-29.5,0.4-59,0.2-88.5C221.9,267.3,221.5,255.3,221.8,243.2z"/>
	<path class="st2" d="M65.7,246.1c3.9-2.3,8.6-2.2,12.9-1.8c3.6,0.5,7.5,0.6,10.8,2.4c6.4,3.5,11.1,9.4,14.6,15.7
		c4,7.5,6.5,15.8,8.4,24.1c2.2,10.7,3.1,21.6,2.5,32.5c-0.6,10.1-2.6,20.2-6.9,29.4c-3.4,7.1-8.6,13.4-15.4,17.5
		c-4.3,2.5-9.3,3.5-14.2,3.7h-3.7c-3-0.2-6-0.4-8.9-1.1c-7.1-1.8-13.3-6.3-17.9-11.9c-4.4-5.4-7.1-11.9-9.1-18.5
		c-3.8-12.9-4.2-26.7-2.3-39.9c1.5-9.4,3.6-18.9,7.9-27.5C49,260.8,55.8,251.4,65.7,246.1 M74.3,252.2c-5.4,1.2-10,4.8-13.3,9.2
		c-6.2,8.2-10.3,17.9-12.6,27.9c-2.4,10.2-2.9,20.8-2.3,31.3c0.7,10.8,3.4,21.7,9.9,30.5c3.7,5.3,9.3,9.2,15.7,10.4
		c6.7,1.4,13.9-0.8,18.9-5.4c2.3-2.1,4.2-4.5,6-7c-0.1-0.2-0.3-0.5-0.4-0.7c1-1.1,2-2.1,2.5-3.5c3.7-8.6,5.5-18,5.9-27.4
		c0.5-12.4-1.1-24.8-4.3-36.8c-2.8-9.4-6.4-19.1-14.1-25.6C83,252.2,78.4,251.3,74.3,252.2z"/>
</g>
</svg>
