<?xml version="1.0" encoding="utf-8"?>
<!-- Generator: Adobe Illustrator 21.0.0, SVG Export Plug-In . SVG Version: 6.00 Build 0)  -->
<svg version="1.1" id="Layer_1" xmlns="http://www.w3.org/2000/svg" xmlns:xlink="http://www.w3.org/1999/xlink" x="0px" y="0px"
	 viewBox="0 0 258.1 445" style="enable-background:new 0 0 258.1 445;" xml:space="preserve">
<g>
	<path d="M100.6,7L100.6,7c2.9,3.7,5.8,7.3,8.7,11c0.5,0.6,1.2,1,1.8,1.5c2.8-3.9,5.9-7.5,8.8-11.3c1.7,1.5,3,3.4,4.4,5.1
		c1.7,2,3.3,4.1,4.8,6.2c0.9-0.7,1.7-1.5,2.4-2.4c2.6-3.4,5.4-6.7,8-10.1h0c-0.7,8-1.9,15.9-2.5,23.9c-11.3-0.1-22.6-0.1-33.9,0
		C102.3,22.9,101.3,15,100.6,7 M119.5,10.6c0,0.2-0.1,0.7-0.1,1c-2.9,2.8-4.8,6.4-7.7,9.2c0,0.3-0.1,0.8-0.1,1c-0.6,0-1.3,0-1.9-0.1
		c0-0.2-0.1-0.7-0.1-0.9c-2.5-3-4.8-6-7.1-9.1c0.4,4,1,8,1.3,12c0.3,1.8,0.6,3.6,0.4,5.4c2.3,0,4.5,0,6.7-0.2c0,0.2,0,0.5-0.1,0.7
		c0.3,0,0.8-0.1,1.1-0.2c0.2-0.1,0.5-0.2,0.6-0.3c2.1-0.1,4.3,0,6.4,0c0.7,0.6,1.9,0.7,2.6,0c4-0.1,8.1,0.1,12.1-0.1
		c0,0.2,0,0.5,0,0.6c0.6,0,1.3,0,1.9-0.1c0.1-1.5-0.2-3.1,0.1-4.6c0.9-1.9,0.4-4,0.6-6c0.1-0.2,0.3-0.5,0.5-0.7
		c0.2-2.1,0.1-4.3,0.7-6.4c-2.6,3.2-5.1,6.4-7.6,9.7c-1.5,0.2-2.3-1.1-3-2.1c-0.8-1.2-1.9-2-2.5-3.3c-0.1,0-0.4,0-0.6,0
		c0-0.1,0.1-0.4,0.1-0.6c-0.6-0.7-1.2-1.3-2-1.8c0-0.2,0.1-0.7,0.1-0.9c-0.1,0-0.4,0-0.5,0c-0.2-0.2-0.7-0.7-0.9-1
		c0-0.2,0-0.7,0-0.9C120.3,10.7,119.9,10.6,119.5,10.6z"/>
	<path d="M64,16.6c1.2-0.3,2.5-0.1,3.8-0.1c0.2,1.4,0.4,2.7,0.2,4.1c-0.5,2.3-1.5,4.5-1.6,6.9c-0.3,5.2-0.6,10.6,0.9,15.6
		c0.4,1.6,1.3,3.1,2.9,3.8c2,1.1,4.4,0.6,6.4-0.2c3.2-1.3,5.8-3.6,8.8-5.3c3.7-1.6,7.6-2.5,11.3-4.1c3.1-1.4,6.4-2.5,9.9-2.7
		c6.4-0.4,12.9,0,19.3,0c3.4,0,6.9-0.1,10.2,0.9c2.4,0.7,4.3,2.3,6.4,3.4c5.1,2.6,11,2.9,16.3,4.9c3.3,1.3,6.4,3.3,10,3.3
		c2,0.1,4.1-1.1,4.6-3.1c0.9-3.5,0.9-7.1,0.6-10.6c-0.2-2.6-0.3-5.3-1.4-7.7c-0.7-1.7-1.9-3.1-3-4.5c-1-1.3-0.6-3.1-0.7-4.7
		c2.3,0,4.6,0.6,6.5,2c6.4,4.6,10.5,11.9,12.5,19.4c1.2,4.4,1,8.9,0.8,13.4c-0.2,7,1.5,14.2,5.1,20.3c1.7,2.8,4.3,4.9,6.3,7.5
		c3.2,4.3,5.8,9,8.2,13.8c2.8,6,5.4,12.2,6.2,18.8c0.3,2.1,0.1,4.2-0.5,6.2c-1.5,5.1-5.4,9.3-6,14.7c-0.5,3.8-0.2,7.8-1.9,11.4
		c-1.4,2.8-3.5,5.2-5.1,7.9c-1.4,2.4-2.4,5.1-2.1,7.8c0.4,3.6,1.5,7.1,2.6,10.6c0.8,2.4,1.5,4.9,2.6,7.3c1.6,3.2,3.3,6.3,4.4,9.7
		c1.2,3.5,2.2,7,3.9,10.2c2.1,4.1,4.5,8.2,5.3,12.8c0.4,3.3,0.9,6.6,2.3,9.6c1.2,2.4,3,4.3,4.4,6.6c1.6,2.6,1.5,5.9,2.9,8.6
		c1.7,3.5,4.3,6.5,6.8,9.5c2.3,2.9,4.7,6,5,9.8c0.1-0.3,0.3-0.8,0.4-1.1c0,1.6,0,3.2,0.1,4.7c0.2,2.4,1.4,4.4,2,6.7
		c1.4,3.7,2.8,7.4,3.8,11.3c0.8,3,1.2,6.2,1.5,9.3c0.3,2.3-0.1,4.7-0.5,7c-0.9,5.5-3.9,10.4-5.1,15.8c-0.5,2.4-1.2,4.7-1.9,7.1
		c-1.7,6.2-5.3,11.6-9.5,16.4c-3.2,3.9-7.6,6.9-12.5,8.2c-1.3,0.3-3.4,0.8-4.1-0.8c-1-3,0.3-6.2-0.7-9.1c-0.4-1.1-1.2-2.2-2.3-2.4
		c-1.9-0.5-4.1,0.2-5.4,1.8c-2.5,2.6-3.7,6-5,9.2c-1.3,3.5-2.5,7.1-3.4,10.7c-0.6,5.8,0.6,11.7-1,17.4c-1.1,4.5-4.2,8.3-4.8,13
		c-0.8,5.5-0.6,11.2,0.6,16.6c1.2,5.3,4.7,9.5,6.9,14.4c2,4.3,2.3,9.1,3.7,13.6c0.5,1.7,1.7,3.2,2.1,5c-0.1,1-0.4,2-0.7,2.9
		c-2.5,0-5-0.8-7.6-0.6c-2.6,1.5-3.3,4.6-5.4,6.5c-1.4-1-2.8-1.9-4.4-2.3c-2.9-0.9-6.3-1.3-9,0.3c-1.9,1.2-2.6,3.6-3,5.7
		c-2.8-2.6-5.4-5.9-9.4-6.7c-2.4-0.5-5.6-0.1-6.9,2.2c-0.9,1.6-1.9,3.2-2.7,4.9H155c-0.9-1.2-1.8-2.2-2.6-3.5
		c-1.2-1.9-1.8-4.1-3.2-5.8c-1.7-2-3.8-3.7-5.2-5.9c-3.2-4.7-4.4-10.5-4.9-16.1c-1.2-10.4,0.5-20.7,0.5-31.1
		c-0.1-4.8-1.4-10.1-5.3-13.3c-2.6-1.8-6.3-2.4-9.2-0.9c-2.7,1.9-3.2,5.4-4,8.3c-0.8,3.7-2.1,7.2-2.4,10.9c-0.3,3.6,0.1,7.3,1,10.9
		c0.8,2.9,1.5,5.8,2,8.8c0.7,3.1,0.5,6.3,0.5,9.5c-0.1,2.8,0.3,5.8-1,8.4c-1.4,3.9-4.5,7.3-4.5,11.7c0,1.3-0.4,2.6-1,3.8
		c-1.9-0.9-3.8-2-5.2-3.8c-1.9-2.4-5.3-3.7-8.2-2.5c-4,1.6-6.4,5.7-10.2,7.6c-0.6-2.2-0.4-5.1-2.7-6.3c-4.2-1.4-8.9-0.5-12.4,2.1
		c-1.2,0.8-2.6,0.5-3.9,0.5c-0.1-1.5,0.1-3-0.2-4.5c-1.8-1.8-4.6-2.6-7.1-2.5c-2.4,0.4-4.9,0.7-7.2,1.5c0.2-6.3-0.6-12.8,1.2-18.9
		c1.1-3,2.8-5.8,4.5-8.5c3.4-5.5,4.3-12,5.9-18.2c0.9-3.4,1.4-6.9,0.6-10.4c-1-3.7-2.3-7.4-2.4-11.3c-0.2-3.1,0.3-6.2-0.3-9.3
		c-0.7-3.1-2.9-5.7-5.1-7.9c-2.7-2.8-5.1-6-7.5-9.1c-1.9-2.4-2.5-5.5-4.1-8.1c-1.9-2.5-4.7-4.9-8-5.1c-2.2-0.1-3.7,2.3-3.4,4.3
		c0.4,3.7,2.1,7.2,2,10.9c-3.7,0.1-7.3-0.9-10.4-2.7c-3.6-2.1-7.1-4.4-10.1-7.2c-3.3-3.1-6-6.9-7.1-11.4c-0.6-1.8-0.4-3.7-1-5.5
		c-0.5-3.9-2.3-7.5-2.7-11.4c-1.2-7.6,1.7-15,2.7-22.5c0.7-1.9,0.4-4,0.5-6c0.1-0.1,0.4-0.4,0.5-0.6c-0.1-4.6,1.5-9,1.5-13.6
		c-0.1-3.7,2.7-6.6,4.9-9.3c4-4.6,5.4-10.8,8.4-16.1c2.2-4,4.7-7.8,6.2-12.2c0.8-2,0.5-4.3,1.1-6.3c0.2-3.7-0.1-7.3,0.2-11
		c1.5-7.9,7.9-13.8,9.4-21.6c1-5.3-0.9-10.6-3.8-15c-1.8-2.6-2.5-6-4.9-8.2c-2.1-2-4.9-3.6-6-6.5c-1-3.7-0.6-7.6-0.6-11.3
		c0.1-4.5-0.5-8.9-0.4-13.4c0-4.2-0.1-8.4-0.3-12.6c-0.1-2.4-0.7-4.7-0.6-7.1c0.1-2.4,1.4-4.5,2.1-6.7c0.8-2.4,1-5,1.7-7.4
		c0.6-2.1,2-3.8,3-5.7c1.4-2.5,1.8-5.4,3.2-7.8c1.9-3.2,4.3-6,6.5-8.9c3-3.8,7.5-7,8.4-12.1c0.5-4.3-0.6-8.6-1.1-12.9
		c-0.3-4.3,0-8.6,1.1-12.7c0.9-3.4,2.6-6.5,4.2-9.6C59.7,20.7,61.5,18.2,64,16.6 M83.4,53.1c0.1,1.2,0.3,2.4,0.2,3.6
		c-0.2,1.2-0.9,2.1-1.4,3.2c0.5-0.2,1-0.3,1.5-0.7c1.4-1.8,2-4.1,2-6.3C84.9,53,84.2,53,83.4,53.1 M70.3,56.9
		c-0.8,0.2-1.5-0.2-2.2-0.4c-0.2,0.4-0.4,0.9-0.5,1.3c0.3,0.3,0.7,0.7,1,1c1.1-0.1,2.1-0.3,3.2-0.4c0,1.7,0.1,3.4-0.4,5
		c-0.4,1.4-0.5,2.9-0.2,4.3c0.1,0.9,0.5,1.8,0.2,2.7c-0.2,3.2-0.5,6.4,0,9.6c0.3,1.5,0.3,3,0.6,4.5c0.8,3.3,0.1,6.8-0.7,10
		c0.8,4.2,0.3,8.5,0.3,12.7c-1.1,0.4-2.3,0.4-3.4,0.6c-0.7,0-0.8,0.9-1.2,1.3c2.5-0.1,4.9-0.1,7.4-0.1c1,0.1,2-0.4,2.8-0.8
		c-0.9-1.3-2.8-1.2-4.2-1.7c-0.1-4.1,0-8.2-0.1-12.4c-0.1-2.3,0.5-4.5,0.7-6.7c0.2-1.1-0.6-2.1-0.6-3.2c-0.1-0.7,0.1-1.6-0.6-2.1
		c0-7-0.1-14,0.1-21c0.5-1,0.6-2.2,1.2-3.1c1.3-0.2,2.5-0.4,3.7-0.7c-0.6-0.5-1.2-1-1.8-1.5C74,56.5,72.1,56.7,70.3,56.9 M93.3,57
		c-0.3,1.9-0.1,3.8-0.1,5.6c0.1,2.6-0.3,5.3-0.5,7.9c-0.3,4.6-0.3,9.2,0.1,13.8c0.6,5.4,0.3,10.8,0.6,16.2c0.2,2.9-0.3,5.8,0.5,8.6
		c2.1,0,4.3,0,6.4-0.1c0.2-0.4,0.3-0.9,0.5-1.3c-1.8,0-3.6,0.1-5.4,0.3c-0.3-0.8-0.7-1.5-0.7-2.4c0-4.9,0.2-9.7-0.1-14.6
		c-0.1-2.6-0.8-5.2-0.8-7.9c0-4.2,0.1-8.4,0-12.6c-0.1-1.8,0.8-3.4,0.8-5.2c0.1-1.9-0.4-3.7-0.5-5.5c0.3-1.1,1-1.9,1.3-3
		C94.7,56.6,93.7,56.3,93.3,57 M104.2,61.8c0.2,3.3-0.5,6.5-0.5,9.8c-0.5,8.7,0.9,17.3,0.7,26c0.4,3.8-0.3,7.6,0.6,11.3
		c2.4-0.2,5.3,0.9,7.2-1.2c-1.9-0.3-3.8-0.1-5.7,0.2c-0.4-1.2-0.8-2.4-0.7-3.7c0.2-6.1,0.2-12.3-0.6-18.4c-0.3-2.4-0.1-4.8-0.2-7.2
		c-0.1-4.4-0.1-8.9,0.6-13.2c0.2-2.9-1.2-6,0.8-8.6c-0.6-0.2-1.1-0.4-1.7-0.6C103.8,58.1,104.1,60,104.2,61.8 M116.4,81.2
		c-0.2,1.6-0.4,3.1-0.6,4.7c0.3,0.4,0.7,0.8,1,1.2c-0.2,7.5-0.5,15-1.4,22.4c-0.3,2.9-0.1,5.8,0,8.7c-0.1,3.6-0.2,7.1-0.3,10.7
		c0.1,1.6-0.9,3-1.6,4.3c0.6,0.5,1.2,1,1.8,1.3c0.6,0.1,1.2-0.2,1.8-0.3c2.4-0.7,4.9-1.1,7.3-1.9c-0.5-0.3-0.9-0.8-1.6-0.8
		c-2.4-0.2-4.7,0.8-6.9,1.8c-0.4-3.2,1.5-6.1,1.2-9.2c-0.3-5.1-1-10.2-0.5-15.3c1.8-0.7,3.8-0.5,5.6-1.1c-1.4-1.3-3.4-0.8-5.2-0.8
		c0-3.1-0.1-6.3,0.4-9.4c0.4-2.3,0-4.7,0.6-7c0.7-2.5-1.3-4.8-0.9-7.3c2.3-0.3,4.6,0.1,6.9,0.3c0.8-0.3,1.3-0.9,2-1.5
		C123,81.6,119.7,81.3,116.4,81.2 M142.1,83.5c1.5,0.7,3.2,0.7,4.8,0.3c-0.3,3.5,0.7,6.9,0.6,10.4c0,1.9-0.8,3.7-1,5.6
		c-0.4,2.6-0.3,5.3-0.3,7.9c0,1.1,0.7,2,0.6,3.1c0.1,3.4,0.1,6.9,0,10.3c0.1,2.2-1.3,4.1-1.3,6.3c-0.1,2.2,0,4.4,0,6.7
		c0.6,0.1,1.3,0.3,1.9,0.4c0.5-3.2-1.1-6.3-0.5-9.5c1.2-4.6,1.6-9.5,1-14.2c-0.5-3.5-0.5-7.1-0.3-10.6c0.4-2.4,0.8-4.7,1.1-7.1
		c0.2-2.2-0.5-4.4-0.5-6.7c-0.1-1.1,0.6-2.1,1-3.1c0.9,0.3,1.8,0.6,2.7,1c0.3-0.3,0.6-0.6,0.9-0.9c-0.2-0.4-0.4-0.8-0.6-1.3
		C149,81.5,145.2,81.5,142.1,83.5 M134.6,82.4c0,1.2,0,2.3-0.1,3.5c-0.2,0.6-0.5,1.3-0.4,1.9c-0.2,5.1-0.5,10.3-1.5,15.4
		c-0.9,2.8-0.2,5.8-0.9,8.7c-0.3,1.3-0.3,2.7-0.3,4c-0.1,4.4-0.5,8.8-1.9,13c-0.7,1.9-1.2,4.1-0.6,6.1c1.4-2.5,1.6-5.4,2.4-8.1
		c0.4-1.4,0.6-2.8,0.7-4.3c0.8-1.1,0.5-2.7,0.6-4c0.1-0.1,0.4-0.4,0.6-0.5c0-2.3-0.1-4.6,0-6.9c1.4-0.1,2.8-0.1,4.2-0.2
		c0,2.8-0.1,5.7,0.5,8.5c0.8,5.1-0.4,10.7,2.2,15.4c1-5-0.8-10-1.1-15.1c-0.4-3.9-0.1-7.9-0.4-11.8c-0.3-5.1,0.7-10.3-0.2-15.4
		c-0.6-3.5-0.2-7-0.4-10.5C136.8,82.2,135.7,82.3,134.6,82.4 M178.3,119.4c-0.6,1-1.2,2-1.4,3.2c-0.5,3,0.4,6.1-0.3,9.1
		c-1,5.2-1.5,10.5-1.3,15.8c0.2,4.4-0.5,8.7-0.5,13c0,2,0.3,3.9,0.1,5.9c-0.1,2-0.5,3.9-0.3,5.9c0,0.8,0.7,1.3,1.2,1.9
		c1.4-1.2,2.9-2.4,4-4c1.1-2.1,1.9-4.3,1.9-6.6c0.6-1.4,0.4-3,0-4.4c0.3-0.4,0.5-0.9,0.5-1.5c0.1-3.2,0-6.4,0.1-9.6
		c0.3-0.4,0.5-0.9,0.5-1.4c0.1-1.8,0-3.7,0.1-5.6c0.5-4.1,1.1-8.1,0.6-12.2c0.2-2.9-0.1-6.1-2.1-8.3
		C180.4,120,179.3,119.7,178.3,119.4 M186.9,125.3c-0.6,4.8-0.8,9.8-0.4,14.6c1.8,9.9-1.8,20.1,0.7,30c0.3,1.7,1.5,3.1,3.2,3.6
		c1.7-2.7,2.6-5.9,3-9c0.6-1.7,0.4-3.5,0.8-5.2c0.5-2.1,0.2-4.3,0.7-6.3c0.5-2.5,0.1-5,0.6-7.5c0.7-5.8,0.2-11.6,0.4-17.3
		c0.1-1.2,0.6-2.3,0.6-3.5c0-1.3-0.4-2.6-0.8-3.9c-0.4,0.1-0.9,0.1-1.3,0.2c0,4.9,0.1,9.8,0,14.6c-0.1,2.6,0.2,5.3-0.4,7.9
		c-0.6,2.5,0,5.1-0.5,7.7c-0.7,3.7,0.1,7.7-1.5,11.3c-0.2,3-0.6,5.9-1.9,8.7c-0.2,0.1-0.6,0.3-0.8,0.3c-2.7-5.1-1.8-11-1.8-16.6
		c-0.2-5.7,1.4-11.4,0.5-17.1c-0.4-2.3-0.9-4.6-0.3-6.9c0.7-2.5,0.4-5.1,0.8-7.6c0.2-1.2-0.1-2.4-0.4-3.6
		C186.6,121.1,187.1,123.4,186.9,125.3 M156.7,120.8c-0.2,0.3-0.4,0.6-0.6,1c0.5,1.3,0.8,2.7,1.7,3.8c1.8,2.4,4.8,3.9,6,6.8
		c0.8,1.9,0,4-0.2,6c-0.4,2.6,0.7,5.2,0.7,7.8c0,1.5-0.5,2.9-0.8,4.4c-0.4,1.9-0.5,3.9-0.6,5.8c-0.1,4.6-1,9.2-1,13.8
		c0.1,1.5,0.2,3.6,2.1,3.9c0.3-2-0.6-3.9-0.7-5.9c0.7-2.9,0.4-5.8,1-8.7c0.4-2.2,0.4-4.5,0.7-6.7c0.1-1.8,0.7-3.6,0.4-5.4
		c-0.8-5.4-0.6-11.1,1.3-16.3c1.5-3.2,4.4-5.9,4.6-9.7c-0.3,0-1,0.1-1.3,0.1c-0.7,2.2-1.6,4.5-2.8,6.5c-0.8,1.2-1.3,2.6-1.7,4
		c-2.6-3-4.9-6.3-7.4-9.4c0-0.6,0-1.3-0.1-1.9C157.5,120.8,157.1,120.8,156.7,120.8 M64.3,148.6c-0.5,3.4,0.3,6.8-0.3,10.2
		c-0.4,1.6-0.5,3.2-0.6,4.8c0,1.2-0.6,2.3-0.6,3.5c-0.2,13.7-0.5,27.3,0.1,41c0.1,1.6,0.5,3.2,0.8,4.8c0.7,4.8,0.7,9.7,0.4,14.5
		c-0.2,3.3,0.1,6.6-0.2,10c-0.5,4.4-0.1,8.8-0.8,13.1c-0.5,3.6-0.1,7.2-0.4,10.9c-0.9,6.3-0.2,12.7-0.4,19.1
		c0.1,0.2,0.4,0.5,0.5,0.6c0,7.8,0.8,15.8,3.8,23.1c1.1,2.6,2.9,5.2,5.7,6.1c1.8,0.6,3.7-0.4,4.7-1.9c1.9-3,3-6.4,4-9.8
		c3.5-12.6,5.1-25.7,6.8-38.6c0.1-2.5,0.8-5,0.8-7.5c0.9-7.7,1.6-15.5,2.2-23.2c0.6-9.3,1.3-18.7,1.5-28c0.3-11,0.4-22.1,0.7-33.1
		c0.2-2.5,0.2-5,0.9-7.3c0.7-2.7,0.5-5.6,0.3-8.4c-0.1-2.2-0.7-4.3-1.3-6.3c-0.3-1.1-1.2-1.9-2.1-2.5c-0.7,0.8-1.5,1.6-2.4,2.2
		c0.7,6.4-0.5,12.9,0.7,19.2c-0.3,0.6-0.7,1.3-0.7,2c-0.3,2.8,0.1,5.5,0.3,8.3c0.2,1.9-0.5,3.7-0.1,5.6c0.9,3.2-1.3,6.2-0.7,9.4
		c0.6,3.2,1,6.4,0.5,9.6c-0.3,1.9-0.3,3.8,0,5.7c0.3,2.7-0.1,5.3-0.8,7.9c-0.4,1.7-0.5,3.5-0.9,5.2c-0.5,2.2-0.2,4.4-0.4,6.6
		c-0.9,5.1-0.3,10.3-0.7,15.4c-0.1,0.4-0.3,0.7-0.5,1c-0.2,4.3,0.3,8.5-0.5,12.8c-0.3,5.5-0.7,11.1-1.8,16.5c-0.4,2-2,3.7-1.9,5.9
		c-0.2,8.1-1.9,16.1-4.6,23.7c-0.6,2-1.5,3.9-2.7,5.6c-2.9-2.2-4-5.9-5-9.2c-1.9-5.7-2.7-11.7-3-17.7c-0.5-10.4,0.7-20.8,0.7-31.2
		c0.6-9.3,0.6-18.6,1.8-27.8c0.2-1.6,0.6-3.3,0.7-4.9c0.1-6.9-0.3-13.8-1.7-20.5c-1-5.2-2.2-10.6-1.3-15.9
		c1.9-5.4,2.3-11.2,2.5-16.9c-0.1-3-0.5-6.1,0.1-9.1c0.3-0.6,0.9-1.1,1.3-1.6c0-3.5-0.1-7.3-2.1-10.4
		C65.2,142.9,64.8,145.9,64.3,148.6 M113,146.6c-4.2,6-5.6,13.4-6.1,20.5c0.2,3-0.6,6-0.4,9.1c0.6,5.2,0.6,10.5,0.7,15.8
		c0.6,5.2,0.3,10.5,0.3,15.7c0,1.3-0.6,2.6-0.6,4c0.2,1.3,0.7,2.6,0.7,4c0,1.3-0.5,2.6-0.5,3.9c0.2,1.6,0.9,3.1,0.7,4.7
		c-0.4,5.8-0.1,11.6-0.1,17.4c0,2.7,0.2,5.3-0.5,8c-1.7,8-3.3,16.2-2.5,24.4c0.4,4.7,1,9.5,0.2,14.3c-0.2,1.4,0.1,2.8,0.1,4.2
		c0.1,6-2.5,11.9-1.6,18c0.2,1.2,1.6,1.3,2.6,1.5c0.6-1.4,1.3-2.8,1.8-4.2c0.5-1.3,0.3-2.7,1-3.9c0.3-2.7,0-5.4,0.5-8
		c0.5-2.8,0.4-5.6,0.4-8.5c0-5.1,0.1-10.2-0.1-15.3c-0.1-0.1-0.4-0.4-0.5-0.6c0.1-2.4-0.8-4.6-0.8-7c0-2.2-0.1-4.4,0.2-6.6
		c0.7-2.4,1.3-5,2.7-7.2c0.5-0.9,1.2-1.7,1.1-2.7c0-2.1,0.9-4.2,0.6-6.3c-0.2-1.9-0.5-4.1,0.8-5.8c3.3-4.5,8.6-6.8,12.4-10.8
		c1-1.1,0.8-2.6,0.9-3.9c0-1.6,0.6-3,0.9-4.6c1.3-5.7,1.7-11.5,2.8-17.2c0.5-2.7,0.5-5.5-0.1-8.2c-0.3-1.8,0.4-3.7,0.4-5.5
		c0.4-3,0.8-6,1.2-9.1c0.2-1.3,0.1-2.6,0.7-3.8c0-1.3,0.3-2.6-0.3-3.8c-0.5-4.2-1.2-8.3-2-12.5c-0.8-2.6-1.3-5.4-2.9-7.7
		c-2.5-1.1-4.7-2.9-6.5-4.9c-0.5-0.5-1-1.2-1.9-1.2C116.9,143,114.5,144.5,113,146.6 M140.3,177.1c0.2,0.7,0.4,1.3,0.6,2
		c1.2-0.2,2.3-0.3,3.5-0.3c0.2,2.5-0.5,4.9-0.8,7.3c0.5,4.4,0.1,8.9,0.2,13.4c0.9,1.7-0.1,3.8,1,5.4c0.1,2.2,0.1,4.4,0,6.6
		c-0.4,0.5-0.6,1.2-0.6,1.9c-0.2,4.7,0.2,9.5,0,14.2c-1.6,0.2-3.9-0.1-4.6,1.8c3.5-0.2,7.1,0.3,10.4-0.9c0-0.1,0-0.3,0-0.3
		c-1.2-0.7-2.5-0.9-3.8-1.1c-1.1-1.6-0.5-3.6-0.6-5.4c0.1-3.3-0.6-6.6,0.1-9.9c0.5-2.2,0.7-4.5,0-6.6c-0.6-3.2-0.4-6.6-0.4-9.9
		c0.2-4.9-0.3-9.8,0.1-14.6c0-0.8,0.5-1.4,0.8-2.1c1.4-0.3,2.7-0.6,4.1-0.9c-1.1-0.8-2.4-1.2-3.8-1
		C144.5,176.8,142.4,177.3,140.3,177.1 M173.1,216.8c0,2.9,0.4,5.9-0.2,8.8c-1.6,7.6-1.3,15.5-1.3,23.2c-1.2,5.3,0.2,10.9-0.8,16.3
		c0.1,0.7,0.3,1.4,0.4,2.2c0.8-0.1,1.7,0,2.3-0.6c2.4-1.9,3.7-4.9,4.4-7.8c0.3-3.5,0-7,0.6-10.5c0.5-2.5-0.1-5.1,0.4-7.5
		c0.8-3.2,0.2-6.5,0.7-9.8c0.9-4.8,0.5-9.8-0.4-14.6c-0.7-1.7-2.4-2.8-4.1-3.5C174.3,214.1,172.9,215.2,173.1,216.8 M200.3,213.7
		c-0.2,1.3-0.6,2.6-0.6,3.9c0.3,1.2,0.8,2.3,0.9,3.5c0.3,3.2-0.5,6.3-0.4,9.5c0.1,4.1-0.8,8.1-0.9,12.2c-0.3,4.5,0.3,8.9-0.1,13.4
		c-0.3,3.1,0.5,6.6-1.6,9.2c0.5,0.6,0.9,1.8,1.9,1.6c2.8-0.4,5.5-1.3,8.3-1.8c-0.1-0.4-0.2-0.8-0.3-1.2c-2.7,0-5.3,0.9-7.7,1.9
		c0-2.5,1-4.8,1.1-7.3c0.4-5.7-0.8-11.3-0.4-17c1.6-0.8,3.4-0.7,5.2-0.8c0.1-0.3,0.2-0.9,0.2-1.2c-1.6-0.2-3.3-0.3-5-0.2
		c-0.1-4.3,0.9-8.5,0.7-12.8c-0.1-2,0.9-3.9,0.5-5.9c-0.3-1.6-0.8-3.2-1.1-4.8c2.1-0.7,4.3,0,6.5,0.1c1.1,0.1,1.9-0.6,2.5-1.4
		C206.8,214.1,203.5,213.8,200.3,213.7 M160.8,214.4c-1.4,1.8-0.3,4-0.2,6c0.3,2-0.5,3.9-0.5,5.9c-0.1,5.7-0.3,11.3,0,17
		c0.6,6.3,0.6,12.6,0.6,18.9c0,1.6-0.3,3.4,0.7,4.8c2.1-0.2,4.9,0.6,6.5-1.1c-1.7-0.8-3.7-0.3-5.4,0.1c-1.2-5.3-0.1-10.7-0.6-16
		c-0.7-4.8-1-9.7-0.9-14.6c0-3.6-0.4-7.2,0.5-10.7c0.6-2.2-0.3-4.4-0.3-6.7c0.2-1.3,0.6-2.5,0.9-3.7
		C161.9,214.3,161.2,214.4,160.8,214.4 M182.9,214.5c-0.2,3.4-0.3,6.8-0.1,10.2c0.4,0,1,0.1,1.4,0.1c-0.2-3.4,0.1-6.8,0-10.2
		C183.8,214.6,183.4,214.6,182.9,214.5 M193.9,215.2c0.1,3.3-0.6,6.6-0.6,10c-0.1,2.4,0,4.7-0.1,7.1c0,1.6-0.6,3.1-0.7,4.8
		c0,2-0.9,3.9-1.1,5.9c-0.4,4.8-1.4,9.5-1.9,14.3c-0.4,2.5,0,5.2-1,7.7c-0.4-2.4-0.1-4.9-0.2-7.3c-0.1-1.7-0.4-3.4-0.7-5.1
		c-0.6-4.6-0.9-9.2-1.1-13.7c0-4.5-2.2-8.8-1.6-13.4c-1.9,0.5-1.6,2.8-1.4,4.3c0.7,2.9,1.4,5.8,1.8,8.7c0.3,2.1,0.1,4.2,0.3,6.3
		c0.3,2.9,0.8,5.8,1,8.7c0.3,4.1-0.3,8.3,0.6,12.4c0.1,0.9,1.1,1.4,1.7,1.9c0.6-2.1,1-4.3,1.7-6.4c0.6-2.1,0.1-4.2,0.4-6.3
		c0.2-1.8,1.1-3.4,1.2-5.2c0.1-1-0.1-2.1,0.6-2.9c-0.1-3.5,1.1-6.9,0.9-10.4c-0.1-1.2,0.3-2.4,0.5-3.5c0.3-3.7-0.2-7.4,0.6-11
		c0.4-1.9,0.1-3.8,0-5.7C194.6,215.6,194.3,215.4,193.9,215.2 M176,278c-1.1,1.3-2.4,2.6-2.8,4.3c-0.4,2.4,0,4.7-0.1,7.1
		c-0.1,1.5-0.5,2.9-0.6,4.3c-0.1,1.6,0.7,3.1,0.7,4.7c-0.1,2.1-0.8,4.2-1.2,6.2c-0.4,2.8-0.9,5.6-1.2,8.5c-0.6,1.3-0.3,2.8-0.4,4.2
		c-0.1,2.2-0.6,4.5-0.6,6.7c-0.1,6.6,0,13.2-0.3,19.7c-0.1,3.4-0.6,6.8-0.4,10.3c-0.1,2.5-1.1,5-0.6,7.6c0.4,0.6,0.5,1.2,0.5,1.9
		c0.1,3.8,0.2,7.7,0.1,11.5c0,0.6-0.2,1-0.5,1.5c-0.1,3.7-0.7,7.5,0.2,11.1c1.1,0.3,2.4,0.6,3.4-0.1c2.9-1.9,5.3-4.6,7-7.6
		c0.5-0.6,0.4-1.2-0.1-1.8c0.5,0.3,1,0.6,1.5,0.9c-0.1-0.4-0.3-1.2-0.4-1.6c1.3-2.4,2-5.1,2.3-7.7c1-4.3,0-8.7,0.6-13
		c0.7-5.8,0.1-11.8,1-17.6c0.2-2.3,0.1-4.7,0.5-7c0.6-3.3,0.1-6.7,0.7-9.9c0.3-1.8,0.2-3.6,0.4-5.5c0.3-4.2,0.9-8.4,1-12.6
		c-0.9-5.5,0.1-11.1-1-16.6c-0.5-2.9-1.8-5.8-4.1-7.7C180,278.4,177.9,278.2,176,278 M155.4,279.6c-3.7,3.1-6.3,7.3-8,11.8
		c-0.5,1.5-1.2,3.1-1.3,4.7c-0.5,5.1,0.4,10.3,0,15.4c-0.2,1.6,0.9,3,1.7,4.3c0.6,0.9,0.3,2.1,0.3,3.2c1.6,1.9,1.8,4.5,3.6,6.3
		c1.8,1.9,2.8,4.4,3.8,6.9c1.7,4.1,2.7,8.4,4.2,12.5c0,1.8-0.9,3.6-0.3,5.5c0.6,1.8,0.6,3.7,0.7,5.6c0.2,2.4-1.2,4.7-0.8,7.1
		c0.4,2.6-0.4,5.1-1,7.7c-0.8,3.7-1.3,7.8-4.1,10.6c-3,2.8-7.4,2.6-10.7,4.7c-1.1,0.6-0.6,2-0.7,3c3.7-1.3,7.3-3.1,10.8-5.1
		c3.9-2.1,5.6-6.6,6.6-10.7c0.6-3.2,1.2-6.4,1.1-9.6c0.4-0.7,1.1-1.3,1.1-2.1c0.2-5.7-0.8-11.3-0.7-16.9c0.1-4.5-2-8.7-4.4-12.4
		c-1.1-4.9-3.9-9.2-6-13.8c-2-4.4-3.9-9.2-3-14c1.6-7.1,3.2-14.3,6.3-20.9c1-0.4,2-0.8,2.9-1.5c0.5,0,1.1-0.1,1.6-0.1
		c0.8-0.7,1.4-1.6,1.9-2.5C159.3,278.3,157,278.4,155.4,279.6z"/>
	<path d="M136.2,83.8c0.8,2.9,0.1,5.9,0.7,8.8c0.7,3.4,0.4,6.8-0.1,10.2c0.2,1.9,0.7,3.8,0.4,5.8c-1.5,0.2-2.9,0.4-4.3,0.8
		c1.3-3,0.5-6.3,1.4-9.4c0.3-1.5,0.2-3.1,0.5-4.7C135.5,91.5,135.3,87.6,136.2,83.8z"/>
	<path d="M177.9,123.8c0.2-1.1,1.1-1.9,1.8-2.6c0.7,1.5,1.8,2.9,1.7,4.6c0.1,3.8,0.8,7.6,0.7,11.4c0,2.4-0.9,4.7-0.7,7.1
		c-0.1,2.1,0.4,4.5-0.6,6.4c0.7,0.6,0.2,1.5,0.2,2.2c-0.4,2.5-0.2,5-0.4,7.5c-0.2,1.3-0.5,2.7-0.6,4c-0.2,2.4-1.2,4.6-2.2,6.7
		c-0.8,0-1.5,0-2.3,0.1c0.7-3.7,0.1-7.5,0.7-11.2c0.1-3.2-0.3-6.3,0.1-9.5c0.7-5.4-0.1-10.8,0.9-16.1c0.3-1.5,0.8-2.9,0.8-4.4
		C178,128,177.4,125.8,177.9,123.8z"/>
	<path d="M120.5,149c2.5,0.7,3.9,3.3,4.7,5.6c2.4,6.8,2.6,14.1,2.6,21.2c0.1,10.2-1.8,20.3-3.4,30.3c-0.4,2.8-1,5.5-0.9,8.3
		c0.3,6.6-3.4,13-8.7,16.8c-1-0.1-1.9-0.1-2.9-0.2c-0.3-2.1,0.1-4.3-0.4-6.3c-0.3-1.3-0.4-2.6-0.4-4c0-6.4,0-12.9,0.1-19.3
		c0-1.7-0.7-3.4-0.7-5.1c-0.1-1.8-0.1-3.7-0.2-5.5c0-3.7-0.8-7.3-0.3-11c0.5-3.6,0.4-7.3,0.6-10.9c0.9-1.3,0.4-3.1,0.9-4.5
		c1.1-4.9,2.3-10.3,6.1-13.9C118.2,149.5,119.6,149.9,120.5,149z"/>
	<path d="M175.9,214.7c2.7,2.8,2.1,6.9,2.5,10.4c0.8,3.9-0.3,7.9-0.3,11.8c-0.8,8.1-0.3,16.4-2.2,24.4c-0.4,1.9-1.6,3.7-3.6,4
		c0.1-2.9,0.3-5.8,0.3-8.7c-0.1-1.5,0.5-2.9,0.4-4.4c0-2-0.7-3.9-0.3-5.9c0.8-5,0.3-10,0.7-15c0.2-3,1.2-5.9,1.1-9
		c0-1.5-0.4-2.9-0.2-4.4C174.4,216.7,175.2,215.7,175.9,214.7z"/>
	<path d="M175.2,285.2c0.8-1.6,2.3-2.7,3.5-3.9c2.5,2.8,3.6,6.5,4.1,10.1c0.1,1.7,0.2,3.4,0.5,5.1c0.3,3.7,0,7.4,0.5,11
		c0.3,2-0.3,4-0.3,6c-0.1,2.5,0.2,5-0.4,7.5c-0.5,2.2-0.1,4.5-0.4,6.7c-0.1,1.2-0.5,2.3-0.5,3.5c-0.1,5.3-0.3,10.6-0.4,15.9
		c-0.6,1.2-0.4,2.5-0.4,3.8c0,1.1-0.4,2.1-0.5,3.1c-0.2,2.5-0.1,5.1-0.3,7.6c-0.8,1.4-0.4,3.1-0.7,4.7c-0.6,4.1-1.4,8.2-2.8,12.1
		c-0.7,1.7-1.5,3.4-2.9,4.5c-1.3,0.9-2.8,0.4-4.1,0c0-1.6,0.1-3.2,0.4-4.8c1.4-5.7-0.7-11.7,1.3-17.3c0.4-1.3-0.2-2.7-0.2-4
		c-0.1-5.1-0.2-10.2-0.1-15.3c0-1.8,0.8-3.6,0.7-5.5c0-5.4,0-10.9,0-16.3c0-1.2,0.1-2.3,0.4-3.5c0.5-2.8,0.1-5.7,0.9-8.5
		c1.1-3.8,1.4-7.7,1.3-11.6C174.6,292.5,174,288.7,175.2,285.2z"/>
</g>
</svg>
