<svg xmlns="http://www.w3.org/2000/svg" viewBox="0 0 465 451.20804"><title>Asset 13</title><path d="M240.63351,0c12.65545,11.32451,19.8238,30.75141,14.78028,47.32973-4.76334,15.85434,8.3825,27.64587,12.81892,41.609-.18677,10.27375,1.6345,20.38417,3.2923,30.4946.397-.02337,1.19085-.09349,1.56446-.11686,1.004-7.00489,2.47505-13.93965,3.26893-20.99129,2.405-5.93075,5.207-11.67481,8.03228-17.41873-2.31159.09335-6.93484.28018-9.24643.37353,2.872-4.273,5.60389-8.616,8.26571-12.98238-5.72061-2.1715-11.41793-4.45971-17.20866-6.39777.16346-.79395.51369-2.38171.70053-3.17551,6.79468-3.31575,14.05645-6.65473,21.76179-4.45986,14.24328,7.49528,29.60737,15.87771,36.86907,31.07834,6.51456,11.16119,7.145,24.33026,5.65064,36.86914-5.0669,22.906-7.05163,46.41891-12.37534,69.27828-.81725,7.37842-9.66671,8.75611-12.7022,14.57014a43.39479,43.39479,0,0,0,1.401,21.01466c2.24154,4.76327,4.36637,9.59666,6.49119,14.43,5.41713,11.53472,12.60878,22.15877,17.11531,34.13713a154.2332,154.2332,0,0,1,4.01614,18.49286,26.71355,26.71355,0,0,0,10.087-3.71251c1.96136-8.31246.65379-17.11531-.95734-25.381-.77051-12.60885-1.89131-25.31105-.14009-37.87316,3.57249-7.98553,5.207-17.37212,12.07178-23.39622,7.215-7.30844,18.46956-5.0902,27.27234-9.2465-2.77861-12.422-14.21991-20.68773-17.44217-32.993-2.008-5.13694-1.35425-10.7174-.95734-16.04118,3.66591-11.74493,4.43641-24.98412,12.84229-34.6975,11.13781-13.12248,29.86418-16.48483,45.97541-12.07186,5.277,4.97348,10.46066,10.06382,15.43414,15.36409,1.09744.11672,3.26893.37367,4.343.49039,1.30757-3.22226,2.61515-6.42115,3.876-9.62,9.15308-3.22226,13.00576,6.3744,17.46554,12.32853-1.89131,8.91957-7.02826,17.16206-15.2473,21.50505-12.1885,1.21423-25.708,3.59579-36.8457-2.872-1.75122-1.89131-3.45577-3.736-5.16032-5.55722q-1.471,1.646-2.942,3.36235c.86392,1.6811,1.70448,3.38558,2.5684,5.11357,7.00489,12.88889,14.99049,26.57188,12.60885,41.91245-5.207,14.31333-.30356,29.514-1.93806,44.15421-3.22226,14.40668-17.769,21.0614-29.67735,27.13225-5.8374,3.08217-6.95821,9.19976-4.74,15.03716a34.03117,34.03117,0,0,1,3.92272,18.72644c-4.74,17.25526-14.80365,34.04364-31.91889,41.32871-2.10152,1.05076-4.203,2.14827-6.28105,3.269-7.33181,4.43648-15.90109,3.71265-24.05015,2.96545-4.90343,8.42918-10.01694,16.765-14.89707,25.21756-1.19078,1.96129-2.35826,3.94609-3.52574,5.95412-2.5451,4.90336-5.4638,9.66678-7.47191,14.85032-1.82127,7.02826-.18677,14.3367,2.5451,20.89794q2.59188,4.55313,5.0669,9.2465c2.66182,4.66992,5.32371,9.33985,8.38251,13.79956.3969,3.4557.67716,6.93491.9106,10.43735-5.69724,2.66175-11.90825,4.52983-18.28272,4.13279-16.32136-.37353-32.923-.18669-48.684,4.48323-8.75611,2.03141-16.695,6.44438-25.311,8.82608.8873-2.82536,2.68519-8.4993,3.59586-11.32451-6.09429,2.77861-12.025,5.8374-18.11933,8.616.51369-4.36637,1.09744-8.68613,1.54108-13.02913-4.48316,2.07815-8.98962,4.2029-13.56612,6.11759-2.07815.77058-4.13286,1.541-6.211,2.31159.84062-3.47907,1.77459-6.98151,2.82528-10.39061-5.13687.28018-10.27382.56051-15.41069.63049,5.277-12.84229,19.68371-16.25139,30.77478-22.27549,2.28822-.84069,4.59988-1.68125,6.91147-2.49843,7.51858-1.91469,15.08383-3.66591,22.60242-5.65057,1.798-17.86252,1.07413-35.795,1.2609-53.7275-17.53559-.44365-35.09448-.04674-52.63006-.23358-.65379,2.732-1.35425,5.4405-2.07808,8.17237-.58374,5.41713-.79388,10.92761-2.47505,16.18127-1.23753,12.79569-.3503,25.66135-.86392,38.50364a26.871,26.871,0,0,1-14.61688,11.62807c-1.96136.04674-5.83741.11672-7.79876.16346-7.9856-3.71265-12.04841-12.00174-19.17009-16.81176a90.85,90.85,0,0,0-14.897-8.24248c-7.12168-2.14813-14.19661-4.413-21.365-6.351-7.07493-3.339-14.17317-7.58863-17.39542-15.10714-3.24563-9.45671-14.36-9.877-22.369-12.79569,4.59988-3.50244,9.33985-6.84142,14.10319-10.08705-6.07092-1.004-12.11846-2.078-18.14263-3.12877.21014-.8873.67709-2.61515.8873-3.47907,6.0008-2.21824,11.86158-4.71667,17.93249-6.6781.35023-.84055,1.02739-2.47505,1.35425-3.29223-6.16426-1.75122-13.14585-1.77459-18.30609-5.9775,4.59988-5.46387,11.58139-6.70133,18.166-7.98553-.16346-1.12088-.49032-3.33912-.67716-4.45986-1.2842-.63049-3.876-1.89131-5.18362-2.5218.04674-1.12074.14016-3.36235.18684-4.48309,6.44452-.70046,13.51945-2.31159,19.4502,1.261,15.80774,8.66262,29.02363,21.66837,45.27495,29.56056,3.01212-11.30128,6.818-22.369,10.67079-33.4133,3.94609-2.1249,8.66269-2.89533,12.11846-5.86078-15.08391-16.32136-21.5751-38.01311-27.08557-58.98116-9.90029-18.60958-31.2418-26.12823-48.52051-36.16854-.91067-2.14813-1.798-4.273-2.63852-6.39777-9.12971-15.43406-30.96162-17.13868-38.27-34.23062A300.59923,300.59923,0,0,0,31.561,138.53334c-5.674-9.47994-8.80282-20.034-12.44535-30.35451-2.68523-8.17237-12.422-5.58059-18.91321-6.39777-.25685-5.88415-.25685-11.74493-.07-17.6057,5.37042-1.05076,10.64742-2.47505,15.94779-3.806-2.872-2.47505-7.91552-3.61916-7.42516-8.47592a203.76522,203.76522,0,0,1,22.29886,1.91469q-2.24156-7.18-4.17957-14.40668c6.25768.49039,13.00572,1.05076,17.9792,5.37038,8.87286,6.678,12.3286,17.62893,18.30609,26.57188.25688,1.26083.51369,2.5218.77058,3.82937.9106,0,2.73187-.02337,3.64254-.02337C70.228,84.10538,78.40032,75.933,83.724,66.19612c1.56446-5.39376,3.15221-10.81089,4.66992-16.20464C88.9777,46.816,89.60811,43.68719,90.472,40.605c.79395-2.42845,1.56446-4.83339,2.35833-7.2151,3.339-8.84945,8.38251-16.9051,13.26257-24.93738.95734.04674,2.872.14009,3.82937.18684-2.5451,11.8615-2.24154,24.09683-4.48316,36.02845,4.31969-1.2376,8.59271-2.66189,12.889-3.92272,2.96538-1.07413,5.95412-2.07815,8.9195-3.10554,21.41163-12.422,47.02617-8.149,70.39916-5.72069,10.36724.42028,20.571,2.68526,30.96155,2.94207,2.21824,1.70448,4.41311,3.4557,6.63128,5.23029A77.53089,77.53089,0,0,0,240.63351,0Z"/></svg>