<?xml version="1.0" encoding="utf-8"?>
<!-- Generator: Adobe Illustrator 21.0.0, SVG Export Plug-In . SVG Version: 6.00 Build 0)  -->
<svg version="1.1" id="Layer_1" xmlns="http://www.w3.org/2000/svg" xmlns:xlink="http://www.w3.org/1999/xlink" x="0px" y="0px"
	 viewBox="0 0 353 410" style="enable-background:new 0 0 353 410;" xml:space="preserve">
<path d="M203.8,12.6c2.2-0.8,4.3-1.8,6.6-2.2c8.2-0.6,16.4-0.1,24.6-0.3c3.1-0.2,5.8,1.8,8.3,3.4c6.3,4.1,12.8,7.8,19.1,11.8
	c4.8,2.3,10.2,1.2,15.2,1.1c13.6-0.8,27.8-1.7,40.7,3.6c10.5,4.5,19.9,12.2,25.4,22.3c3.1,5.1,3.8,11.4,2.8,17.3
	c-1.7,12.1-8.8,22.9-18.1,30.7c-4.5,3.4-9.3,6.5-14.4,9.1c-8,3.1-16.5,5.4-25.2,5.5c6.8-5.3,14.6-9.3,20.9-15.4
	c5.9-5.7,10.7-12.4,14.7-19.6c0.4-0.7,0.6-1.5,0.7-2.3c0.6-4.5,0.6-9.1,0.1-13.6c-0.1-1.6-1-2.8-1.8-4.1c-2.7-4.1-6.6-7.5-10.9-9.8
	c-1.6-0.8-3.3-1.7-5.1-1.9c-6.8-0.6-13.8-0.5-20.6,0c-4.2,1.7-7.3,5.9-7.6,10.4c-3.9-0.3-7.8-0.3-11.7,0.1c-0.4,2.8-0.8,5.7-1.1,8.5
	c8.1,2.3,16.3,4.6,24.8,4.2c8.2-0.2,15.7-3.9,23.4-6c-0.4,6.5-2.7,12.8-6,18.3c-4.7,7.6-11.1,14-18,19.6c-3.3,2.1-6.8,4.3-10.7,4.9
	c-2.2,0.4-4.3,1.2-6.6,1.3c-6.5,0.3-13,0-19.5,0.3c-2.3,5.4-4.9,10.9-5.9,16.7c-0.3,1.7-0.7,3.5-0.2,5.3c0.8,2.7,2.7,4.9,3.9,7.4
	c2.1,3.9,3.1,8.2,4.2,12.5c0.4,1.5,0.4,3,0.4,4.5c0.5,16.1,1.7,32.2,0.1,48.2c-2,14.1-4,28.2-6.6,42.1c-2,10.1-4,20.4-3.7,30.7
	c10.4,0.8,20.9,1.9,31.1,3.9c8.3,1.4,15.8-3.4,23.3-6.2c0.3,5.1,0.1,10.4-2.3,15c-2.8,5.1-7.6,8.7-12.6,11.5
	c-5.3,2.8-10.7,5.7-16.7,6.3c-10,1.3-19.8-1.9-29.1-5c-1.4-0.5-3.1-0.2-3.9,1.1c-3.4,4.7-6.3,9.9-9.4,14.9
	c-2.4,4.3-4.3,8.8-6.2,13.4c-2.7,6.7-3.6,14.5-1.2,21.5c2.3,6.1,7.2,10.7,12,14.9c3.4,2.9,6.6,6.8,6.4,11.5
	c-3.4,3.1-7.1,6.4-11.9,7.1c-13.4,1.2-26.4,5.6-38.6,11c-4.8,2.1-9.5,4.4-14.5,5.9c-3.5,0.9-7.2,1.8-10.7,0.7
	c-3.3-0.5-5.8-2.9-9-3.5c-6.3-1.3-12.5,0.8-18.6,1.7c0.6-3.4,2.7-6.3,4.6-9.1c-5.2-0.2-10.5,0-15.7,0.1c3.8-3.2,7.6-6.5,11.6-9.4
	c0.1-0.8,0.3-1.7,0.4-2.5c-2.4-0.1-4.7-0.4-7.1-0.7c1.8-3.3,5.6-4.5,9-4.9c2.9-0.2,5.7-0.9,8.5-1.3c17.1-0.3,33.9-4.7,51.1-4.4
	c0.1-3.1,0.2-6.4-0.9-9.4c-0.7-2.1-2.3-3.6-3.7-5.2c-7.8-8.8-16.1-17.3-23.5-26.4c-1.4-1.7-3-3.4-3.5-5.6c-1.3-5.1,0.6-10.5-1-15.6
	c-9.3-2.4-18.9-0.5-28.2,0.7c-3.4,0.5-7,0.4-10.2,1.9c-4.7,2.3-8.2,6.6-10,11.4c-2.7,9.1-0.8,19.1-4.3,28.1c-0.7,1.6-1.2,3.7-3,4.2
	c-1.8,0.5-3.9,0.8-5.5-0.3c-3.1-1.9-6.4-3.6-9-6.2c-10.4-10.8-23.4-19.1-37.6-23.7c-6.4-1.9-13.5-3-18.6-7.7
	c-4.7-4-5.5-10.7-9.6-15.1c-3.6-3.3-8.6-4.1-13.2-5c-1.8-0.3-3.1-1.6-4.6-2.5v-0.3c5.4-3.1,11.9-3,17.9-2.1c0.9,0.3,1.6,1.1,2.3,1.7
	c0.2-1.2,0.3-2.4,0.5-3.6c-5.7-1.9-11.6-3.6-17.1-6.1c5.5-2.1,11.4-3.3,16.9-5.3c-1.6-1.4-3.2-2.7-4.7-4.2c4.4-0.7,8.8-1,13.2-0.3
	c1.4,0.1,2.4,1.2,3.4,1.9c12.6,9.5,24.1,20.3,36.5,30.1c3.8,2.7,8.2,4.4,12.6,5.7c0.7-10.8,2.9-21.4,4.4-32.1
	c0.3-2.2,1.2-4.3,1.8-6.4c1.5-4.8,5.1-8.7,9.3-11.3c1.5-0.9,3-2,4.9-1.9c3.8-0.1,7.7-0.2,11.6,0.4c4.4,1.4,8.7,3.1,13.3,3.4
	c3.2-2.9,5.1-6.8,7.2-10.4c2.4-6.2,3.8-12.8,5.1-19.4c1.6-8.9,3.2-17.8,5.2-26.6c-12-1.1-23.6-5.1-35.6-5.5
	c-7.3-0.5-14.4,1.7-21.2,3.7c0-1,0-2.1,0.1-3.1c3.9-3.4,7.7-7.1,10.9-11.1c-6.4,0.3-12.7,0.9-19.1,1.8c0-0.4-0.1-1.2-0.2-1.6
	c3.6-3.2,8-5.5,11.3-9.1c-5.7-0.3-11.5,0.1-17.2-0.3c3.3-4,9.6-4.8,11.4-10.1c-3.4-0.2-6.9-0.3-10.3-0.3c0-1.2,0.1-2.3,0.1-3.4
	c7.2-2.5,14.8-2.2,22.3-2.4c7.2-0.2,14.5-0.4,21.5,1.6c5.1,1.4,9.3,5,14.4,6.3c6.1,1.8,12.3,2.7,18.5,3.8c-1.9-6.5-4-13-5.9-19.5
	c-1.8-0.4-3.6-0.2-5.4-0.5c-3.5-5.4-6.3-11.4-8.4-17.5c-1.4-4.2,2-7.8,3-11.7c-2.1-6.2-4.8-12.2-7.3-18.2
	c-2.4-5.5-4.5-11.1-7.2-16.4c-7.3-14.9-16.9-28.5-26.7-41.8c-0.8-1-0.8-2.4-1.1-3.6c3.1,0,6.3,0,9.4,0c-1.7-4.3-3.3-8.7-4.4-13.2
	c3.8,1.9,7.5,3.9,11.2,6c-0.1-4.8-0.3-9.6-0.5-14.4c3,2,6,4.1,8.8,6.3c0.8-3.6,1.6-7.2,2.5-10.7c6.9,8.3,12.9,17.2,19.4,25.8
	c1.1,1.4,2.3,2.8,2.8,4.6c0.8,3.1,0.5,6.3,0.8,9.5c1.4,16.4,5.6,32.6,11.3,48c0.7,2,2.2,3.6,4.1,4.6c0-3.6,0.1-7.2-0.7-10.7
	c-1.6-5.2-0.1-10.6,0.8-15.8c0.6-4.7,3.7-8.6,4.8-13.2c2.5-10.2-0.9-20.7,1.3-31c1.2-4.6,2.9-9.2,5.6-13.2
	C185.6,22.2,194.5,16.4,203.8,12.6 M205,34c-1.6,1.6-3.6,3.1-4.3,5.4c-1.6,4.1-0.3,8.9,2.2,12.4c0.6,0.7,1.2,1.9,2.3,1.6
	c11.2,0.2,22.3,0.8,33.5-0.4c4.8-6.2,9.3-12.7,14.4-18.6c-8.1-6.2-18.5-9.5-28.7-8.7C217.3,26.2,210.2,29,205,34z"/>
</svg>
