<svg xmlns="http://www.w3.org/2000/svg" viewBox="0 0 420.71642 495.76353"><title>Asset 7</title><path d="M210.19043,62.28936C214.5745,41.52625,217.86813,20.49607,223.45391,0c1.491,16.33455,4.38407,32.46881,6.16441,48.75885.80115-.40058,2.40342-1.15723,3.20457-1.53554,9.41353-13.99786,18.98282-27.97346,29.53126-41.14792-1.33523,11.37187-1.91386,22.8105-2.626,34.22687a94.42032,94.42032,0,0,0-1.53554,16.04524c13.68629-10.4817,23.96773-24.9914,36.56355-36.80836-.31156,8.47884-2.69273,16.62385-4.05024,24.94692a98.67643,98.67643,0,0,0-2.04738,11.68341c11.68343-7.61091,22.25415-16.84637,32.73583-25.99283,1.11271-.06678,3.33812-.2003,4.45083-.26706-.60084.75663-1.80258,2.22541-2.42569,2.95981-3.82772,11.23833-8.56786,22.14289-12.084,33.47024.86791-.51184,2.626-1.55778,3.49388-2.06965q9.24661-5.14069,18.42643-10.39268c4.09476-2.35893,8.27855-4.58435,12.57361-6.52047-6.565,11.39413-14.30944,22.03161-21.29724,33.15868-4.27279,6.80976-9.30222,13.15221-12.99641,20.29577,7.0768,5.71933,6.38693,15.4889,6.832,23.67841.75667,18.15939-4.91815,36.074-13.99784,51.62965-1.58006,2.982-3.09333,5.98637-4.62887,8.99066-7.03232,14.799-2.1809,31.26709-3.73871,46.86723-8.01147,14.24268-23.92321,20.74088-34.36038,32.82487-11.03807,12.79614-21.74231,26.03735-30.644,40.43578-2.42569,4.40635-4.76239,8.87942-6.8988,13.46377-5.1407,9.90309-10.48168,20.02877-18.89375,27.57289-3.71644,3.78323-9.28,6.654-9.61381,12.59586,8.65686,2.49245,19.40562,3.44937,24.45732,12.06178,4.33955,8.01144,7.03232,16.80186,10.83776,25.05813,4.8069,10.72652,9.28,24.01225,21.542,28.15148,5.69706,2.8708,12.173,2.02514,18.29291,1.69134,6.58721-2.64825,13.33021-4.91815,19.98422-7.43288,2.93753-.77891,5.91961-1.49106,8.87938-2.2699,11.7057-2.33673,24.05676-1.84713,35.22832,2.55921,9.48029,3.3604,15.75594,11.77246,25.08043,15.39983,10.17016,1.62458,20.38481,3.11564,30.71073,3.3604,8.34531.42283,17.336.97919,24.61308,5.54126,5.519,4.028,6.09765,11.34963,5.09619,17.58083-1.26847,3.67192-2.24766,7.43288-3.33812,11.17156-3.51613,11.17156-12.6181,20.82985-24.32377,23.25561-16.44581,2.40342-33.448-1.06822-48.55857-7.49971-.51184-1.20168-1.53551-3.60516-2.04738-4.80684,2.448-1.35754,4.89594-2.67052,7.36612-3.98351.089-1.06822.28931-3.24909.37835-4.33959a66.42363,66.42363,0,0,0-10.01437,1.98065,153.17205,153.17205,0,0,1-18.67123,8.45655,91.53412,91.53412,0,0,1-15.33311,4.42855l-1.53554,1.06822c-20.09549,2.02514-40.32454.77891-60.46452,1.06822-10.86.35607-21.453-2.06969-31.66768-5.47457-13.19669-5.02939-25.32521-13.86429-31.42285-26.92747-.22254-1.24623-.64537-3.73875-.84565-4.985-3.2046-14.50968-1.11271-29.77606-.86793-44.57506,1.93612-10.10333,1.64682-20.49605,1.313-30.733-1.46878.9347-4.40633,2.75956-5.87509,3.6942a64.26216,64.26216,0,0,0-15.68918,24.7466c-.35606,14.02015,1.44652,28.28507,6.36469,41.48177,4.07251,11.7724,13.219,20.78537,17.84784,32.313-1.89162,2.982-3.64968,6.76528-7.92249,5.83058-19.73942-.77891-40.21325-7.25481-59.64111-.97919-8.18953,5.49678-18.49321,4.36186-27.83994,5.45229-4.82915,2.31445-9.88085,4.74014-15.37762,3.91675.40058-1.402,1.224-4.20607,1.64682-5.60809a11.67641,11.67641,0,0,0,5.05168-8.12275c-5.1407,1.84713-10.25916,3.761-15.42213,5.58581-2.00288.57856-6.05313,1.71354-8.07825,2.2699A24.55637,24.55637,0,0,1,58.4394,477.9301c-5.6303,1.2685-10.949,5.76382-17.00217,3.96124,1.53553-3.6942,4.47309-6.45369,6.96554-9.5025-5.18521.37828-10.34817.68987-15.55565.77884.93467-7.099,9.25773-10.23685,15.42213-11.4386,14.4652.75663,27.48387-6.25341,40.369-11.77246a129.5069,129.5069,0,0,1,27.28359-8.87938c.91241-6.36472-1.15723-12.41785-3.31588-18.29291-4.51759-16.4013-6.11989-34.47165-.11126-50.67267,2.35893-2.42576,8.61234-4.16158,5.80833-8.36758-.95693-.71215-2.84853-2.13638-3.78322-2.84853C90.15156,348.12168,71.54709,323.90912,68.387,296.24723c-9.88085,8.47883-18.09263,18.738-28.285,26.81626-6.63174,5.341-16.51257,4.38407-21.542-2.537-.60085-4.42859-1.17947-8.87942-2.04738-13.26349-.28931-14.08688,1.0682-28.70784-4.3173-42.10484C8.63461,252.006,2.1364,238.698,4.94042,224.76692c4.028-4.9627,6.23116-11.59443,3.85-17.80332A73.408,73.408,0,0,0,0,198.30674c.2448-2.02514.46734-4.05027.71214-6.07541,7.34387,1.42426,12.99642,6.654,19.42787,10.1034-.02226-1.17947-.04451-3.5384-.06677-4.7179-3.20459-3.8722-6.49821-7.85571-7.789-12.81838,6.565.86791,11.57216,5.45226,17.26922,8.36755-.55635-.80115-1.71357-2.40342-2.29218-3.20457-1.73582-3.64968-3.27135-7.45515-3.00431-11.57218,6.18665,3.82772,11.08256,9.25773,16.82414,13.6418.51184-6.80976-4.89591-11.61667-6.32018-17.89232,5.9196-.64539,12.46232.3338,15.06605,6.47593,6.38695,7.967-.44508,17.38052,1.09047,26.30442,1.80258,13.35249,5.85283,26.5937,4.206,40.191a49.618,49.618,0,0,0-1.91386,13.17445c9.96985-3.85,15.46663-14.02012,25.14718-18.471,10.03663-2.626,22.23191-3.22684,30.48819,4.09479,8.21177,9.68053,2.49245,23.3001,5.341,34.64969,10.86-8.96842,17.11343-22.07611,25.68127-33.06967q1.66906-2.67051,3.33812-5.341c1.09047-1.93613,2.20317-3.89448,3.31588-5.80833,1.11271-3.80547,3.56066-7.61091,2.31443-11.68343-5.074-4.38407-12.15078-4.74014-18.31517-6.743-13.86434-4.67338-29.82056-5.96413-40.92538-16.46809-10.14789-9.34674-16.55709-22.32091-28.24052-30.1321-6.25341-5.18522-14.77675-7.01-20.29578-13.08545-1.80258-1.66906-3.27135-4.53983-6.2089-3.98348-4.22829,2.55921-8.12277,6.05313-13.41926,5.60805,2.29218-4.98494,5.29649-9.74733,6.49822-15.17735-4.18378,1.89162-8.27855,3.98348-12.39556,5.98637-1.491-5.67481,2.26992-9.68057,6.654-12.5291.267-.80115.75664-2.38118,1.00144-3.18233-2.15866-.22255-6.49822-.66763-8.65686-.86791,4.09476-6.43145,12.03949-7.49967,17.98135-11.50539-5.519-2.24769-11.59441-.53411-17.35823-1.09047,1.37975-7.7,11.01581-9.369,17.336-11.52767,11.19383-2.91529,20.11774,4.85142,27.86219,11.66119,14.06462,12.50682,28.75236,24.30153,43.26207,36.27427,15.5779,13.35249,36.56357,16.4013,55.79115,21.2082,5.65254.86791,17.06893,2.69273,16.89089-5.83058-5.36324-.57863-10.70424-1.135-15.97848-2.22541,1.75808-1.00146,3.47164-2.04741,5.163-3.1156l.42283-.267,9.0797,1.15723c.15578-7.58867-8.94618-4.51759-13.6863-6.60948-5.0517-.66763-10.37044-.51187-14.95479-2.98208-4.117-.31156-8.25629-.53408-12.35106-1.02367,8.18953-1.82486,16.69061-.86791,24.88014.48959,5.163.20028,10.30368.37832,15.46664.3338-.48959-5.67481-6.34243-6.52045-10.593-8.01147-2.95981-.64539-6.00861-1.15723-8.6346-2.715-3.939-.62311-7.85573-1.17947-11.7502-1.95838,10.05888-1.98062,19.76169,1.98062,29.73154,2.33669,1.95838-2.58149,3.58292-5.3855,5.31874-8.10051a17.76708,17.76708,0,0,0-2.715-9.81409c-1.33526-1.89162-2.67051-3.761-3.96125-5.65254-3.11557-7.36615-2.35893-16.31229,3.89448-21.80907,7.32162-8.47883,18.80475-10.1924,29.08619-12.68486,1.24623-5.71933,2.40345-11.43863,3.33812-17.20248C209.011,69.74451,209.56731,66.0058,210.19043,62.28936Z"/></svg>