<svg xmlns="http://www.w3.org/2000/svg" viewBox="0 0 406.89148 492.09276"><title>Asset 5</title><path d="M272.20969,0c16.78877,3.45038,19.72975,23.57376,18.80349,37.81527,1.042.23157,3.14931.6947,4.1914.92626,2.77879-7.36389,1.36625-15.81617,5.30289-22.71694,6.39134,7.13234,10.07328,16.04775,12.69,25.17157.25469,1.71363.78733,5.14084,1.04209,6.85447,9.42482-4.53877,15.53828-13.1763,19.197-22.74011,1.87571,1.36625,3.77459,2.75568,5.67348,4.16824l-.30105,1.01891c-.13894.44-.39363,1.34311-.53263,1.78309.92633,5.25662,2.03782,10.51323,3.17256,15.74672,1.2736-2.52413,2.57039-5.07137,3.72823-7.665.46317-3.61246.8568-7.2481,1.181-10.88375,5.21031,5.604,10.2585,12.20371,9.6564,20.33178.88-.02314,2.63992-.06947,3.543-.09261,4.39987-11.64793,7.87341-25.12527.6021-36.49533,10.42062,1.5052,16.233,11.25427,21.7675,19.15077,3.21885,14.10256,3.63566,30.91452-4.95555,43.28031a22.46376,22.46376,0,0,0-3.381,7.82705c1.59783.41681,4.7935,1.25046,6.41451,1.6673,7.91963-11.48585,14.35725-24.29163,15.39934-38.44052,8.29015,12.80578,14.33415,28.20516,10.09639,43.535a139.88146,139.88146,0,0,1-9.93427,20.00759c-12.66684,18.7108-31.53973,32.466-52.45043,40.66356-1.29685.27787-3.91353.88-5.23349,1.15785a83.143,83.143,0,0,1-12.34268,2.45463,159.4543,159.4543,0,0,1-3.51983,28.29777c-3.17249,7.64179-9.1933,13.3847-14.82042,19.2434.6021,19.52131.55574,39.78363-7.20184,58.07759-3.26506,7.98913-10.30479,13.66261-13.61622,21.60542.13894,14.58887-2.15365,29.54823,2.19987,43.76658.53263,2.98726,3.242,4.7935,5.09455,6.97026a69.81636,69.81636,0,0,1,34.967-18.47922c19.42863-1.1347,38.11629,14.70463,41.72876,33.55441-9.147-6.53027-18.40979-16.071-30.77558-13.29209-.32416,1.482-.99573,4.42295-1.32,5.905,4.53881,4.74714,11.208,7.01655,15.67729,11.97209,9.28588,10.027,15.5151,24.73158,11.25423,38.37105-2.63985,9.286-3.19567,18.91924-3.63558,28.52936-1.73677,18.38661-.139,37.329-6.66921,55.044-9.65647.32423-8.22075-11.74058-9.63329-18.27078-3.79777-17.553-1.6673-36.86586-11.62482-52.63573-.741.83362-2.223,2.50092-2.9409,3.3346-6.646,24.94-27.78832,42.53927-50.36632,53.00618,2.08411-3.70505,4.09875-7.43335,6.09028-11.16159,1.181-2.03782,2.38516-4.05246,3.56619-6.06718q4.37659-8.44068,8.66067-16.95082,2.46618-6.3913,5.07137-12.7132c1.69048-6.3218,3.03355-12.71313,4.77032-19.01182.11576-10.60584,3.40407-23.62-6.206-31.285-7.64183-2.1304-17.94662-2.96408-21.92962,5.58083-3.7283,10.21221-12.48162,16.92771-18.27085,25.82a126.47052,126.47052,0,0,0-10.6522,22.578c-1.181,9.49428-.83362,19.26651,3.28832,28.0893,6.55338,12.45844,17.113,21.92962,28.71458,29.57145,4.07564,1.96835,3.7283,7.086,2.01464,10.58266-20.216-1.78306-42.16875-10.2585-61.27322.7874-1.99146,1.22731-4.00617,2.47774-5.97446,3.72823-19.12765,4.74714-39.04262,2.15358-58.54072,2.9178-8.38287.602-16.58037-1.55155-24.12955-5.02508-.88-3.40407-1.78306-6.785-2.47781-10.189.76422-1.32,2.2694-3.95982,3.03355-5.27978,13.3847-8.47545,29.75667-4.51563,44.64656-5.8587,13.10683-2.2694,26.63047-5.83552,37.07427-14.49626,4.02928-6.27551-2.2694-12.50473-5.6503-17.39081-8.406-11.16166-16.69613-22.53172-23.36533-34.828-3.17249-7.43335,3.40407-13.33841,5.58083-19.89179-12.29632-4.02935-26.37578-2.75568-37.28267-10.53645-4.53874-2.75568-8.73014-8.707-14.70467-5.92817-17.3677,11.76376-24.8937,35.89324-17.48345,55.4377.94944,3.26514,1.99146,6.53027,3.1262,9.749a120.07361,120.07361,0,0,1,1.0652,14.14892c-9.30906.55574-14.47308-8.03546-21.14229-12.9679-10.00381-7.89652-17.22876-19.70657-29.77978-23.96744-9.95752-3.103-20.37814-4.60821-30.0809-8.61438-13.45414-5.71976-24.26845-15.76986-33.71645-26.67676-3.51986-5.23349-12.991.34734-14.38047-7.1323A53.13845,53.13845,0,0,1,13.66257,359.465c-.11576-.88-.34734-2.663-.46313-3.543C8.63753,353.6295,1.87571,352.49476,2.362,346.05714c3.95982-.13894,7.94281-.162,11.94895,0a35.98274,35.98274,0,0,0,13.06054,7.526,26.82278,26.82278,0,0,0-12.69-15.39934v-4.14508c4.7935.27787,10.49009-.99577,14.19521,2.91776,3.95982,4.5851,4.74718,11.78687,10.51323,14.79731,6.29872,3.56612,11.90266,8.1975,17.99294,12.111,6.94708,3.40407,14.26468,6.044,21.46645,8.93861,5.44189,1.96835,11.069,4.81661,17.04354,3.56619a12.9412,12.9412,0,0,0,2.19987-6.50716,182.58109,182.58109,0,0,1,5.69666-32.55864c1.50519-3.82088,2.96408-7.6649,4.44609-11.48582,1.11156-2.08411,2.19994-4.1914,3.28832-6.27551,3.77459-4.83983,7.85016-9.95749,13.871-12.01845,9.77223-2.501,20.7023,1.50519,30.12719-1.96835l.55574-2.26937c-6.76178-9.888-11.87952-21.18861-11.69422-33.39229-9.98063-3.242-21.62856-7.27127-25.40316-18.20135-3.31142-5.51136.04629-13.66261-5.81241-17.64561-9.21641-7.06284-18.24767-14.35729-27.742-21.04964C70.35077,206.583,56.08609,217.513,40.98776,217.212c2.68618-3.6588,5.62715-7.10919,7.71126-11.16166-9.23963,1.482-17.715,6.41448-22.138,14.8436-.92626-.13894-2.802-.39366-3.72827-.50946-.25473-2.03782-.741-6.11343-.97259-8.15125-2.87147,2.40834-5.67344,4.863-8.52177,7.27127-5.92817-6.044-.11576-14.63516,6.2524-17.46031,13.33838-7.06287,25.982-15.67725,40.4783-20.26231,8.45227-.5326,17.04347-.69472,25.38,1.11152a158.28182,158.28182,0,0,1,25.65792,4.49245c5.41871,1.36625,10.768,3.01041,16.094,4.724,2.31569.92626,4.60828,1.922,6.924,2.9409,3.89035.48631,7.827.88,11.78687,1.1347,3.5893-12.92157,12.29632-23.80532,21.99908-32.7439,5.09448-3.4504,11.3237-5.8587,14.612-11.37006-5.69666-4.97873-11.069-10.42062-14.14892-17.43717a126.72969,126.72969,0,0,1-.4631-17.27509c4.65449,2.84833,7.87334,7.36392,12.08792,10.74481,10.30479,3.14934,20.91071-1.55151,29.5482-7.03969.02318-.97259.09265-2.94094.11583-3.91353-1.36625-.55574-4.09882-1.621-5.44189-2.17676-11.04583-2.77882-21.90644-6.46077-31.88707-11.97213-4.49245-2.75568-9.77223-2.362-14.77413-2.24623-3.70512,1.59783-7.41025,3.17252-11.09219,4.83983.3937-17.99294,14.95936-33.346,31.16921-39.5289,13.98681-2.663,27.32522,1.87571,40.47834,5.95135.6021-2.501,1.22731-4.97876,1.85253-7.45653a39.674,39.674,0,0,1,20.84124-18.5024c2.33887-.67154,4.70085-1.34311,7.06291-2.01464,7.29442-2.63989,14.51937-5.51136,21.65174-8.54491,3.31142-3.3346,7.43335-7.3639,6.57656-12.52791C275.03484,15.28357,273.46018,7.66494,272.20969,0Z"/></svg>