<svg xmlns="http://www.w3.org/2000/svg" viewBox="0 0 359.75975 497.615"><title>Asset 2</title><path d="M216.34143,0a24.9487,24.9487,0,0,1,5.17618,5.79733c.506,2.43855,1.10421,4.8311,1.77131,7.22365,1.40329,4.71607,2.78369,9.45516,4.072,14.21724,2.8296,10.23735,6.00434,21.16484,2.46158,31.67822a158.64554,158.64554,0,0,0-3.58881,16.95486c2.99065,1.12727,5.98131,2.20852,9.018,3.26678,3.93395-10.95052,6.8096-22.31512,11.54868-32.96652a14.33575,14.33575,0,0,1,7.5917-7.89082c-.023,5.47526-.43711,10.92749-.96618,16.35673-1.42631,10.49039-6.46447,25.12173,4.27894,32.27636,10.76644,6.80957,18.86433,16.95489,29.56169,23.83344,6.2575-10.19131,13.94117-19.48545,19.85354-29.90682.98921-.069,2.94474-.207,3.93395-.27605.023,7.22365.483,14.58532-1.51842,21.62492-1.72539,9.9843-10.55933,17.82907-9.133,28.45751,14.17117,17.691,11.6867,41.59346,8.18986,62.45923-2.23158,10.0993-6.16539,20.06058-13.27407,27.74432-5.08407,6.32644-12.72183,10.9045-15.45946,18.88732-1.44934,4.94611-.34513,10.14529-.16105,15.18344-2.25447,3.54283-4.50908,7.10865-6.62552,10.72045.89724,2.94467,3.35882,6.80957.64407,9.61621-3.54276,4.67006-6.83249,9.54716-10.37525,14.24022-3.28973,3.5198-7.82184,5.54427-11.31868,8.834-.27605,2.94467-.43711,5.91233-.46,8.903-8.25895,7.20065-15.73565,16.01167-18.68039,26.77811-4.302,15.89663-5.061,32.69044-10.97341,48.15-2.96777,8.07486-11.20354,12.19282-15.66657,19.25538-2.20855,8.21289,2.76066,15.66657,5.52118,23.02827,5.88934,14.01019,10.55947,30.27491,24.6617,38.34978,11.38763,1.70237,22.68314-.73618,33.0355-5.47526,6.11947-2.39257,12.26184-4.6471,18.47328-6.80953,2.89854-1.10428,5.84328-2.18553,8.742-3.38177,5.38315-.55217,12.05473-1.51835,15.6896,3.58881,6.46447,8.949,8.94893,21.87794,20.75064,25.76583,8.88013.11507,17.76012-.36809,26.64012.16105,0,6.94756.023,13.89519-.04606,20.84275-12.62986.18408-25.25972.138-37.88957.046a23.56836,23.56836,0,0,0-15.59762-8.857c-23.78735,4.762-48.58707,2.41552-71.91428-3.86493-10.67447-3.24368-20.93486-9.45512-26.54814-19.39341-5.61329-10.23729-9.59315-21.27985-14.12526-32.02326q-2.38105-5.4523-4.532-10.97355c-.52908-1.56434-1.56434-4.67006-2.09342-6.2344-1.05829.092-3.19776.27605-4.25605.36809-5.01513,4.78506-9.6392,10.26032-10.90446,17.29992,1.03526,19.66953,22.82117,31.49419,21.04986,51.94589-13.45815,3.12868-27.33024,2.62256-41.04142,2.94467-16.81683-.069-33.67972.82816-50.47352-.78217-9.82329-.87421-19.71551-.20711-29.51577.59809.43711-1.63335,1.33434-4.8771,1.77145-6.51045-1.40329-.32211-4.21-.98921-5.61329-1.33434,2.8296-1.88638,5.61329-3.7498,8.512-5.54427-3.10579-1.17322-6.16539-2.32348-9.2021-3.5198.16105-2.64559.391-5.26815.6671-7.89078,10.76644-2.92164,21.92407-5.24519,33.15064-4.8771A181.56278,181.56278,0,0,0,126.897,460.45c9.57012-4.92309,4.25591-16.31071,2.53052-24.33952-1.40329-8.14388-8.21289-13.297-12.4688-19.85354-2.64566-5.93532,1.84039-11.13453,4.85407-15.80459-5.33723-1.28829-10.6975-2.25454-15.98867-3.61184-3.81881-.253-7.63776-.36809-11.43354-.391-.78224,1.21928-2.34658,3.65783-3.12882,4.90006.04606,4.09493.09211,8.21289.18408,12.35388,1.95553,5.98131,4.187,11.9167,5.65934,18.05906-.138,5.77434-3.35882,10.95052-7.1546,15.11446-10.00737,1.65638-20.95789-.52915-28.9867-6.94756-11.22657-10.35236-20.52064-22.52216-30.896-33.67972-7.06263-7.72973-13.57315-16.03466-18.49617-25.28274-.92027-2.89868-1.8175-5.7973-2.66869-8.673C7.5917,364.58718,3.12868,358.07665,0,351.08311c5.40632,2.8296,10.32933,6.53348,15.78157,9.36308a127.54258,127.54258,0,0,0-7.91381-15.87361c1.21935.207,3.63487.62112,4.85421.82823,3.19762,3.15171,6.44144,6.25743,9.68512,9.38611,1.03526-.023,3.08276-.092,4.118-.138-2.96777-6.55651-5.82039-13.159-9.29421-19.46242,1.77145.9202,3.58881,1.84039,5.40632,2.76059,3.10565,2.55362,6.11933,5.10717,9.34012,7.63776-1.05829-4.80809-2.39264-9.50118-3.70381-14.21723,1.0121.184,3.0596.5521,4.07183.75914,7.06263,12.44585,15.52854,24.04051,22.45314,36.57833.89724-.069,2.66855-.184,3.56579-.253-.16105-12.58387-.391-25.16775,0-37.72859-.207-10.58243,9.17907-20.40568,19.89959-19.96857,9.041-.52911,15.80459,6.32644,23.18933,10.44437,1.70237-4.8771,3.56579-9.68519,5.68223-14.40127-13.113-2.46154-22.246-13.458-28.61853-24.45459-1.03526-3.08269-2.00145-6.1424-3.08262-9.17907-2.0475-6.07338-4.27908-12.07775-6.85566-17.92111-3.84184-9.98427-9.7542-19.62347-9.70815-30.643-.138-7.13164-1.65645-14.10223-2.94474-21.07281-1.12723-3.61181-2.07039-7.26967-3.19776-10.88147-.80513-2.27753-1.58737-4.555-2.36947-6.83256-1.33434-3.22076-2.7146-6.39546-4.04895-9.59318-5.13013-10.58243-8.995-22.24607-7.68367-34.13978,4.00289-9.52421-.96632-19.14038-1.42645-28.75656,3.38184,3.74983,6.07342,8.18986,10.35236,11.08851-.06894-6.05039-.6671-12.05476-.7821-18.08213,5.59026,5.45223,8.12078,13.55009,14.83841,17.89808-1.4954-7.29266-4.92316-14.14821-5.22224-21.67094,6.71749,6.39546,10.39842,15.13746,15.91959,22.45311a187.24514,187.24514,0,0,0,0-23.83344c1.01224.092,3.01368.29908,4.02592.39112C79.092,114.47413,84.42928,126.6209,87.857,139.3428c4.325,14.28624,4.072,29.4237,7.13171,43.986,1.58723,7.40769,2.34644,15.96565,8.78788,21.04979.50619-4.716.80527-9.47815,2.02447-14.10219,1.10435-2.25454,2.20855-4.532,3.31276-6.78654.18408-6.51049,1.05829-13.45808-2.25447-19.39344-2.94474-7.15463-10.07631-14.24025-6.44144-22.52212,1.81736-4.02592,6.23433-3.56582,9.93828-3.61184,7.06263-.069,13.9642,1.61036,20.86578,2.94467A19.09186,19.09186,0,0,0,114.08308,126.989c.092-2.00145.253-6.02736.345-8.02881-2.69157,1.40332-5.33723,2.87566-7.98275,4.325.138-4.90009.391-9.77723.59816-14.65433-2.96777,1.08125-5.98145,2.39257-9.041,1.03523-.62119-7.63772-1.05829-15.39052.80513-22.89021,3.97986-7.56871,10.60539-14.12522,11.3646-23.02824.506-1.35734,1.4954-4.07194,1.97842-5.40625,4.02592-.25306,8.07486-.48309,12.14684-.75918,10.49039-18.51923,22.246-38.05066,41.6855-48.334-4.072,18.68025-14.9075,35.40507-17.6221,54.45342-1.47223,13.136,10.37539,22.70617,21.763,26.157,7.29262.50612,14.10223-2.2775,20.72775-4.92312q-1.34586-3.55431-2.76066-7.0396a53.11806,53.11806,0,0,1,1.01224-28.13541c2.96763-7.75276-.89724-15.52854-2.32355-23.14329,2.99065,2.2085,5.98145,4.463,8.926,6.78656a166.05065,166.05065,0,0,1-2.18553-17.78306C201.388,10.83547,209.48577,6.25743,216.34143,0Z"/></svg>