<?xml version="1.0" encoding="utf-8"?>
<!-- Generator: Adobe Illustrator 21.0.0, SVG Export Plug-In . SVG Version: 6.00 Build 0)  -->
<svg version="1.1" id="Layer_1" xmlns="http://www.w3.org/2000/svg" xmlns:xlink="http://www.w3.org/1999/xlink" x="0px" y="0px"
	 viewBox="0 0 249.8 335" style="enable-background:new 0 0 249.8 335;" xml:space="preserve">
<style type="text/css">
	.st0{fill:#212020;}
	.st1{fill:#858585;}
	.st2{opacity:0.95;fill:#777777;enable-background:new    ;}
	.st3{fill:#818181;}
	.st4{opacity:0.63;fill:#151515;enable-background:new    ;}
	.st5{opacity:0.48;fill:#242424;enable-background:new    ;}
	.st6{fill:#7A7A7A;}
	.st7{opacity:0.35;fill:#0C0B0B;enable-background:new    ;}
	.st8{opacity:0.89;fill:#212020;enable-background:new    ;}
	.st9{opacity:0.2;fill:#070707;enable-background:new    ;}
	.st10{opacity:0.97;fill:#201F1F;enable-background:new    ;}
	.st11{opacity:0.46;fill:#0F0F0F;enable-background:new    ;}
	.st12{opacity:0.38;fill:#0C0C0C;enable-background:new    ;}
	.st13{opacity:0.55;fill:#121212;enable-background:new    ;}
	.st14{opacity:0.27;fill:#0C0C0C;enable-background:new    ;}
	.st15{opacity:0.71;fill:#171717;enable-background:new    ;}
	.st16{fill:#636363;}
	.st17{opacity:0.18;fill:#060606;enable-background:new    ;}
	.st18{opacity:0.5;fill:#111010;enable-background:new    ;}
	.st19{opacity:0.48;fill:#101010;enable-background:new    ;}
	.st20{fill:#7D7D7D;}
	.st21{opacity:0.31;fill:#0B0A0A;enable-background:new    ;}
	.st22{opacity:0.12;fill:#040404;enable-background:new    ;}
	.st23{opacity:0.98;fill:#808080;enable-background:new    ;}
	.st24{opacity:0.59;fill:#141313;enable-background:new    ;}
	.st25{opacity:0.31;fill:#0A0A0A;enable-background:new    ;}
	.st26{opacity:0.98;fill:#7C7C7C;enable-background:new    ;}
	.st27{opacity:0.73;fill:#191818;enable-background:new    ;}
	.st28{fill:#6C6C6C;}
	.st29{opacity:0.39;fill:#0D0D0D;enable-background:new    ;}
	.st30{opacity:0.49;fill:#111010;enable-background:new    ;}
	.st31{opacity:0.24;fill:#080808;enable-background:new    ;}
	.st32{fill:#747474;}
	.st33{opacity:0.19;fill:#060606;enable-background:new    ;}
	.st34{opacity:0.69;fill:#171616;enable-background:new    ;}
	.st35{opacity:0.88;fill:#4A4A4A;enable-background:new    ;}
	.st36{fill:#7F7F7F;}
	.st37{opacity:0.71;fill:#4A4A4A;enable-background:new    ;}
	.st38{opacity:4.000000e-02;fill:#020202;enable-background:new    ;}
	.st39{opacity:0.97;fill:#706F6F;enable-background:new    ;}
	.st40{opacity:0.15;fill:#050505;enable-background:new    ;}
	.st41{opacity:0.64;fill:#505050;enable-background:new    ;}
	.st42{opacity:0.5;fill:#111111;enable-background:new    ;}
	.st43{opacity:0.95;fill:#7E7E7E;enable-background:new    ;}
	.st44{opacity:0.49;fill:#101010;enable-background:new    ;}
	.st45{opacity:0.98;fill:#787878;enable-background:new    ;}
	.st46{opacity:0.67;fill:#585858;enable-background:new    ;}
	.st47{opacity:0.17;fill:#080808;enable-background:new    ;}
	.st48{opacity:0.52;fill:#111111;enable-background:new    ;}
	.st49{opacity:0.96;fill:#646363;enable-background:new    ;}
	.st50{opacity:0.98;fill:#5B5B5B;enable-background:new    ;}
	.st51{opacity:0.54;fill:#121212;enable-background:new    ;}
	.st52{opacity:0.61;fill:#202020;enable-background:new    ;}
	.st53{fill:#F5CD37;}
	.st54{fill:#272626;}
	.st55{fill:#828282;}
	.st56{opacity:0.7;fill:#181818;enable-background:new    ;}
	.st57{opacity:0.41;fill:#0E0D0D;enable-background:new    ;}
	.st58{opacity:0.42;fill:#0E0E0E;enable-background:new    ;}
	.st59{opacity:6.000000e-02;fill:#020202;enable-background:new    ;}
	.st60{opacity:0.45;fill:#0F0F0F;enable-background:new    ;}
	.st61{opacity:0.66;fill:#161515;enable-background:new    ;}
	.st62{opacity:0.13;fill:#040404;enable-background:new    ;}
	.st63{opacity:0.11;fill:#040404;enable-background:new    ;}
	.st64{fill:#2D2C2C;}
	.st65{opacity:0.41;fill:#0D0D0D;enable-background:new    ;}
	.st66{opacity:0.51;fill:#111111;enable-background:new    ;}
	.st67{opacity:8.000000e-02;fill:#030303;enable-background:new    ;}
	.st68{opacity:0.4;fill:#0D0D0D;enable-background:new    ;}
	.st69{opacity:0.29;fill:#090909;enable-background:new    ;}
	.st70{fill:#585757;}
	.st71{opacity:0.97;fill:#757474;enable-background:new    ;}
	.st72{opacity:0.58;fill:#171616;enable-background:new    ;}
	.st73{fill:#605F5F;}
	.st74{opacity:0.25;fill:#090909;enable-background:new    ;}
	.st75{opacity:0.98;fill:#707070;enable-background:new    ;}
	.st76{opacity:0.44;fill:#0E0E0E;enable-background:new    ;}
	.st77{opacity:0.7;fill:#171717;enable-background:new    ;}
	.st78{opacity:0.33;fill:#0B0B0B;enable-background:new    ;}
	.st79{opacity:9.000000e-02;fill:#030303;enable-background:new    ;}
	.st80{opacity:0.61;fill:#232222;enable-background:new    ;}
	.st81{opacity:0.44;fill:#0F0E0E;enable-background:new    ;}
	.st82{opacity:0.57;fill:#131212;enable-background:new    ;}
	.st83{opacity:0.96;fill:#686868;enable-background:new    ;}
	.st84{opacity:0.96;fill:#4D4D4D;enable-background:new    ;}
	.st85{fill:#808080;}
	.st86{opacity:0.94;fill:#383737;enable-background:new    ;}
	.st87{opacity:0.98;fill:#6A6A6A;enable-background:new    ;}
	.st88{opacity:0.84;fill:#2A2929;enable-background:new    ;}
	.st89{fill:#7C7C7C;}
	.st90{opacity:0.53;fill:#121111;enable-background:new    ;}
	.st91{opacity:0.97;fill:#616161;enable-background:new    ;}
	.st92{opacity:0.45;fill:#212121;enable-background:new    ;}
	.st93{opacity:0.47;fill:#100F0F;enable-background:new    ;}
	.st94{opacity:0.8;fill:#1B1A1A;enable-background:new    ;}
	.st95{opacity:0.13;fill:#050505;enable-background:new    ;}
	.st96{opacity:0.58;fill:#141313;enable-background:new    ;}
	.st97{opacity:0.98;fill:#5D5D5D;enable-background:new    ;}
	.st98{fill:#656565;}
	.st99{opacity:0.56;fill:#414141;enable-background:new    ;}
	.st100{opacity:0.36;fill:#222222;enable-background:new    ;}
	.st101{opacity:0.96;fill:#6B6B6B;enable-background:new    ;}
	.st102{opacity:0.64;fill:#151515;enable-background:new    ;}
	.st103{opacity:0.65;fill:#161515;enable-background:new    ;}
</style>
<g>
	<path class="st0" d="M98.8,17h0.5c0.8,0.4,2.8,0.7,2,1.9c-0.9-0.1-1.7-0.4-2.6-0.4C97,19.3,96,21.3,96,23.2
		c-0.2,4.7,1.8,9.1,4.1,13.1c1.5,2.4,2.1,5.2,2.8,8c0.9,3.7,0.3,7.8-2.1,10.8c-1.3,1.6-3.6,2.1-5.6,1.6c-1-0.1-1.4-1-1.7-1.8
		c1.4,0.2,2.8,0.7,4.2,0.8c2.1-0.8,2.9-3.2,3.4-5.2c1.1-4.8-0.5-9.7-2.7-13.9c-2.2-4.1-4.4-8.5-4-13.3C94.4,20.5,95.9,17.5,98.8,17z
		"/>
	<path class="st0" d="M27.3,17.2c0.4,0,1.1,0,1.5,0c0.4,5.4,0,10.8,0.4,16.1c0.4,3.7,0,7.5,0.3,11.3c0.1,2.6,0.5,5.1,0.3,7.7
		c0,0.6-0.1,1.2,0.1,1.8c1.4,0.3,2.9-0.5,4.3-0.1c0.4,0.5,0.2,1.2,0.3,1.8c-1.8-0.2-3.7-0.2-5.5,0.3c-0.9,0.3-1.1-0.9-0.9-1.5
		c0.4-3.4,0-6.7-0.1-10.1C27.6,35.4,27.3,26.3,27.3,17.2z"/>
	<path class="st0" d="M80.6,18.6c0.5-1.6,3.3-1.3,3.6,0.3c0,2.5-1.3,5.1-3.3,6.6c-0.6,0.6-1.3,0-1.9-0.3c1.2-1,2.4-2.2,3.1-3.6
		C81.3,20.8,80.1,19.9,80.6,18.6z"/>
	<path class="st0" d="M44.8,18.1c1.6-0.4,3.4-0.3,5-0.2c0,0.6,0,1.2,0,1.8c-1.4,0.1-2.8,0-4.2,0.3c0.5,5.1,0.4,10.2,0.2,15.3
		c1.2-0.2,2.3-0.5,3.5-0.3c0.5,0.4,0.3,1.1,0.2,1.6c-1.2,0.2-2.4,0.2-3.6,0.4c0.3,5.7-0.3,11.5,0.4,17.2c1.9-0.2,3.8-0.3,5.6,0.2
		c-0.5,0.6-0.8,1.4-1.7,1.5c-2.1,0.2-4.2,0.3-6.2-0.1c0.5-6.7,0.4-13.3,0.2-20c-0.1-4,0.3-8,0.1-12C44.2,21.8,43.2,19.5,44.8,18.1z"
		/>
	<path class="st0" d="M64.3,18.1c1.9-0.3,3.8-0.5,5.7-0.2c0,0.5,0,0.9,0,1.4c-1.3,0-2.6-0.1-3.9,0.3c0.9,5.9,0,12,0.6,18
		c0.1,1.4,0.5,2.8,0.4,4.2c0,4.1,0.1,8.3,0.1,12.4c-0.1,0.6,0.1,1.5-0.7,1.7c-0.6,0.4-1-0.4-1.1-0.9c-0.3-1-0.1-2.1-0.1-3.1
		c0.4-4.6,0.4-9.3,0-13.9c-0.3-4-0.3-8-0.3-12c0-2-0.1-4.1-0.5-6.1c-1.4,0-2.9,0.6-4.3-0.1c0-0.2,0-0.6,0-0.8
		C61.5,18.4,62.9,18.4,64.3,18.1z"/>
	<path class="st0" d="M194,24.4c3.6-0.4,7.3,0.1,10.8-0.8c0.3,1.2,0.5,2.4,0.6,3.7c-1.3-0.8-2.8-1.3-4.3-1.2c0,1.8,0,3.7,0.1,5.5
		c1.7,0.4,3.4,0.2,4.9-0.6c-0.1,1.1-0.1,2.2-0.3,3.3c-0.6,0.4-1.2-0.1-1.7-0.2c-1.1-0.4-2.2-0.1-3.2,0.3c-0.1,3-0.2,6-0.1,9
		c0,2.9,0.4,5.7,0.5,8.6c1.8,0,3.5-0.5,5.2-0.9c-0.6,1.3-1.3,2.5-2,3.7c-3.3-0.3-6.7-0.6-10-0.5c0.5-0.9,1.3-1.8,1.2-2.9
		c0.2-4-0.1-8-0.1-12c-0.1-4.4,0.4-8.8-0.3-13.1C195.2,25.5,194.5,25,194,24.4 M196.6,26c0.8,0.6,1.7,0.4,2.6,0.2
		C198.5,25.5,197.5,25.8,196.6,26 M199.5,27.3c-0.9,0-1.8,0-2.7-0.1c0,0.1-0.1,0.4-0.1,0.5c1.1,0,2.2,0,3.3,0
		c-0.7-0.4-0.1-1,0.1-1.5C199.9,26.6,199.7,27,199.5,27.3 M196.5,28c0.1,0.2,0.3,0.7,0.3,0.9l0.3,0c0,0.3-0.1,0.9-0.1,1.3
		c1.1,0,2.2,0,3.2-0.1c-0.2-0.1-0.5-0.2-0.7-0.3c0.2-0.5,0.5-1,0.8-1.5C199.1,28.1,197.8,28,196.5,28 M197.1,30.6
		c-0.2,0.4-0.4,0.8-0.6,1.2c1.1,0.1,2.1,0.2,3.2,0.1c-0.3-0.2-0.9-0.6-1.2-0.8c0.3-0.2,0.6-0.4,0.9-0.6
		C198.7,30.5,197.9,30.5,197.1,30.6 M196.8,32.6c-0.1,1.5-0.1,2.9-0.2,4.4c1,0,2.1-0.1,3.1-0.1c0-0.5-0.1-1-0.1-1.6
		c-0.7,0-1.3-0.1-2-0.1c0-0.1,0-0.4,0-0.6c0.7-0.1,1.3-0.1,2-0.2c0-0.2,0.1-0.7,0.1-1c2-0.3,4-0.2,6-0.3c-0.3-0.3-0.6-0.9-1.1-0.7
		C201.9,32.8,199.4,32.1,196.8,32.6 M197.2,37.4c0.6,0.3,1.5,0.3,2.1,0C199.1,36.8,197.6,36.9,197.2,37.4 M196.7,39.3
		c-0.1,2.4,0.3,4.9,0.1,7.3c1.2,0,2.4,0,3.5-0.4c-0.5-0.1-1-0.2-1.6-0.3c0.2-0.2,0.4-0.4,0.6-0.6c0-0.5-0.7-0.8-1.2-0.7
		c0.5-0.2,1-0.4,1.5-0.6c0-0.9-0.3-1.8,0.2-2.6c-0.3-0.3-0.5-0.6-0.8-0.9c0.7-0.1,0.9-0.5,0.6-1.2c0-0.1,0.1-0.4,0.1-0.6
		c0.4-0.7-0.8-1.2-1.2-0.7c-0.5-0.2-1-0.2-1.6-0.1C196.9,38.3,196.8,38.8,196.7,39.3 M196.9,47c0.1,0.1,0.4,0.3,0.5,0.3
		c-0.3,0.5-0.6,1-0.9,1.5c1.3,0,2.5,0,3.8-0.1c-0.4-0.5-0.8-1-1.1-1.5C198.9,46.5,197.5,46.7,196.9,47 M196.9,49.2
		c1,0.6,2.2,0.5,3.3,0.2C199.2,49,198,49,196.9,49.2 M196.4,49.8c0.1,0.2,0.3,0.7,0.4,1l0,0.1v0.5c0.2,0.6,1.9,0.7,2.1,0.1
		c0.5,0.1,1,0.2,1.5,0.4c0-0.3-0.1-0.9-0.2-1.2C199.4,49.5,197.7,49.9,196.4,49.8 M196.4,52l0,0.7c1.3,0.1,2.7,0.1,4,0.1l0-0.7
		C199.1,52,197.8,52,196.4,52 M204.3,52.8c-0.6,0.3-1.2,0.4-1.8,0.3c-2-0.1-3.9-0.3-5.9,0c2.1,0.4,4.2-0.1,6.3,0.5
		c0.5-0.3,1.1-0.5,1.6-0.8L204.3,52.8z"/>
	<path class="st0" d="M132,24c2.3,0.1,4.5,0.1,6.8,0.1c1.1,4.5,1.4,9.1,2.2,13.6c1-2,1.3-4.3,1.8-6.4c0.4-2.4,0.9-4.7,1.3-7.1
		c2.3-0.1,4.5-0.1,6.8-0.1c-0.7,0.7-1.4,1.6-1.3,2.6c-0.2,5.7,0.2,11.3,0.2,17c-0.1,3.6-0.7,7.3,0.3,10.9c-2.4-0.3-4.7-0.3-7.1-0.2
		c1.3-4.5,0.9-9.2,0.8-13.9c-0.9,2.6-1.6,5.3-2.2,8c-0.1,0.1-0.3,0.3-0.4,0.3c-0.4-0.4-0.8-0.8-1.2-1.2c0.3,0,0.9-0.1,1.2-0.2
		c0-0.1-0.1-0.4-0.1-0.6c0.3-0.8,0.5-1.7,0.6-2.6c-1.3-0.1-2.9-0.3-3.9,0.9c-0.1,0.5-0.1,1-0.2,1.5c0.2,0.1,0.6,0.3,0.8,0.4
		c-0.1,0.2-0.2,0.5-0.2,0.7c0.9,0.5,1.9,0.9,2.9,1.2l0.1,0.2c0,1.8-0.7,3.5-0.9,5.2c-0.7,0-1.3-0.1-2-0.1c-0.1-0.8-0.9-2.6,0.5-2.4
		c0.3,0.6,0.4,1.2,0.7,1.8c0-0.7,0-1.5,0-2.2c-0.6,0-1.2-0.1-1.8-0.2c-0.2-2.5-0.9-4.9-1.2-7.4c-0.1-0.9-0.3-1.8-0.6-2.7
		c-0.2,2.2-0.2,4.4-0.1,6.6c0.1,2.1-0.4,4.3,0.4,6.3c-1.3,0-2.6,0-3.9,0.1c0.5-3.6-0.1-7.2,0.3-10.9c0.6-4.6,0-9.1,0.2-13.7
		C133.2,27.8,132.9,25.8,132,24 M145.2,24.9c0.3,0.4,0.6,0.8,0.8,1.2c-0.7-0.1-1.3,0.1-1.6,0.7c1,0,2-0.1,3.1-0.2
		c-0.2,0.2-0.6,0.5-0.7,0.7c0.7,0,1.5,0,2.2,0c-0.3-0.3-0.6-0.6-1-0.9c-0.1,0-0.3-0.1-0.4-0.1c-0.1-0.5-0.1-1.1-0.2-1.6
		C146.7,24.8,145.9,24.9,145.2,24.9 M133.9,25.5c0.1,1,0.2,2.1,0.1,3.1c0.8,0,1.6,0.1,2.4,0.1c-0.8,0.2-1.6,0.2-2.4,0.4
		c-1,0.3,1.1,0.9,1.2,0.6c-0.4,0.2-0.8,0.5-1.2,0.7c1.6-0.2,3.3,0.2,4.8-0.5c-0.4,0-1.2-0.1-1.6-0.2c0-0.1,0.1-0.3,0.2-0.4
		c0.6-0.3,1.2-0.7,1.8-1c-1.4-0.3-2.8-0.3-4.1-0.7c1-0.2,2.1-0.3,3.1-0.3c0-0.1-0.1-0.4-0.2-0.5c0.2-0.3,0.4-0.5,0.6-0.8
		C137.2,25,135.5,25.2,133.9,25.5 M144.2,27.9c0.6,1,1.9,0.6,2.9,0.4l-0.3,0.5c-1.1-0.1-2.2,0-3.2,0.3c0.7,0.2,1.4,0.4,2.1,0.4
		c1.1,0.2,2.2,0.1,3.3,0.1c0-0.5,0-1.1,0-1.6C147.3,27.8,145.7,27.7,144.2,27.9 M144.1,29.9C144.3,30.1,144.3,30.1,144.1,29.9
		 M133.8,32.1l0.7,0.1c-0.2,0.2-0.6,0.6-0.8,0.8c0.8,0,1.7,0,2.5-0.1c0.2,0.5,0.5,0.9,0.7,1.4c-1,0.1-2.6-0.5-3.1,0.6
		c2.1-0.1,4.3-0.1,6.4,0.1c-0.1-0.9-1-1-1.7-1.1c0.1-0.1,0.2-0.3,0.3-0.4c0.6,0.3,1-0.8,0.3-0.9l0.4-0.1c0-0.3,0-0.9,0-1.2
		c-0.2,0.1-0.6,0.2-0.8,0.2C137,31.2,135.1,31,133.8,32.1 M143.7,31.2c0.1,0.4,0.3,0.8,0.4,1.2c1.1,0.1,2.2,0.4,3.3,0.6
		c-0.3,0.6,0.9,1,1.1,0.4l0-0.2c0.2-0.4,0.4-0.7,0.6-1.1c-1.1,0-2.1,0-3.2,0c0.9-0.2,1.7-0.4,2.6-0.6c-1.4-0.2-2.9-0.3-4.3,0
		C143.9,31.4,143.8,31.3,143.7,31.2 M142.7,33.3c0.5,0.4,1.2,0.4,1.9,0.6c-0.6,0.1-1.1,0.1-1.7,0.2c-0.3,0.9-0.5,1.8-0.8,2.7
		c0.6,0.1,1.3,0.1,1.9,0.2c-0.6,0.1-1.2,0.1-1.8,0.2c-0.6,0.7-0.7,1.7-1,2.5c-1.3,0-2.5,0.1-3.8,0.2c-0.4,0.7-0.7,1.4-0.5,2.3
		c0.8,0.1,1.7,0.2,2.5,0.3c-0.8,0.1-1.7,0.2-2.5,0.2c0.4,0.3,0.8,0.6,1.2,0.9c-0.3,0.2-0.5,0.4-0.8,0.6c1.6,0.3,3.2,0.2,4.7,0
		c0.1-0.7,0.2-1.4,0.3-2c-0.6,0-1.2-0.1-1.9-0.1c0.6,0,1.3-0.1,1.9-0.1c0.2-0.5,0.5-0.9,0.7-1.4c-0.2,0-0.7,0-0.9,0.1
		c0.9-0.7,1.5-1.7,2-2.7c0.3,0.4,0.2,1.5,1,1.3c1-0.1,2,0,2.8,0.7c0.3-0.3,0.6-0.5,1-0.8c0.1-0.5,0.2-1,0.2-1.5
		c-0.6,0-1.2,0.2-1.8,0.3c0.5-0.5,1.2-0.6,1.8-0.8c-0.8-0.4-1.6-0.7-2.4-1c0.6-0.2,1.2-0.4,1.8-0.7c0,0.3,0,0.8-0.1,1.1
		c1.3-0.3,0.8-2-0.3-2.1C146.3,33.9,144.6,32.8,142.7,33.3 M134.1,33.8c0.2,0.6,1.7,0.4,1.9-0.1C135.5,33.4,134.7,33.5,134.1,33.8
		 M133.9,35.1c0,1.9,0,3.7-0.1,5.6c0.5,0,1.1,0,1.6,0.1c-0.2-1.2,0-2.3,0.2-3.4c1.2,0,2.5,0,3.7,0c0-0.6,0-1.2,0.1-1.8
		C137.6,35.2,135.7,35.1,133.9,35.1 M136.2,37.4c0.1,0.4,0.2,0.8,0.3,1.3c0.2,0,0.5,0.1,0.6,0.1c-0.2,0.2-0.4,0.7-0.6,0.9
		c1.3-0.1,2.6-0.2,3.8-0.3c-0.1-0.6-0.1-1.3-0.2-1.9C138.8,37.4,137.5,37.4,136.2,37.4 M145.3,39.5c0,0.5,1,0.5,1.3,0.2
		C146.6,39.2,145.6,39.2,145.3,39.5 M144.3,40.3c0.6,1.2,1.9,0.8,2.7,0.1C146.1,40.2,145.2,40.2,144.3,40.3 M144.7,41.4
		c0,0.4,0.1,1.1,0.1,1.5c0.8-0.1,1.5-0.3,2.3-0.5c0.5,0.5,0.9,1.4,1.8,0.9c-0.2-0.2-0.7-0.5-1-0.6c0-0.2,0-0.5,0-0.7
		c0.2,0,0.7,0.1,0.9,0.1c0-0.5,0-1,0.1-1.5C147.5,41,146.1,41.3,144.7,41.4 M134.5,41.4c-0.1,0.5,0.1,0.7,0.6,0.6
		C135.2,41.5,135,41.3,134.5,41.4 M134,44.5c0.3,0,0.9,0,1.2,0c0-0.3-0.1-0.9-0.1-1.2c-0.2,0.3-0.5,0.6-0.7,0.9
		c-0.1-0.7-0.1-1.4-0.2-2.1C134,42.9,134,43.7,134,44.5 M144.3,44.1c0.6,0.1,1.1,0.1,1.7,0.2c-0.5,0.1-0.9,0.1-1.4,0.2
		c0.2,0.5,0.3,1,0.5,1.5c-0.2,0.2-0.5,0.5-0.7,0.6c0.9,1,2.3,0.4,3.5,0.5c0.7-0.5,1-1.1,0.7-1.9c-0.2-0.2-0.3-0.4-0.5-0.6
		c0.2-0.3,0.5-0.6,0.7-0.9c-0.7,0-1.4,0-2-0.1c-0.1-0.2-0.4-0.7-0.5-0.9C145.5,43.2,144.7,43.4,144.3,44.1 M133.9,45.3l-0.3-0.1
		c0.1,0.7,0.2,1.3,0.3,2c-0.3,0.8-0.4,1.6-0.4,2.4c0,1.2,0,2.5,0.1,3.7c0.3,0.1,0.9,0.2,1.2,0.3c0-2.7,0.3-5.3,0.6-8l-0.3,0
		C135.6,44.7,133.9,44.3,133.9,45.3 M145,47.9c-0.4,1.9-0.3,3.8-0.6,5.6c1.4,0,2.8,0,4.2,0c0.2-1.3,0.4-2.8-0.7-3.8
		c0.2,0,0.6-0.1,0.9-0.1c-0.2-0.4-0.3-0.8-0.5-1.2c0.2-0.3,0.5-0.5,0.7-0.8C147.7,47.8,146.4,47.9,145,47.9 M139.6,50.3
		c-0.2,0.5,0,0.7,0.5,0.6C140.3,50.4,140.1,50.2,139.6,50.3z"/>
	<path class="st0" d="M158.9,24.1c1.8,0,3.6-0.1,5.4-0.1c0,1.9,0.4,3.8,0.5,5.8c0.5,5.1,0.9,10.3,1.7,15.4c0.3,2,0.4,4,0.7,6
		c0.1,1.2,0.9,2.2,1.6,3.1c-2.4,0.1-4.8,0.3-7.2,0c0.5-1.7,0.5-3.4,0-5.1c-0.9-0.3-2,0.1-3,0.1c-0.2,1.6-0.4,3.1-0.1,4.7
		c-1.2,0-2.3,0-3.5,0.1c0.8-4.4,1-8.9,1.8-13.4C157.4,35.1,158.2,29.6,158.9,24.1 M159.4,25.2c0.7,0.4,1.4,0.9,2,1.3
		c0.6-0.1,1.3-0.1,1.9-0.2c-0.1-0.2-0.2-0.5-0.3-0.7c0.2-0.1,0.6-0.4,0.8-0.5C162.4,25,160.9,25,159.4,25.2 M159.4,27.4
		c0,0.2,0.1,0.5,0.1,0.7c0.6-0.2,1.3-0.4,1.9-0.7C160.8,27.4,160.1,27.4,159.4,27.4 M162.2,28.3c0.8,0,1.8,0.2,1.8-0.9
		C163.2,27.5,162.1,27.2,162.2,28.3 M159.3,29.5c0,0.4,0,0.9,0,1.3c0.8-0.2,1.9-0.2,2.4-1c0.8,0.2,1.6,0.4,2.3,0.6
		c0-0.1,0-0.4,0-0.5c-0.6,0-1.1-0.1-1.7-0.1c0.5-0.4,1-0.8,1.4-1.2C162.3,28.9,160.9,29.5,159.3,29.5 M161.7,31.3
		c-0.9,0.5-2.3-0.3-2.7,1l-0.4,0c0,0.8,0,1.6-0.1,2.4l0.8,0c-0.1-0.4-0.2-1.2-0.3-1.5c0.8-0.1,1.6-0.2,2.4-0.3
		c-0.3,0.2-0.5,0.5-0.8,0.7c0.5,0.3,1.1,0.6,1.6,0.9c0.4-0.2,0.7-0.4,1.1-0.6c0.3,0,0.8-0.1,1.1-0.1c-0.2-1.2-1.6-1.3-2.5-1.6
		c0.8-0.3,1.6-0.7,2.3-1.2C163.4,30.9,162.5,30.9,161.7,31.3 M160.8,34.4C160.9,35.7,162,33.8,160.8,34.4 M160.5,35.9
		c0.3,0,1,0.1,1.4,0.2c-0.2,0.1-0.7,0.4-1,0.5c0.4,0.5,0.8,0.9,1.2,1.2c-1.4,0.2-0.6,1.8-0.6,2.7c1-0.5,2.1-0.8,3.1-0.2
		c-0.2-1.5-2-0.6-3-1c0.9-0.1,1.9-0.1,2.8-0.4c0-0.5-0.1-1.1-0.1-1.6c-0.4-0.6-0.8-1.2-1.1-1.7c0.3,0,1-0.1,1.3-0.1
		c0-0.3,0-0.8-0.1-1C163,34,161.9,35.5,160.5,35.9 M159.8,36.9c-0.3,3.3-0.7,6.5-1,9.8c0.8,0,1.7-0.1,2.5-0.1
		c-0.3-3.2-0.9-6.5-1.3-9.7C160,36.9,159.9,36.9,159.8,36.9 M158.5,38.1c0.6,0,0.4-1-0.1-1C157.8,37.1,158,38,158.5,38.1 M158,40
		C157.4,41.1,159.3,40.1,158,40 M161.7,40.6c0.2,0.9,0.3,1.7,0.3,2.6c1-0.5,2.1-0.5,3.2-0.6c-0.1-0.7-0.3-1.4-0.4-2.1
		C163.7,40.6,162.7,40.6,161.7,40.6 M157.8,41.2c-0.3,0.5-0.8,1.1-0.5,1.7C158.2,43.2,158.5,41.4,157.8,41.2 M157.3,43.8
		C157.5,44.1,157.5,44.1,157.3,43.8 M162,44.4c0.7,0,1.5,0,2.2,0c-0.3,0.2-0.8,0.7-1,0.9c0.5,0,1.1-0.1,1.6-0.1c0-0.1,0-0.4,0-0.5
		c-0.2,0-0.6-0.1-0.9-0.1c0.3-0.3,0.6-0.6,0.9-0.8C163.9,43.9,162.9,43.9,162,44.4 M163.9,45.9c-0.6,0.2-1.2,0.3-1.1,1.2
		c0.8-0.1,1.5-0.2,2.3-0.2C164.6,46.5,164.2,46.2,163.9,45.9 M156.5,47c0.3,0.4,0.7,0.8,1,1.3c-0.3,0-0.8,0.1-1.1,0.1
		c0,0.3,0,1,0,1.3c0,0.1,0,0.4,0,0.6c0,1,0.2,2.1,0.5,3.1c0.9-1.4,0.9-3.2,1.3-4.8c0.7,0.1,1.4,0.1,2.1,0.2c0.3-0.3,0.5-0.6,0.8-0.8
		c0.6,0.2,1.3,0.4,1.9,0.5c1.2,0.1,2.9,0.2,3-1.4c-1.4,0.1-2.8,0.7-4.2,0.4c-1.2-0.2-2.4-0.3-3.7-0.2c-0.2-0.2-0.5-0.5-0.7-0.7
		C157.1,46.6,156.7,46.6,156.5,47 M162.8,50.2c1.1,0.1,2.2,0,3.3-0.2C165,49.6,163.7,49.5,162.8,50.2 M163,51.6
		c0.8,0.3,1.6,0.7,2.4,0.5c0.2-0.3,0.4-0.6,0.7-1C165,51.3,164,51.4,163,51.6 M163.3,53.5c1.1,0,2.2,0,3.3-0.2c-0.9-0.4-2,0-2.7-0.8
		C163.7,52.8,163.5,53.1,163.3,53.5z"/>
	<path class="st0" d="M173.1,24.2c2.3-0.3,4.6-0.4,6.9-0.2c-0.3,2.6-0.4,5.2-0.2,7.8c1.9-2.2,4.2-4.5,4.5-7.5
		c0.8-0.1,1.6-0.2,2.5-0.2c-0.4,0.5-0.8,1-1.2,1.5c0.6-0.4,1.1-0.9,1.4-1.6c0.3,0,0.9,0.1,1.2,0.2c-1.1,2.2-2.6,4.2-3.7,6.3
		c0.8,3.6,1.2,7.3,2.2,10.9c1.2,4.3,1.2,9,3.3,13.1c-2.4,0-4.7,0-7,0.2c0.6-2.4,0-4.8-0.3-7.1c-0.5-3.7-1.6-7.3-2.3-11l-0.4,0
		c-0.2,3.9,0.1,7.8-0.1,11.7c-0.1,2,0,4,0,5.9c-2.1-0.1-4.2,0-6.3,0.2c1.4-2.9,0.6-6.1,0.8-9.2c0-5.7-0.1-11.3,0-17
		C174.5,26.8,174,25.4,173.1,24.2 M178.4,26.1c-0.5,0.9-1.4,0.5-2.2,0.2c-0.4,0.2-0.8,0.4-1.2,0.7c0.2,0.1,0.6,0.3,0.8,0.3
		c-1,0.4-0.7,1.7,0.4,1.6c-0.4,0.3-0.8,0.5-1.2,0.8c0.4,0.1,0.7,0.2,1.1,0.4c-0.6,0.1-1.3,0.2-1.3,1c1.3,0,2.5,0,3.8,0.1
		c-0.1-0.4-0.3-0.9-0.4-1.3c-0.5-0.2-0.9-0.3-1.4-0.5c0.4,0,1.4,0.2,1.4-0.4c-0.4-0.4-1-0.3-1.5-0.3c0.2-0.2,0.6-0.6,0.9-0.8
		c0.6,0.1,0.8-0.2,0.5-0.7C178.3,26.6,178.3,26.3,178.4,26.1 M185.1,26.4c-0.5,0-0.8,1-0.2,1C185.4,27.4,185.7,26.4,185.1,26.4
		 M182.4,30.3c0.2,0.1,0.7,0.2,1,0.2c0.3-0.8,0.6-1.6,0.9-2.4C183.5,28.7,182.9,29.5,182.4,30.3 M181.4,31.5
		c0.4,0.4,1.4,0.4,1.9,0.1C183.5,30.5,182,31.3,181.4,31.5 M175.1,33.3c1.2,0.1,2.5,0.2,3.7,0.2c0-0.3-0.1-1-0.1-1.4
		c-0.6-0.6-1.7-0.6-2.5-0.6C175.2,31.5,175.3,32.7,175.1,33.3 M181.5,32.4l0.2,0c-0.1,0.1-0.3,0.3-0.4,0.4c0,1,1.5,0.1,0.6-0.4
		c0.6-0.1,1,0.3,1.3,0.8c0-0.3,0.1-0.9,0.1-1.2C182.8,32.2,182.2,32.3,181.5,32.4 M175.4,34.7c-0.1,0.1-0.4,0.4-0.6,0.5
		c0.9,0.4,2.5-0.4,2.9,0.8c1.3-0.2,2.6-0.4,4-0.5c-0.1,0.6-0.3,1.2-0.4,1.7c1.2,0,2.4-0.2,3.5-0.7c-0.8-0.4-1.7-0.6-2.6-0.8
		c0.8-0.1,1.5-0.2,2.3-0.3c-1.7-0.9-3.7,0-5.5-0.8c0.3-0.3,0.6-0.6,1-0.9C178.4,33.7,176.5,33.2,175.4,34.7 M182.3,34.3
		c0.6,0.3,1.3,0.4,1.8-0.1C183.4,34.2,182.9,34.2,182.3,34.3 M175.1,37.6c0.5,0.1,0.9,0.1,1.4,0.1c-0.7,0.2-1.2,0.7-1.6,1.3
		c1.3,0.1,2.7,0.1,4,0.1c-0.1-0.3-0.3-0.8-0.3-1.1c-0.3,0-0.8,0-1.1,0c0-0.1,0-0.2,0-0.3c0.8,0,1.7,0.1,1.5-1
		C177.7,37,175.9,36.3,175.1,37.6 M181.3,37.6c0.2,0.1,0.7,0.4,0.9,0.5c-0.1,0.1-0.3,0.4-0.4,0.5c0,0.3,0,0.9,0,1.2
		c1.1-0.2,2.1-0.2,3.2-0.5c0.6-0.6-0.3-1.5-0.7-2.1C183.3,37.2,182.3,37.4,181.3,37.6 M175,39.5c1,0.9,2.7,1.1,3.7,0
		C177.5,39.4,176.3,39.4,175,39.5 M183.2,39.9c-0.4,0.8,1.2,0.9,1.4,0.2C184.5,39.5,183.6,39.6,183.2,39.9 M182.1,40.2
		C182.1,41.5,183.3,39.6,182.1,40.2 M175.5,40.9c0.4,0.3,1.1,0.3,1.6,0C177.1,40.3,175.6,40.3,175.5,40.9 M184,41.1
		c0.2,0.2,0.5,0.5,0.7,0.6c-0.4,0-1.2,0.1-1.6,0.2c-0.2-0.1-0.5-0.3-0.7-0.5c0,0.6,0.1,1.2,0.1,1.7c1.2,0.1,2.6,0.2,3.7-0.4
		c-1.2-0.1-2.7,0.5-3.7-0.6c0.9-0.1,1.9-0.1,2.8-0.1c-0.1-0.4-0.1-0.9-0.2-1.3C184.8,40.9,184.4,41,184,41.1 M178.2,41.1
		C178.3,42.3,179.3,40.4,178.2,41.1 M175.6,41.5c-0.1,0.5,0.9,0.6,1.1,0.2C176.8,41.1,175.8,41.1,175.6,41.5 M174.9,42.3
		c0.4,0.3,0.8,0.7,1.3,0.8c-0.5,0.5-0.9,1.1-1.3,1.7l0.3-0.3c0.3,1.3,0.2,2.7-0.1,4c0.6,0.1,1.2,0.3,1.9,0.4c-0.7,0.1-2.8,0.1-1.6,1
		c-0.4,0.6,0.6,0.9,1,0.6c0.7-0.2,0.2-1-0.4-0.9c0.9-0.4,1.9-0.6,2.9-0.9c-0.6-1-1.9-0.9-2.9-1.2c0.8-0.3,2.5-1.3,2.4,0.3
		c0.1,0,0.4-0.1,0.6-0.1c0.2-1.4-0.4-2.8-1.4-3.8c0.2,0,0.6,0,0.8,0v-0.3c-0.5-0.2-1-0.4-1.4-0.7c0.6,0,1.1,0,1.7,0
		c0-0.2,0-0.6,0-0.8C177.5,42.2,176.2,42.2,174.9,42.3 M183.8,44c-0.2,0-0.6,0.1-0.8,0.1c0.5,0.4,1,0.8,1.5,1.1
		c-0.6,0.1-1.1,0.4-1.5,0.7c1.3,0.1,2.5,0,3.7-0.4c-0.7-0.3-1.4-0.6-2.2-0.5c0-0.2,0.1-0.5,0.1-0.6l1,0c0.4,0.1,0.5-0.2,0.6-0.7
		C185.5,43.7,184.6,43.7,183.8,44 M183.1,47.4c1.4,0,2.7-0.1,4.1-0.3C186,46.2,183.9,45.8,183.1,47.4 M183.9,47.8
		c0.2,0.3,0.6,0.4,1.1,0.3c0.2,0,1.5-0.1,0.9-0.5C185.3,47.5,184.5,47.5,183.9,47.8 M186.7,48c-0.5,0.2-0.5,0.5,0,0.8
		C187.2,48.6,187.2,48.3,186.7,48 M184.8,48.8c0.1,0.3,0.1,0.7,0.2,1c-0.3,0.1-0.9,0.3-1.2,0.4c0.9,0.2,1.8-0.3,2.7-0.5
		c-0.2,1.2-1.4,1.3-2.3,1.7c0.1,0.2,0.3,0.7,0.4,0.9c0.6,0.4,1.3,0.4,1.9,0.5c0.1,0.2,0.3,0.6,0.4,0.8c0.5-0.1,1-0.2,1.5-0.4
		c-0.3-0.8,0.1-2-1-2.4c-0.5-0.4-0.2-1.2-0.1-1.7C186.4,49.1,185.6,49,184.8,48.8 M178.2,49.6C178.2,50.9,179.3,49,178.2,49.6
		 M177.8,50.3c-0.2,0.6,0,0.8,0.7,0.6C178.6,50.3,178.4,50.1,177.8,50.3 M174.9,51.3c0.6,0.1,1.2,0.1,1.7,0.2c0,0.6,0.5,0.8,0.9,1.1
		c0.1-0.1,0.3-0.4,0.4-0.5C177.2,51.1,176,50.8,174.9,51.3 M184,53.2c-0.5,0.9,1.5,0.7,1.3-0.1C184.9,52.8,184.5,52.8,184,53.2z"/>
	<path class="st1" d="M145.2,24.9c0.7,0,1.5-0.1,2.2-0.1c0.1,0.5,0.1,1.1,0.2,1.6c-0.5-0.1-1-0.2-1.6-0.3
		C145.8,25.7,145.5,25.3,145.2,24.9z"/>
	<path class="st1" d="M133.9,25.5c1.6-0.3,3.3-0.5,4.6,0.5c-0.2,0.3-0.4,0.5-0.6,0.8c0,0.1,0.1,0.4,0.2,0.5c-1,0-2.1,0.1-3.1,0.3
		c1.3,0.4,2.8,0.5,4.1,0.7c-0.6,0.4-1.2,0.7-1.8,1c-1.1,0.4-2.3,0.5-3.3-0.2c0.8-0.2,1.6-0.3,2.4-0.4c-0.8-0.1-1.6-0.1-2.4-0.1
		C134.1,27.6,134,26.5,133.9,25.5z"/>
	<path class="st2" d="M159.4,25.2c1.5-0.1,2.9-0.2,4.4,0c-0.2,0.1-0.6,0.4-0.8,0.5c0.1,0.2,0.2,0.5,0.3,0.7
		c-0.6,0.1-1.3,0.1-1.9,0.2C160.8,26.1,160.1,25.6,159.4,25.2z"/>
	<path class="st3" d="M196.6,26c0.8-0.2,1.9-0.6,2.6,0.2C198.3,26.4,197.4,26.6,196.6,26z"/>
	<path class="st1" d="M178.4,26.1c-0.1,0.3-0.1,0.6-0.1,0.9c-0.5,0-0.7,0.2-0.5,0.7c-0.2,0.2-0.6,0.6-0.9,0.8l-0.1,0.1
		c0,0.1,0,0.4,0,0.5l0.1,0.1c0.5,0.2,0.9,0.4,1.4,0.5c0.1,0.4,0.3,0.9,0.4,1.3c-1.3,0-2.5,0-3.8-0.1c0-0.7,0.7-0.8,1.3-1
		c-0.4-0.1-0.8-0.2-1.1-0.4c0.4-0.3,0.8-0.5,1.2-0.8c-1.1,0.1-1.4-1.1-0.4-1.6c-0.2-0.1-0.6-0.3-0.8-0.3c0.4-0.2,0.8-0.4,1.2-0.7
		C176.9,26.5,177.8,27,178.4,26.1z"/>
	<path class="st4" d="M185.1,26.4c0.6,0,0.2,1-0.2,1C184.3,27.4,184.7,26.4,185.1,26.4z"/>
	<path class="st5" d="M177.7,27.7c-0.2-0.5,0-0.7,0.5-0.7C178.5,27.5,178.3,27.7,177.7,27.7z"/>
	<path class="st6" d="M162.2,28.3c0-1.1,1.1-0.8,1.8-0.9C164,28.5,162.9,28.2,162.2,28.3z"/>
	<path class="st1" d="M147,28.3c0.7-0.5,2.2,0,1.6,0.9c-0.9,0.5-2,0.3-3,0.3c-0.7-0.1-1.4-0.2-2.1-0.4c1-0.4,2.1-0.4,3.2-0.3
		L147,28.3z"/>
	<path class="st1" d="M196.5,28c1.3,0,2.6,0,3.9,0.2c-0.3,0.5-0.6,1-0.8,1.5l-0.2,0c-0.2-0.5-0.7-1-1.3-0.8c-0.2,0-0.7,0-1,0l-0.3,0
		C196.8,28.7,196.6,28.2,196.5,28z"/>
	<path class="st7" d="M197.2,28.9c0.2,0,0.7,0,1,0c-0.2,0.8,0.7,1,1.3,0.8l0.2,0c0.2,0.1,0.5,0.2,0.7,0.3c-1.1,0.2-2.2,0.1-3.2,0.1
		C197.1,29.9,197.1,29.2,197.2,28.9z"/>
	<path class="st8" d="M198.2,28.9c0.6-0.2,1.1,0.3,1.3,0.8C198.9,29.9,197.9,29.7,198.2,28.9z"/>
	<path class="st9" d="M144.1,29.9C144.3,30.1,144.3,30.1,144.1,29.9z"/>
	<path class="st10" d="M160,30.2c0-0.5,1-0.6,1.3-0.3C161.2,30.4,160.3,30.5,160,30.2z"/>
	<path class="st11" d="M197.1,30.6c0.8-0.1,1.5,0,2.3,0c-0.3,0.2-0.6,0.4-0.9,0.6c0.3,0.2,0.9,0.6,1.2,0.8c-1.1,0-2.1-0.1-3.2-0.1
		C196.7,31.4,196.9,31,197.1,30.6z"/>
	<path class="st12" d="M161.7,31.3c0.8-0.4,1.7-0.4,2.6-0.3c-0.7,0.6-1.5,0.9-2.3,1.2c-1-0.1-2,0-2.9,0.1
		C159.4,31.1,160.9,31.8,161.7,31.3z"/>
	<path class="st13" d="M181.4,31.5c0.5-0.2,2-1,1.9,0.1C182.9,31.9,181.8,31.9,181.4,31.5z"/>
	<path class="st14" d="M133.8,32.1c1.3-1.1,3.2-1,4.8-0.6c-1.3,0.5-2.7,0.8-4.1,0.7L133.8,32.1z"/>
	<path class="st1" d="M138.6,31.5c0.2-0.1,0.6-0.2,0.8-0.2c0,0.3,0,0.9,0,1.2l-0.4,0.1c-0.4,0.1-0.7,0.2-1.1,0.4
		c0.2,0.1,0.6,0.4,0.8,0.5c-0.1,0.1-0.2,0.3-0.3,0.4c0.7,0.2,1.6,0.2,1.7,1.1c-2.1-0.2-4.3-0.2-6.4-0.1c0.6-1.1,2.1-0.5,3.1-0.6
		c-0.2-0.4-0.5-0.9-0.7-1.4c-0.8,0-1.7,0.1-2.5,0.1c0.2-0.2,0.6-0.6,0.8-0.8C135.9,32.3,137.2,32,138.6,31.5z"/>
	<path class="st12" d="M143.7,31.2c0.1,0.1,0.3,0.2,0.4,0.3c0.1,0.1,0.4,0.4,0.6,0.5c0.4,0,0.8,0.1,1.2,0.1c1.1,0,2.1,0,3.2,0
		c-0.2,0.3-0.4,0.7-0.6,1.1c-0.4-0.1-0.7-0.1-1.1-0.2c-1.1-0.2-2.2-0.5-3.3-0.6C143.9,32,143.8,31.6,143.7,31.2z"/>
	<path class="st15" d="M144,31.5c1.4-0.3,2.9-0.2,4.3,0c-0.8,0.2-1.7,0.5-2.6,0.6c-0.4,0-0.8,0-1.2-0.1
		C144.5,31.9,144.2,31.6,144,31.5z"/>
	<path class="st1" d="M175.1,33.3c0.2-0.6,0.1-1.8,1.1-1.7c0.8,0,1.9,0,2.5,0.6c0,0.3,0.1,1,0.1,1.4
		C177.6,33.4,176.3,33.4,175.1,33.3z"/>
	<path class="st1" d="M158.7,32.3l0.4,0c1-0.1,1.9-0.2,2.9-0.1c0.9,0.3,2.3,0.4,2.5,1.6c-0.3,0-0.8,0.1-1.1,0.1
		c-0.4,0.2-0.7,0.4-1.1,0.6c-0.5-0.3-1.1-0.6-1.6-0.9c0.3-0.2,0.5-0.5,0.8-0.7c-0.8,0.1-1.6,0.1-2.4,0.3c0.1,0.4,0.2,1.2,0.3,1.5
		l-0.8,0C158.6,33.9,158.7,33.1,158.7,32.3z"/>
	<path class="st16" d="M181.7,32.4l0.3,0c0.9,0.5-0.6,1.4-0.6,0.4C181.4,32.8,181.6,32.5,181.7,32.4z"/>
	<path class="st1" d="M196.8,32.6c2.6-0.5,5.1,0.2,7.7-0.1c0.6-0.2,0.9,0.3,1.1,0.7c-2,0-4,0-6,0.3c-0.1,0.1-0.2,0.4-0.3,0.6
		c-0.7,0.1-1.3,0.1-2,0.1c0.1,0.1,0.2,0.4,0.2,0.5c0,0.1,0,0.4,0,0.6c0.7,0,1.3,0.1,2,0.1c0,0.5,0.1,1,0.1,1.6
		c-1,0.1-2.1,0.1-3.1,0.1C196.7,35.5,196.7,34,196.8,32.6z"/>
	<path class="st1" d="M142.7,33.3c1.9-0.5,3.6,0.6,5.5,1c1.1,0.1,1.5,1.8,0.3,2.1c0-0.3,0-0.8,0.1-1.1c-0.6,0.2-1.2,0.4-1.8,0.7
		c0.8,0.3,1.7,0.6,2.4,1c-0.6,0.2-1.3,0.3-1.8,0.8c0.6-0.1,1.2-0.3,1.8-0.3c0,0.5-0.1,1-0.2,1.5c-0.3,0.3-0.7,0.5-1,0.8
		c-0.8-0.7-1.8-0.8-2.8-0.7c-0.8,0.2-0.7-0.8-1-1.3c-0.5,1-1.1,2-2,2.7c0.2,0,0.7,0,0.9-0.1c-0.2,0.5-0.5,0.9-0.7,1.4
		c-0.6,0-1.3,0.1-1.9,0.1c0.6,0.1,1.2,0.1,1.9,0.1c-0.1,0.7-0.3,1.3-0.3,2c-1.6,0.2-3.2,0.3-4.7,0c0.3-0.2,0.5-0.4,0.8-0.6
		c-0.4-0.3-0.8-0.6-1.2-0.9c0.8-0.1,1.7-0.2,2.5-0.2c-0.8-0.1-1.7-0.2-2.5-0.3c-0.1-0.8,0.1-1.6,0.5-2.3c1.3-0.1,2.5-0.1,3.8-0.2
		c0.3-0.8,0.4-1.8,1-2.5c0.6-0.1,1.2-0.2,1.8-0.2c-0.6-0.1-1.3-0.1-1.9-0.2c0.2-0.9,0.5-1.8,0.8-2.7c0.6-0.1,1.1-0.1,1.7-0.2
		C143.9,33.7,143.2,33.7,142.7,33.3 M138.2,40.3c-0.1,0.5-0.3,0.9-0.4,1.4c1.4-0.2,2.8-0.3,4.2-0.5
		C140.8,40.9,139.5,40.6,138.2,40.3z"/>
	<path class="st3" d="M147.3,33c0.4,0,0.7,0.1,1.1,0.2l0,0.2C148.2,34,147.1,33.6,147.3,33z"/>
	<path class="st17" d="M134.1,33.8c0.6-0.3,1.4-0.4,1.9-0.1C135.8,34.3,134.3,34.4,134.1,33.8z"/>
	<path class="st18" d="M175.4,34.7c1.1-1.5,3-1,4.5-0.9c-0.3,0.3-0.6,0.6-1,0.9C177.8,34.4,176.6,34.5,175.4,34.7z"/>
	<path class="st19" d="M160.8,34.4C162,33.8,160.9,35.7,160.8,34.4z"/>
	<path class="st1" d="M160.5,35.9c1.4-0.4,2.4-2,3.9-1.4c0,0.3,0,0.8,0.1,1c-0.3,0-1,0.1-1.3,0.1c0.4,0.6,0.8,1.2,1.1,1.7
		c0,0.5,0,1.1,0.1,1.6c-0.9,0.2-1.8,0.3-2.8,0.4c1,0.3,2.8-0.5,3,1c-1-0.6-2.1-0.2-3.1,0.2c0-0.9-0.8-2.5,0.6-2.7
		c-0.5-0.3-0.9-0.7-1.2-1.2c0.2-0.1,0.7-0.4,1-0.5C161.6,36.1,160.9,36,160.5,35.9z"/>
	<path class="st1" d="M174.8,35.2c0.1-0.1,0.4-0.4,0.6-0.5c1.2-0.2,2.4-0.2,3.6,0c1.8,0.8,3.8-0.2,5.5,0.8c-0.8,0.1-1.5,0.2-2.3,0.3
		c0.9,0.2,1.8,0.4,2.6,0.8c-1.1,0.5-2.3,0.7-3.5,0.7c0.1-0.6,0.3-1.2,0.4-1.7c-1.3,0.1-2.7,0.3-4,0.5
		C177.3,34.8,175.8,35.6,174.8,35.2z"/>
	<path class="st1" d="M133.9,35.1c1.8,0.1,3.7,0.1,5.5,0.4c0,0.6,0,1.2-0.1,1.8c-1.2,0-2.5,0-3.7,0c-0.2,1.1-0.4,2.3-0.2,3.4
		c-0.5,0-1.1,0-1.6-0.1C133.9,38.8,133.9,36.9,133.9,35.1z"/>
	<path class="st20" d="M175.1,37.6c0.8-1.2,2.6-0.5,3.9-0.8c0.2,1.1-0.7,1-1.5,1c0,0.1,0,0.2,0,0.3c0.3,0,0.8,0,1.1,0
		c0.1,0.3,0.3,0.8,0.3,1.1c-1.3,0-2.7,0-4-0.1c0.4-0.6,0.9-1.1,1.6-1.3C176,37.7,175.5,37.6,175.1,37.6z"/>
	<path class="st21" d="M158.5,38.1c-0.5-0.1-0.7-1-0.1-1C158.9,37.1,159,38.1,158.5,38.1z"/>
	<path class="st22" d="M197.2,37.4c0.3-0.5,1.9-0.6,2.1,0C198.7,37.7,197.9,37.6,197.2,37.4z"/>
	<path class="st1" d="M136.2,37.4c1.3,0,2.7,0,4,0c0,0.6,0.1,1.3,0.2,1.9c-1.3,0-2.6,0.1-3.8,0.3c0.1-0.2,0.4-0.7,0.6-0.9
		c-0.2,0-0.5-0.1-0.6-0.1C136.4,38.2,136.3,37.8,136.2,37.4z"/>
	<path class="st23" d="M181.3,37.6c1-0.2,2-0.4,3-0.3c0.4,0.5,1.3,1.4,0.7,2.1c-1,0.3-2.1,0.3-3.2,0.5c0-0.3,0-0.9,0-1.2
		c0.8,0,1.5,0,2.3,0c-0.6-0.3-1.3-0.4-1.9-0.5C182,38,181.5,37.7,181.3,37.6z"/>
	<path class="st24" d="M196.7,39.3c0.1-0.5,0.2-0.9,0.4-1.4c0.5-0.1,1.1-0.1,1.6,0.1c0.3,0.4,0.7,0.8,1.2,0.7c0,0.1-0.1,0.4-0.1,0.6
		C198.7,39.2,197.7,39.2,196.7,39.3z"/>
	<path class="st25" d="M198.6,38c0.4-0.5,1.6,0,1.2,0.7C199.3,38.8,198.9,38.4,198.6,38z"/>
	<path class="st9" d="M145.3,39.5c0.3-0.3,1.3-0.3,1.3,0.2C146.3,40,145.3,40,145.3,39.5z"/>
	<path class="st26" d="M175,39.5c1.2-0.1,2.4-0.1,3.7,0C177.8,40.6,176,40.3,175,39.5z"/>
	<path class="st1" d="M196.7,39.3c1,0,2-0.1,3,0c0.3,0.7,0.1,1.1-0.6,1.2c0.3,0.3,0.5,0.6,0.8,0.9c-0.5,0.8-0.3,1.8-0.2,2.6
		c-0.5,0.2-1,0.4-1.5,0.6l-0.2,0.1c-0.1,0.7,0.9,0.6,1.4,0.6c-0.2,0.2-0.4,0.4-0.6,0.6c0.5,0.1,1,0.2,1.6,0.3
		c-1.1,0.4-2.3,0.4-3.5,0.4C197,44.1,196.6,41.7,196.7,39.3z"/>
	<path class="st27" d="M158,40C159.3,40.1,157.4,41.1,158,40z"/>
	<path class="st28" d="M183.2,39.9c0.3-0.4,1.3-0.4,1.4,0.2C184.5,40.8,182.8,40.8,183.2,39.9z"/>
	<path class="st0" d="M138.2,40.3c1.3,0.3,2.5,0.6,3.8,0.9c-1.4,0.1-2.8,0.2-4.2,0.5C138,41.2,138.1,40.8,138.2,40.3z"/>
	<path class="st29" d="M144.3,40.3c0.9,0,1.8,0,2.7,0.1C146.2,41.1,144.9,41.5,144.3,40.3z"/>
	<path class="st13" d="M182.1,40.2C183.3,39.6,182.1,41.5,182.1,40.2z"/>
	<path class="st1" d="M144.7,41.4c1.4-0.1,2.8-0.3,4.2-0.7c0,0.5,0,1-0.1,1.5c-0.2,0-0.7-0.1-0.9-0.1c0,0.2,0,0.5,0,0.7
		c0.2,0.1,0.7,0.4,1,0.6c-0.9,0.4-1.3-0.4-1.8-0.9c-0.8,0.2-1.5,0.4-2.3,0.5C144.7,42.5,144.7,41.7,144.7,41.4z"/>
	<path class="st1" d="M161.7,40.6c1,0,2.1,0,3.1-0.1c0.1,0.7,0.3,1.4,0.4,2.1c-1.1,0-2.2,0-3.2,0.6C162,42.3,161.8,41.4,161.7,40.6z
		"/>
	<path class="st9" d="M175.5,40.9c0.1-0.6,1.5-0.6,1.6,0C176.7,41.1,176,41.2,175.5,40.9z"/>
	<path class="st30" d="M178.2,41.1C179.3,40.4,178.3,42.3,178.2,41.1z"/>
	<path class="st31" d="M134.5,41.4c0.6-0.1,0.8,0.1,0.6,0.6C134.6,42.2,134.4,42,134.5,41.4z"/>
	<path class="st32" d="M175.6,41.5c0.2-0.4,1.2-0.3,1.1,0.2C176.5,42.1,175.5,42,175.6,41.5z"/>
	<path class="st1" d="M174.9,42.3c1.3-0.1,2.6,0,3.9,0c0,0.2,0,0.6,0,0.8c-0.6,0-1.1,0-1.7,0c-0.2,0-0.6-0.1-0.9-0.1
		C175.7,43,175.3,42.6,174.9,42.3z"/>
	<path class="st1" d="M144.3,44.1c0.4-0.7,1.2-0.9,1.9-1.2c0.1,0.2,0.4,0.7,0.5,0.9c0.7,0,1.4,0,2,0.1c-0.2,0.3-0.5,0.6-0.7,0.9
		c0.2,0.2,0.3,0.4,0.5,0.6c0.4,0.8,0,1.4-0.7,1.9c-1.1-0.1-2.6,0.5-3.5-0.5c0.2-0.2,0.5-0.5,0.7-0.6c-0.2-0.5-0.3-1-0.5-1.5
		c0.4-0.1,0.9-0.1,1.4-0.2C145.4,44.2,144.8,44.2,144.3,44.1z"/>
	<path class="st18" d="M175,44.8c0.4-0.6,0.8-1.2,1.3-1.7c0.2,0,0.7,0.1,0.9,0.1c0.4,0.3,0.9,0.5,1.4,0.7v0.3c-0.2,0-0.6,0-0.8,0
		c-0.8,0.1-1.8-0.3-2.4,0.4L175,44.8z"/>
	<path class="st33" d="M157.3,43.8C157.5,44.1,157.5,44.1,157.3,43.8z"/>
	<path class="st34" d="M183.8,44c0.8-0.3,1.7-0.3,2.5-0.3c0,0.5-0.2,0.7-0.6,0.7C185.1,44.2,184.5,44.1,183.8,44z"/>
	<path class="st1" d="M175.2,44.5c0.6-0.7,1.6-0.3,2.4-0.4c1,1,1.6,2.3,1.4,3.8c-0.1,0-0.4,0.1-0.6,0.1c0.2-1.5-1.6-0.6-2.4-0.3
		c1,0.3,2.3,0.2,2.9,1.2c-1,0.2-2,0.5-2.9,0.9c-0.2,0.1-0.5,0.2-0.6,0.2c-1.2-0.9,0.9-1,1.6-1c-0.6-0.1-1.2-0.2-1.9-0.4
		C175.4,47.2,175.5,45.9,175.2,44.5z"/>
	<path class="st1" d="M137.9,45.3c1-1.2,2.6-1,3.9-0.9c-0.1,0.9-0.3,1.8-0.6,2.6c0,0.1,0.1,0.4,0.1,0.6c-0.3,0-0.9,0.1-1.2,0.2
		c0.4,0.4,0.8,0.8,1.2,1.2l-0.1,0.2c-1-0.2-2-0.7-2.9-1.2c0.1-0.2,0.2-0.5,0.2-0.7c-0.2-0.1-0.6-0.3-0.8-0.4
		C137.7,46.3,137.8,45.8,137.9,45.3z"/>
	<path class="st35" d="M197.9,44.7l0.2-0.1c0.4-0.1,1.2,0.2,1.2,0.7C198.8,45.3,197.8,45.4,197.9,44.7z"/>
	<path class="st24" d="M133.9,45.3c0-0.9,1.7-0.5,1.2,0.3C134.7,45.5,134.3,45.4,133.9,45.3z"/>
	<path class="st1" d="M133.6,45.1l0.3,0.1c0.4,0.2,0.8,0.3,1.2,0.3l0.3,0c-0.3,2.7-0.6,5.3-0.6,8c-0.3-0.1-0.9-0.2-1.2-0.3
		c-0.1-1.2-0.1-2.5-0.1-3.7c0.2,0,0.5,0,0.7,0.1c-0.1-0.4-0.2-0.8-0.3-1.2c0.1-0.2,0.4-0.5,0.6-0.7c-0.2-0.2-0.4-0.4-0.6-0.5
		C133.8,46.5,133.7,45.8,133.6,45.1z"/>
	<path class="st1" d="M156.5,47c0.2-0.3,0.6-0.4,0.9-0.5c0.2,0.2,0.5,0.5,0.7,0.7c1.2,0,2.5,0,3.7,0.2c1.4,0.2,2.8-0.3,4.2-0.4
		c0,1.6-1.8,1.6-3,1.4c-0.7-0.1-1.3-0.3-1.9-0.5c-0.3,0.3-0.5,0.6-0.8,0.8c-0.7-0.1-1.4-0.1-2.1-0.2c-0.3,1.6-0.3,3.4-1.3,4.8
		c-0.3-1-0.4-2-0.5-3.1c0.5,0.3,0.8,0.2,1.1-0.2c-0.2-0.4-0.6-0.6-1.1-0.4c0-0.3,0-1,0-1.3c0.3,0,0.8-0.1,1.1-0.1
		C157.2,47.8,156.8,47.4,156.5,47z"/>
	<path class="st36" d="M183.1,47.4c0.8-1.5,3-1.2,4.1-0.3C185.8,47.3,184.5,47.4,183.1,47.4z"/>
	<path class="st25" d="M196.9,47c0.6-0.3,2-0.5,2.3,0.2c-0.6,0.1-1.2,0.1-1.8,0.1C197.3,47.2,197,47.1,196.9,47z"/>
	<path class="st37" d="M133.9,47.1c0.2,0.2,0.4,0.4,0.6,0.5c-0.1,0.2-0.4,0.5-0.6,0.7c0.1,0.4,0.2,0.8,0.3,1.2c-0.2,0-0.5,0-0.7-0.1
		C133.5,48.7,133.6,47.9,133.9,47.1z"/>
	<path class="st3" d="M197.4,47.3c0.6,0,1.2,0,1.8-0.1c0.4,0.5,0.8,1,1.1,1.5c-1.3,0.1-2.5,0.1-3.8,0.1
		C196.8,48.3,197.1,47.8,197.4,47.3z"/>
	<path class="st1" d="M145,47.9c1.3,0,2.7-0.1,4-0.2c-0.2,0.3-0.5,0.5-0.7,0.8c0.2,0.4,0.3,0.8,0.5,1.2c-0.2,0-0.6,0.1-0.9,0.1
		c1.1,1,0.9,2.5,0.7,3.8c-1.4,0-2.8-0.1-4.2,0C144.7,51.7,144.6,49.7,145,47.9 M146.1,52.3c0.6,0.5,1.3,0.6,1.9,0
		C147.4,52.2,146.8,52.2,146.1,52.3z"/>
	<path class="st38" d="M183.9,47.8c0.6-0.3,1.3-0.3,2-0.2c0.7,0.3-0.7,0.5-0.9,0.5C184.5,48.1,184.2,48.1,183.9,47.8z"/>
	<path class="st39" d="M186.7,48c0.5,0.3,0.5,0.5,0,0.8C186.1,48.5,186.2,48.3,186.7,48z"/>
	<path class="st12" d="M184.8,48.8c0.8,0.2,1.6,0.4,2.5,0.4c-0.1,0.5-0.4,1.3,0.1,1.7c1.1,0.3,0.7,1.6,1,2.4c-0.5,0.1-1,0.2-1.5,0.4
		c-0.1-0.2-0.3-0.6-0.4-0.8c-0.7-0.1-1.4-0.1-1.9-0.5c1,0,2,0,3,0l-0.9,0.6c0.9,0.4,1.5-0.5,1.1-1.3c-1.2-0.3-2.4-0.2-3.6-0.3
		c0.9-0.4,2.1-0.5,2.3-1.7c-0.9,0.3-1.7,0.8-2.7,0.5c0.3-0.1,0.9-0.3,1.2-0.4C184.9,49.4,184.9,49.1,184.8,48.8z"/>
	<path class="st40" d="M196.9,49.2c1.1-0.2,2.3-0.2,3.3,0.2C199.2,49.7,197.9,49.8,196.9,49.2z"/>
	<path class="st41" d="M156.5,49.6c0.5-0.2,0.8-0.1,1.1,0.4c-0.2,0.4-0.6,0.5-1.1,0.2C156.5,50.1,156.5,49.8,156.5,49.6z"/>
	<path class="st42" d="M178.2,49.6C179.3,49,178.2,50.9,178.2,49.6z"/>
	<path class="st25" d="M175.4,50c0.2-0.1,0.5-0.2,0.6-0.2c0.6-0.2,1,0.6,0.4,0.9C176,50.9,175,50.6,175.4,50z"/>
	<path class="st43" d="M196.4,49.8c1.3,0,2.9-0.3,3.8,0.9c0,0.3,0.1,0.9,0.2,1.2c-0.5-0.1-1-0.2-1.5-0.4c-0.7-0.2-1.4-0.1-2.1-0.1
		v-0.5c0.7,0.2,1.5,0.4,2.2,0.1c0.7-0.4-0.5-0.5-0.7-0.4c-0.5,0-1,0.1-1.5,0.2C196.7,50.6,196.5,50.1,196.4,49.8z"/>
	<path class="st44" d="M139.6,50.3c0.5-0.1,0.7,0.1,0.5,0.6C139.6,51.1,139.4,50.9,139.6,50.3z"/>
	<path class="st45" d="M177.8,50.3c0.6-0.2,0.8,0,0.7,0.6C177.8,51.2,177.6,51,177.8,50.3z"/>
	<path class="st46" d="M196.8,50.8c0.5-0.1,1-0.2,1.5-0.2c0.2-0.1,1.4,0.1,0.7,0.4c-0.7,0.3-1.5,0.1-2.2-0.1L196.8,50.8z"/>
	<path class="st1" d="M184.1,51.3c1.2,0.1,2.4,0,3.6,0.3c0.5,0.8-0.2,1.7-1.1,1.3l0.9-0.6c-1,0-2,0-3,0
		C184.5,52,184.2,51.5,184.1,51.3z"/>
	<path class="st47" d="M196.8,51.5c0.7-0.1,1.4-0.1,2.1,0.1C198.7,52.2,197,52.1,196.8,51.5z"/>
	<path class="st1" d="M196.4,52c1.3,0,2.7,0,4,0l0,0.7c-1.3,0-2.7,0-4-0.1L196.4,52z"/>
	<path class="st48" d="M163.3,53.5c0.2-0.3,0.4-0.6,0.6-1c0.7,0.8,1.8,0.4,2.7,0.8C165.5,53.5,164.4,53.5,163.3,53.5z"/>
	<path class="st49" d="M184,53.2c0.4-0.3,0.9-0.4,1.3-0.1C185.6,53.8,183.6,54,184,53.2z"/>
	<path class="st0" d="M231.1,77.5c2.1-1.5,5-1.2,7,0.3c2.8,1.9,4.3,5,5.7,8c-1.1,0.8-2.1,2-3.4,2.4c-0.7-2.7-2.2-5.4-4.7-6.7
		c-1.4-0.6-3,0.6-3.1,2c-0.7,4.1-0.2,8.2-0.5,12.3c2.8,0,5.6,0.1,8.4,0.3c0,1.3-0.1,2.7-0.2,4c-2.8,0.1-5.6,0-8.3,0
		c0.2,16.7,0.7,33.4,0.9,50.2c-1.7-0.1-3.4,0-5.2,0c0-11.7-0.1-23.3-0.1-35c-0.1-4.8,0.1-9.6-0.2-14.4c-2.3-0.3-4.7-0.4-7-0.5
		c0-1.5,0.1-3,0.1-4.5c2.3,0,4.5,0,6.8-0.1c0.3-4.1,0.3-8.2,0.3-12.3C227.8,81.2,229.2,78.9,231.1,77.5z"/>
	<path class="st0" d="M15.9,82.5c1.4-2.4,3.6-4.6,6.5-5.1c1.8-0.2,3.9-0.4,5.3,0.9c2,1.7,2.9,4.2,3.7,6.6c2.3-2.9,4.6-6.3,8.4-7.3
		c2.3-0.2,5.1,0.1,6.7,2.1c2.2,2.8,3.1,6.4,3.6,9.8c0.5,4.2,0.9,8.5,1,12.8c0.2,16.1,0.6,32.2,0.8,48.4c-1.5,0.1-3.1,0.1-4.6,0.2
		c-0.2-16.3-0.4-32.7-0.5-49c-0.1-4.3-0.2-8.6-1.2-12.7c-0.5-1.7-1-3.5-2.2-4.7c-1.3-1.4-3.7-1.2-4.9,0.1c-1.8,1.8-2.5,4.4-3,6.8
		c-1.4,7.8-0.9,15.7-0.8,23.5c-1.4-0.1-2.8-0.2-4.2-0.4c-0.4-0.4-0.1-1.2-0.3-1.8c-0.1-5.4-0.2-10.7-1-16c-0.5-3.7-1-7.5-2.5-11
		c-0.5-1.1-1.1-2.3-2.3-2.7c-1.8-0.3-3.6,0.9-4.5,2.4c-1.9,3.1-2.6,6.7-3,10.3c-0.5,4.8-0.3,9.6-0.3,14.3c0,13.5,0,27.1,0,40.6
		c-1.7-0.1-3.3-0.2-5-0.2c0.1-12.8,0.2-25.7,0.3-38.5c0-11.2,0.4-22.5-0.6-33.7c1.5-0.1,2.9-0.2,4.4-0.4
		C15.7,79.4,15.8,81,15.9,82.5z"/>
	<path class="st0" d="M117.4,80.6c1.2-1.8,3.1-3.3,5.4-3.2c2.8,0.1,5.2,2.1,6.9,4.2c-0.5,1.3-1.3,2.4-2,3.6c-1.5-1.2-3-3.3-5.2-2.6
		c-2.3,1.1-3.3,3.7-4,5.9c-2,6.7-2.3,13.7-2.5,20.6c0.1,6.6,0.4,13.2,1.6,19.7c0.8,4.2,1.7,8.5,3.8,12.3c1,1.6,2.4,3.3,4.4,3.6
		c1.9,0.1,3.2-1.4,4.6-2.4c0.4,1.5,0.9,2.9,1.2,4.4c-1.1,1.5-2.5,2.7-4,3.6c-2,1.3-4.9,0.9-6.6-0.7c-2.3-2-3.6-4.9-4.6-7.7
		c-2.5-7.1-3.6-14.6-4.2-22c-0.7-9.8-0.5-19.8,1.5-29.5C114.4,87.1,115.3,83.6,117.4,80.6z"/>
	<path class="st0" d="M86.1,78.8c2.5-1.4,5.6-1.2,8.3-0.1c3.1,1.2,5.5,3.6,7.3,6.2c-0.9,1-1.7,2.2-2.7,3c-1.8-2.8-4.7-4.8-8-5.3
		c-1.7-0.3-3.4,0.9-3.8,2.6c-0.7,2.8,0,5.8,0.8,8.5c1.6,5.3,3.7,10.4,5.7,15.5c1.3,3.2,2,6.6,3.4,9.7c1.9,4.4,3.6,8.9,4.8,13.6
		c1.2,4.3,2,9.1,0.2,13.4c-1.1,2.8-3.9,4.6-6.8,4.8c-2.6,0-4.9-1.6-6.8-3.2c-3-2.7-5.4-6.2-5.8-10.3c1.2-0.2,2.4-0.5,3.6-0.8
		c0.6,3.5,2.9,6.4,5.7,8.4c1.5,1.1,3.6,1,5.3,0.5c1.2-0.9,1.4-2.5,1.4-3.8c0-4.2-1.2-8.3-2.4-12.2c-3.7-11.2-8.4-22-12-33.1
		c-1.2-3.6-1.8-7.4-1.6-11.2C82.6,82.3,83.9,79.9,86.1,78.8z"/>
	<path class="st0" d="M202,78.9c2.3-1.8,6.1-1.5,7.9,0.8c1.4,2,2.3,4.3,2.9,6.7c1.2,5.3,1.4,10.8,0.3,16.1
		c-4.8,0.5-9.7,0.9-14.5,1.3c-0.7,9.3-1,18.6-0.1,27.8c0.5,3.8,0.9,7.8,2.7,11.3c0.7,1.3,1.7,2.6,3.2,2.9c1.6,0.4,3.4-0.4,4.2-1.9
		c1.3-2.4,1.4-5.3,1.6-7.9c1.4,0.2,2.9,0.5,4.3,0.7c-0.6,4-1.2,8.1-3.6,11.5c-1.3,1.9-3.7,2-5.7,2.3c-2.9,0.4-5.4-1.7-6.8-4
		c-2.4-4.2-3.2-9-3.7-13.7c-1.2-10.9-0.8-22-0.1-32.9c0.3-4.7,1-9.4,2.6-13.8C198.3,83.4,199.6,80.6,202,78.9 M202.4,85.5
		c-2,4-2.8,8.5-3.1,13c0.2,0,0.6-0.1,0.7-0.1c-0.4,0.2-0.7,0.5-1,0.8c3.6-0.1,7.1-0.6,10.7-1c0.5-4.2,0.5-8.7-1.3-12.6
		c-0.7-1.3-1.7-2.8-3.4-2.8C203.8,83.1,203,84.4,202.4,85.5z"/>
	<path class="st0" d="M141.4,78.2c1.5-0.1,3.1-0.1,4.6-0.1c-0.1,8.6,0.2,17.1,0.2,25.7c0.9-2,1.9-4.1,3.7-5.4c2.6-2.1,7-1.2,8.6,1.8
		c1.7,3.1,2.4,6.7,2.9,10.2c1.4,10.8,1,21.7,1.4,32.6c0.1,2.5,0.2,4.9,0.2,7.4c-1.6,0-3.2,0-4.8,0c0.2-11.5,0.3-23.1-1-34.6
		c-0.4-3.2-0.9-6.4-2.1-9.4c-0.4-1-1.2-2.3-2.4-2c-1.6,0.2-2.3,1.9-2.9,3.2c-2,5.3-2,11.1-2.5,16.7c-0.4,8.6-0.4,17.2-0.7,25.8
		c-1.6,0.1-3.2,0.2-4.8,0.3C142.3,126.3,141.7,102.2,141.4,78.2z"/>
	<path class="st0" d="M64.3,79.1c0.8-0.3,1.8,0,2.5,0.4c0.6,1.1,0.9,2.6,0.3,3.8c-0.9,1.7-3.9,1.4-4.5-0.4
		C62,81.5,62.7,79.6,64.3,79.1z"/>
	<path class="st0" d="M175,79.8c0.8-1.1,2.6-1.1,3.6-0.2c0.8,1.4,1,3.5-0.4,4.5c-1.2,0.8-2.7,0.1-3.8-0.6
		C174.2,82.2,174.1,80.8,175,79.8z"/>
	<path class="st0" d="M62.8,91.4c1.4,0,2.9,0,4.3,0.2c-0.3,10.3-0.3,20.5-0.4,30.8c0.1,5.7,0,11.5,0.9,17.2c0.3,1.6,0.6,3.5,1.9,4.6
		c1,0.7,2.3-0.1,3.3-0.4c0.1,2,0.1,4,0.1,6c-2.1,0.3-4.5,1.6-6.4,0c-1.9-1.8-2.4-4.5-3-6.9c-1.3-8.1-1.3-16.3-1.3-24.5
		C62.2,109.4,62.7,100.4,62.8,91.4z"/>
	<path class="st0" d="M174.8,91.4c1.4,0,2.7,0.1,4.1,0.1c0.1,12.9-0.4,25.7-0.1,38.6c0.2,4,0.2,8.1,1.4,12c0.3,1.1,1,2.3,2.3,2.4
		c0.8-0.1,1.5-0.5,2.3-0.8c0.1,1.9,0.2,3.9,0.2,5.8c-1.4,0.8-3.2,1-4.8,1c-2.1-0.4-3.3-2.6-3.7-4.6c-1.7-5.3-1.7-10.8-1.9-16.3
		c-0.5-10.6,0-21.2,0.2-31.8C174.5,95.8,174.7,93.6,174.8,91.4z"/>
	<path class="st0" d="M113.6,166.9c4.2-0.1,8.5,0.3,12.6-0.9c0.7,1.4,0.8,3,1.2,4.6c-1.7-0.8-3.5-1.9-5.4-1.5c0,2.2,0,4.4,0.1,6.6
		c1.1,0.2,2.3,0.6,3.4,0.4c0.9-0.3,1.7-0.8,2.7-0.9c0,1.4-0.2,2.9-0.6,4.3c-1.6-0.5-3.5-1.4-5.2-0.5c-1,0.5-0.8,1.8-0.8,2.7
		c0.1,4.5-0.3,9,0.2,13.5c0.2,1.8,0.2,3.6,0.3,5.4c2.1,0.6,4.2-0.4,6.2-0.9c-0.1,1.8-1.7,3-2.2,4.8c-4-0.7-8.2-0.7-12.3-0.7
		c0.7-1,1.7-2.1,1.6-3.4c0.3-5.6-0.2-11.1-0.1-16.7c0-4.5,0.4-9-0.2-13.5C115,168.8,114,168,113.6,166.9 M116.5,168.6
		c0,0.3,0,0.8,0,1.1c0.5,0,1.1,0,1.6,0c-0.8,0.1-1.4,0.6-1.8,1.2l0.3,0.3c-0.2,0.5-0.1,0.9,0.3,1.3l-0.5,0c0.1,0.2,0.4,0.5,0.5,0.7
		c1.4,0.4,2.8,0.2,4.2,0.3c-0.1-0.3-0.3-0.8-0.3-1l0.5,0c-1.1-1.5-3.1-0.4-4.5-1.1c1.5,0.1,3,0.1,4.6-0.1c-0.2-0.1-0.7-0.2-1-0.2
		c-0.2-0.3-0.3-0.6-0.5-0.9c0.4,0.3,0.8,0.4,1.2,0.1c0-0.6-1-0.6-1.3-0.3c0.1-0.3,0.1-0.7,0.2-1
		C118.8,168.5,117.7,168.6,116.5,168.6 M116.7,173.5c0.2,0.2,0.5,0.7,0.7,0.9c-0.2,0-0.5,0-0.7,0c0,1.7,0,3.4,0,5.1
		c1.4,0,2.8,0.1,4.2-0.1c-0.5-1-1.6-0.9-2.5-1l0-0.3c2.5,0,4.9-0.6,7.4-0.4c0.6,0.1,1.3,0,1.6-0.6c-1.8-0.1-3.7,0-5.5,0
		c-1-1.7-3.2-0.3-4.7-1.1c1.2,0,2.5,0,3.7-0.1c-0.2-0.6-0.3-1.2-0.5-1.8l-0.2,0c0.2-0.2,0.4-0.5,0.6-0.6
		C119.4,173.4,118.1,173.4,116.7,173.5 M116.4,179.9c0.2,0.3,0.4,0.6,0.6,1c-0.1,0.2-0.2,0.6-0.2,0.8c-0.4,0.6,0.1,1.3,0.1,2
		l0.2,0.2c0,0.3-0.1,0.9-0.2,1.2c-0.1,0.1-0.2,0.2-0.3,0.3c0,0.6,0.1,1.3,0.1,1.9c1,0,2,0,3-0.1c0.3-0.5,0.5-1,0.7-1.4
		c-0.7-0.2-1.4-0.4-2.1-0.5c0.8,0,1.5-0.2,2.2-0.4c-0.2-0.1-0.7-0.4-0.9-0.5l-0.3-0.3c0.3,0,0.8-0.1,1-0.2l-0.4,0l0.4-0.1
		c-1.2-0.2-2.4-0.1-3.5-0.5c1.1-0.1,2.3-0.1,3.5-0.1c0-0.1-0.1-0.3-0.1-0.4c-0.1-0.5,0.2-1.2-0.2-1.5c0.1-0.5,0.2-0.9,0.4-1.4
		C119.1,179.8,117.7,179.8,116.4,179.9 M116.8,188c1.3,0.1,2.5,0.2,3.8,0.1c-0.6-0.7-1.7-0.5-2.5-0.6
		C117.6,187.5,117.1,187.6,116.8,188 M116.8,188.8c1.1,0.2,2.1,0.2,3.2,0C119,188.6,117.9,188.6,116.8,188.8 M116.7,189.5
		c0.7,0.5,1.7,0.3,2.5,0.3c0,0.2,0,0.5,0,0.7c-0.7,0-1.5,0-2.2,0c0.8,0.7,1.9,0.5,2.8,0.4c0.1-0.3,0.2-0.9,0.2-1.2
		C118.9,189.5,117.8,189.3,116.7,189.5 M116.7,191.4c0.7,0.6,2,0,2.4,1c-0.8,0.1-1.7-0.2-2.3,0.4c0.9,0.1,1.8,0,2.7,0
		c-0.1-0.1-0.2-0.4-0.3-0.5c0.2-0.1,0.7-0.3,0.9-0.4C119.1,191.3,117.9,191.4,116.7,191.4 M116.8,193.4c1.1,0.6,2.5,0.5,3.7,0.4
		C119.4,193.2,118,193.3,116.8,193.4 M116.9,194.3l-0.1,0.5c1.2,0,2.4,0,3.6-0.2C119.3,194.4,118.1,194.4,116.9,194.3 M116.8,195.9
		c1.3,0.2,2.7,0.2,4,0C119.7,195.1,117.7,194.5,116.8,195.9 M116.6,196.6c1.4,0.1,2.8,0.2,4.3-0.1
		C119.5,196.3,117.9,195.9,116.6,196.6 M116.8,197.4c-0.1,0.6-0.3,1.1-0.4,1.7c0.5,0.2,0.9,0.5,1.4,0.7c-0.6,0-1.1,0.1-1.7,0.1
		c0.1,0.2,0.3,0.5,0.3,0.7c1.5,0.2,3.1,0.2,4.6,0.1c-0.2-0.8-0.3-1.6-0.4-2.4c-0.9,0-1.7-0.1-2.5-0.5c0.9,0.1,1.8,0,2.7,0
		C119.7,197.1,118.1,197,116.8,197.4 M116.2,201c0.3,0.1,0.9,0.2,1.2,0.3c-0.4,0.1-0.8,0.3-1.2,0.5c0.1,0.2,0.3,0.5,0.4,0.7
		c0.1,0,0.4-0.1,0.6-0.1c2-0.2,4.1,0.1,6.1,0.1c0.2,0.7,1.9,0.7,2,0c0-0.1,0.1-0.4,0.1-0.6c-1.6,0.1-3.9,0.8-4.8-0.9
		C119.1,201,117.7,200.9,116.2,201z"/>
	<path class="st0" d="M79.1,166.7c1.5-0.5,2.8,0.7,4,1.4c2.9,2.3,4.1,6.1,5.1,9.6c1.3,4.4,0.7,8.9,0.5,13.4c-0.3,2.5-1.1,4.8-2,7.1
		c-0.9,2.5-2.8,4.8-5.4,5.4c-1.9,0.2-3.8-0.8-5.5-1.6c-1.9-1.6-2.8-4.1-3.5-6.5c-2-5.9-1.3-12.1-0.9-18.2c0.6-2.7,1.4-5.6,3.2-7.8
		C75.8,168.2,77.3,167.1,79.1,166.7 M76.4,169.2c0.3,0.2,0.6,0.3,1,0.5c-0.5,0-1.1,0.1-1.6,0.1c-0.4,0.6-0.7,1.3-0.8,2l-0.3,0
		c0.8,0.7,1.7,0.5,2.5,0.1l0.3,0c0.2-1,0.8-1.8,1.4-2.5c0.7,0,1.3,0,2,0c0.7,0.3,0.8,1,1.2,1.6l0.5,0c0.1,0.4,0,0.8-0.2,1.1
		l-0.2,0.4c0.6,0,1.1,0,1.7,0l0,0.3c-0.3,0-1,0.1-1.3,0.2c-0.1,0-0.4-0.1-0.6-0.2c0.3,0.4,0.6,0.8,0.9,1.3l-0.7-0.1l0,0.5
		c0.3,0,0.9,0.1,1.2,0.1c0,0.2,0,0.6-0.1,0.8c-0.1-0.2-0.4-0.6-0.6-0.8c-1.2,0.8-0.8,3,0.7,3.2c-0.4,0.1-0.8,0.3-1.2,0.4
		c0.4,0.1,0.9,0.3,1.3,0.4c-0.5,0.2-0.9,0.3-1.4,0.5c0.2,0.3,0.5,0.5,0.7,0.8c0.2-0.6,0.7-0.7,1.3-0.8c-0.3,0.4-0.6,0.8-0.9,1.1
		c-0.6-0.1-1,0.2-1.2,0.8c0.9,0.1,1.9,0.1,2.8,0.1l-0.3,0.2c-0.6,0.2-1.3,0.3-1.7,0.8c-0.2,0.7-0.1,1.5-0.2,2.2c1.7,0,3.4,0.1,5-0.1
		c-1.4-1.1-3.4-0.3-5-0.5c1-1.2,3-0.1,4.3-0.9c-1-0.2-2-0.2-3.1-0.3c0.7-1.4,2.4-0.6,3.6-0.8c-0.1-1.2-1.4-0.6-2.1-0.6l0-0.5
		c0.2-0.1,0.5-0.3,0.7-0.5c0.3,0,0.9,0,1.2,0.1c0.3-1.4-1.2-1-2.1-1.2c0.7-0.2,1.3-0.4,2-0.6c-0.9-0.6-2-0.4-3-0.4
		c0-0.1,0-0.2,0-0.3c0.9,0,1.8-0.1,2.7-0.2c-0.2-0.2-0.5-0.6-0.6-0.9c0-0.5,0-1,0-1.4c-0.3,0-0.8,0-1,0c0.1-0.2,0.2-0.5,0.3-0.7
		c-0.2-0.2-0.5-0.5-0.7-0.6l0.4,0.2c-0.2-0.6-0.4-1.2-0.7-1.7c-0.1-0.4,0.1-1.1-0.2-1.4c-0.8-1.4-2-2.5-3.3-3.4c-1,0-2-0.1-3,0.1
		C77.5,168.2,77,168.7,76.4,169.2 M78.6,170.9c0.3,5.6-0.1,11.3,0.1,16.9c0.1,3.7-0.3,7.5,0.1,11.2c0,1.2,2.1,1.5,2.2,0.2
		c0.5-2.4,0.5-4.8,0.4-7.2c-0.3-3.9,0.2-7.8-0.2-11.6c0.1-2.9-0.1-5.8-0.2-8.7c0-0.8-0.7-1.2-1.2-1.7
		C79.4,170.3,79,170.6,78.6,170.9 M74.4,172.9c0.7,0.3,1.6,0.2,2.4,0C76.4,172.4,74.8,172.3,74.4,172.9 M73.6,173.6
		c1.3,0.4,2.7,0.4,4,0C76.3,173.2,74.9,173.2,73.6,173.6 M73.9,174.3c0.8,1,2.4,0.3,3.5,0.2C76.3,174.1,75.1,174.1,73.9,174.3
		 M73.4,175.2l0.5,0.1c-0.1,0.5-0.3,0.9-0.4,1.4c0.7,0,1.4-0.2,2.1,0.1c-0.8,0.1-1.7,0.2-2.5,0.5c-0.3,0.2-0.5,0.4-0.7,0.7
		c0.5,0.1,1,0.1,1.5,0.2c-0.1,0.5-0.3,1-0.4,1.4c-0.5,0.1-1,0.2-1.5,0.4c0.5,0.2,1.1,0.4,1.6,0.5c-0.2,0.2-0.5,0.7-0.6,0.9
		c1.1,0.1,2.3,0.1,3.4,0.1c0.3,0.5,0.7,0.7,1.2,0.8c-0.3-0.9-0.1-1.9,0.1-2.8c-0.3-0.2-0.7-0.3-1-0.5c0.2-0.1,0.7-0.2,1-0.3
		c0.1-0.9,0.1-1.9,0.2-2.8c-1,0.3-1.9-0.1-2.8-0.4c0.9,0,1.7-0.1,2.6-0.1V175C76.2,175,74.7,174.7,73.4,175.2 M72,182.5
		c1.7,0.1,3.6,0.1,5.1,0.9c-0.6,0.1-1.1,0.2-1.7,0.3c-0.2-0.2-0.5-0.6-0.6-0.8c-1,0.1-2.1-0.2-2.9,0.5c0.3,0.1,0.9,0.3,1.2,0.4
		c-0.4,0.6-0.8,1.2-1,1.9c0.2,0.1,0.6,0.3,0.8,0.4c-0.4,0.1-0.7,0.3-1,0.4c1.3,0.2,2.6,0.1,3.9,0c-0.1,0.2-0.3,0.6-0.4,0.8
		c0.5,0.1,1,0.2,1.4,0.3c-1,0-1.9,0.1-2.9,0.2l0.3-0.5l0-0.2c-0.4-0.4-1.3-0.5-1.7,0c0.1,0.1,0.3,0.2,0.4,0.3
		c-0.3,0.3-0.5,0.7-0.8,1c0,0.2-0.1,0.7-0.1,0.9c0.7,0,1.3,0.1,1.9-0.2c-0.4-0.1-1.3-0.3-1.8-0.4c0.6-0.2,1.3-0.3,1.9,0
		c1.2,0.6,2.5,0.4,3.8,0c-0.8-0.2-1.5-0.4-2.3-0.5c0.7,0,1.4-0.1,2.1-0.3c-0.2-0.5-0.3-1.1-0.4-1.6c0.5-0.3,0.5-0.6-0.1-0.8
		c0.1-0.2,0.4-0.6,0.6-0.8c-0.9,0-1.9-0.1-2.8-0.3c0.9-0.2,1.9-0.3,2.8-0.3c0-0.5,0-1,0.1-1.5c-1.1-0.5-2.3-1.1-3.6-1
		C73.5,181.9,72.4,181.6,72,182.5 M82.8,185.2c-0.1,0.2-0.3,0.4-0.4,0.6c0.6,0.1,1.2,0.3,1.7,0.4c-0.6,0-1.1,0.1-1.6,0.4
		c0,0.5,0.2,1,0.4,1.5c1.1-0.1,2.1-0.3,3.2-0.3l-0.3,0.6c-1.2,0-2.4-0.2-3.4,0.6c0.3,0,1,0.1,1.3,0.1c-0.4,0.2-0.9,0.4-1.3,0.6
		c0.1,0.3,0.3,0.9,0.4,1.2c1-0.1,2-0.1,3-0.2c-1.2,0.3-2.4,0.6-3.6,0.8c0.5,1,1.9,0.3,2.7,0.4c-0.8,0.2-1.6,0.5-2.4,0.8
		c0.2,0.1,0.7,0.4,1,0.5c-0.3,0.1-0.9,0.2-1.2,0.3c0.2,0.3,0.4,0.7,0.6,1c-0.1,0.1-0.4,0.2-0.6,0.3c0.3,0,0.8,0,1,0
		c-0.3,0.4-0.7,0.8-1,1.2c0.3,0,0.8,0.1,1,0.1c-0.3,0.2-0.9,0.5-1.2,0.7c0.6,0.4,1.3,0.3,2,0.4c-0.6,0.4-1.2,0.8-1.9,1
		c0.2,0,0.6,0.1,0.8,0.2c-0.1,0.2-0.2,0.7-0.2,0.9c-0.6,0.4-1.1,0.8-1.5,1.3c-1.6,0.6-3-0.4-4.6-0.4c-0.2,0.3-0.5,0.6-0.7,0.9
		c0.8,0,1.6,0,2.5,0.1c0,0.4,0,0.9,0,1.3c0.7-0.4,1.3-1,2.2-0.9c0.7,0.2,1.4,0.4,2.1,0.4c-0.1-0.2-0.3-0.6-0.4-0.7
		c0.7-0.2,1.3-0.4,2-0.6c0-0.2-0.1-0.5-0.1-0.6c0.4-0.2,0.7-0.5,1.1-0.7c-0.4-0.1-0.8-0.3-1.2-0.4c0.5-0.4,1-0.7,1.5-1.1
		c-0.2-0.1-0.6-0.3-0.7-0.4c0.5-0.6,1.1-1.1,1.6-1.7c-0.3,0-0.8-0.1-1-0.1c0.7-0.3,2-1.3,0.7-1.8c0.7-0.4,1.3-1,1-1.9
		c-0.3-0.1-0.9-0.2-1.2-0.3c0.4-0.1,0.9-0.1,1.3-0.2c-0.3-0.7-0.4-1.6-1.2-1.8c0.8,0.3,2-0.7,0.6-0.9c-0.2-0.2-0.5-0.7-0.7-0.9
		c0.5-0.2,1.1-0.4,1.6-0.7c-1.8-0.4-3.5,0.4-5.2,0.1c1.2-0.9,2.7-0.4,4.1-0.6c0.1,0,0.3,0.1,0.4,0.1c0-0.4,0.1-0.8,0.1-1.1l0.6,0
		c-1.4-0.9-3.4-0.5-5-0.2L82.8,185.2 M73.3,189.9L73.3,189.9c0.1,0.3,0.3,0.6,0.4,1c-0.3,0-0.9,0-1.2,0l0,0.4c1.2,0,2.4-0.1,3.6-0.3
		l-0.1,0.6c-1.1,0-2.1,0.2-3.1,0.7c0.4,0,1.3,0,1.7,0c-0.3,0.2-0.9,0.6-1.2,0.8l0,0.2c0.3-0.1,1-0.2,1.4-0.2
		c0.3,0.2,0.5,0.4,0.8,0.6c-0.6,0-1.3,0.1-1.9,0.1c0.9,0.3,1.8,0.5,2.7,0.6c-0.2-0.2-0.6-0.5-0.8-0.7c0.4-0.1,1.2-0.2,1.6-0.3
		c-0.6,0-1.1,0-1.7,0.1c0-0.2,0.1-0.6,0.2-0.7c0.4,0,1.2,0,1.6,0c-0.8-0.2-1.7-0.2-2.5-0.3c0.9-0.3,1.9-0.5,2.8-0.8
		c-0.5,0-1-0.2-1.4-0.5c0.3,0,1-0.1,1.3-0.2c-0.1-0.5-0.1-0.9-0.1-1.4C76.2,189.5,74.4,188.6,73.3,189.9 M73.5,195.5
		c0.1,0.1,0.3,0.4,0.4,0.5c0,0.2,0.1,0.5,0.2,0.6l0.2-0.1c0.5,0.4,1,0.5,1.7,0.2c0.1,0.2,0.4,0.7,0.5,0.9c-0.3,0-0.8,0.1-1,0.2
		c0.7-0.9-1.4-1-0.7,0c0.1,0.2,0.2,0.6,0.2,0.8c0.9,0.4,1.8,0.6,2.8,0.6c0.1-0.4,0.2-1.1,0.2-1.5c-0.3,0-0.8-0.1-1-0.2
		c0-0.2,0.1-0.5,0.2-0.7c-0.1-0.1-0.4-0.2-0.6-0.2c0.3-0.2,0.7-0.4,1-0.6c-0.5-0.2-0.9-0.3-1.4-0.5c0.6-0.1,1.2-0.2,1.8-0.2
		c-0.1-0.1-0.2-0.3-0.3-0.4C76.2,194.8,74.9,195.2,73.5,195.5 M76,199.8c0.1,0.5,0.3,0.6,0.8,0.3C76.8,199.6,76.5,199.5,76,199.8z"
		/>
	<path class="st0" d="M92,166.6c2-0.1,4,0.2,5.9,0c2.8,6.7,4.9,13.8,7.9,20.4c-0.1-6.1,0.5-12.1,0.3-18.2c0-0.8-0.5-1.4-0.8-2
		c1.8-0.1,3.6-0.1,5.4-0.2c-1,1-1,2.4-1,3.7c0,10.5-0.2,20.9,0,31.4c0.1,0.8-0.2,1.5-0.6,2.2c-1.2-1-2.9,0.2-4-0.8
		c-1.4-2.9-2.3-6-3.4-9c-1.7-4.2-3.1-8.5-5.1-12.5c-0.1,4.4,0.4,8.8,0.2,13.2c0,2.3,0,4.7,0.1,7c0,0.7,0.3,1.3,0.6,1.9
		c-1.6,0-3.2,0.1-4.8,0.2c0.4-1.2,0.8-2.4,0.8-3.7c0-7.5,0-15-0.1-22.5c0-3.3,0.2-6.6-0.3-9.8C92.6,167.5,92.3,167,92,166.6
		 M94.2,167.4c-0.4,0.5,0.5,1.1,0.9,0.6C95.4,167.5,94.5,166.9,94.2,167.4 M96.4,167.8C95.8,169,97.7,167.8,96.4,167.8 M107.3,167.7
		c-0.8,0.8-0.2,2.1-0.4,3.2l0.3-0.1c-0.6,1.3,2,0.7,0.6-0.1c0.2,0,0.5,0,0.6,0c0-0.7,0.1-1.4,0.5-2c-0.1-0.1-0.4-0.3-0.6-0.3
		c1-0.2-0.4-1.4-0.5-0.3C107.8,167.9,107.5,167.8,107.3,167.7 M94.6,169c0.3,0.5,1.7,0.1,2.3,0C96.5,168.4,95.2,168.6,94.6,169
		 M95.1,169.5c-0.8,0.9-0.3,2.3-0.7,3.3c0.2,0,0.6,0.1,0.8,0.1c-0.3,0.3-0.6,0.5-0.9,0.8c1,0,2,0.1,3,0.2c-1,0.7-2.7-0.2-3.4,1.1
		c0.2,0.3,0.4,0.7,0.6,1c0.2,0.1,0.6,0.4,0.8,0.5c-0.2,0-0.7,0-0.9,0c0.1,0.2,0.2,0.5,0.2,0.7c-0.2,0.4-0.5,0.8-0.7,1.3
		c1.1,0,2.5-1,3.4,0c-0.3,0.2-0.6,0.4-0.9,0.6c0.6,0.7,1.1,1.6,2,2c-0.2,0.3-0.5,0.6-0.7,0.9c1.2,0.4,2.4,0.6,3.6,0.6
		c-1,0-1.9,0.1-2.8,0.5c1,0.1,2.1,0.1,3.1,0.1c0.2-0.6,0.7-0.8,1.3-0.9c-0.4-0.6-0.7-1.4-1.4-1.7c0.1-0.2,0.3-0.6,0.4-0.7
		c-0.4-0.7-0.7-1.4-1-2.1c-0.2-0.1-0.7-0.2-0.9-0.3c0.2,0,0.7-0.1,0.9-0.1c-0.4-0.7-0.8-1.4-1.4-2c0-0.8-0.1-1.6-0.3-2.5
		c-0.4-0.2-0.7-0.4-1.1-0.5c0.1-0.2,0.2-0.5,0.2-0.7c-0.1,0-0.4-0.1-0.6-0.1c0.1-0.7,0.3-1.3,0.4-2
		C97.2,169.4,96.2,169.3,95.1,169.5 M106.7,171.9c0.2,0.4,0.1,1.4,0.9,1.2c0.4-0.4,0.7-0.8,1-1.2C108,171.9,107.3,171.9,106.7,171.9
		 M107.3,173.5c-0.4,0.6,0.6,1.1,1,0.6C108.8,173.5,107.7,173,107.3,173.5 M106.8,174.7c0,0.4,0.1,0.9,0.1,1.3
		c0.2,0,0.6,0.1,0.8,0.1c-0.1-0.7,0.3-1.1,0.7-1.5C107.9,174.6,107.4,174.6,106.8,174.7 M106.7,176.6c0.3,0.8,1.7,0.9,1.9,0
		C107.9,176.6,107.3,176.6,106.7,176.6 M106.8,177.7c0.2,0.2,0.5,0.6,0.7,0.8c-0.2,0.2-0.5,0.5-0.6,0.6c0.5,0,1,0,1.5-0.1
		c0-0.4,0-0.9-0.1-1.3C107.8,177.8,107.3,177.8,106.8,177.7 M94.5,179.3c0,0.4-0.1,0.9-0.2,1.3l0.3,0.2c0,0.2-0.1,0.5-0.1,0.7
		l0.8,0.1c-0.2,0.1-0.7,0.4-0.9,0.5c0.1,0.2,0.2,0.4,0.3,0.7c0.1,0.3,0.1,0.7,0.2,1l-0.8,0.1c0,0.1-0.1,0.2-0.1,0.3
		c0.7,0.2,1.4,0.1,2,0.1c-0.3-0.1-0.8-0.2-1-0.2c0.8-0.8,1-2.1,0.1-2.9c0.2,0,0.5,0.1,0.7,0.1c-0.1-0.8-0.1-1.5-0.1-2.3
		C95.4,179,94.9,179.1,94.5,179.3 M107.3,180.4c-0.7,0.2-0.2,1,0.4,1c0.6,0.2,0.9-0.8,0.3-1C108.7,179.2,106,179.6,107.3,180.4
		 M107,181.6c-0.3,0.7,1.3,1,1.4,0.3C108.3,181.4,107.4,181.3,107,181.6 M107,182.9c0.1,0.1,0.2,0.2,0.2,0.3
		c-0.1,0.2-0.2,0.5-0.3,0.7c0,0.5,0.1,1.1,0.1,1.6c-0.7,1,1.4,0.9,0.6-0.1c0.2-0.1,0.6-0.2,0.8-0.2c-0.1-0.5-0.3-1-0.4-1.5l0.1-0.2
		C109.5,183.4,107.5,182.1,107,182.9 M99.1,183.6c0,0.2,0,0.6,0,0.7l0,0.3c1.4,0.1,3,0.5,4.4-0.2c-0.6-0.1-1.2-0.1-1.8-0.2
		c0.6-0.2,1.1-0.7,1.5-1.2C101.8,183.3,100.5,183.6,99.1,183.6 M94.2,184.8c0.1,0.5,0.3,0.6,0.8,0.3
		C94.9,184.5,94.7,184.4,94.2,184.8 M94.2,185.6c0,0.6,0.1,1.2,0.1,1.7c0.5,0,1,0.1,1.5,0.1c-0.2-0.2-0.7-0.7-0.9-0.9
		c0.4-0.2,0.8-0.4,1.2-0.6C95.4,185.8,94.8,185.7,94.2,185.6 M99.5,185.7c0.4,0.9,0.8,1.9,1.9,1.8l-0.2,0.2c-0.4,0.2-0.7,0.5-0.8,1
		c0.1,0.1,0.3,0.4,0.4,0.6c1,1.1,2.7,0.4,4,0.2c-0.3,0-0.8-0.1-1-0.1c-0.3-0.2-0.6-0.5-0.9-0.7c0.3,0,0.9-0.1,1.2-0.1l-0.1-0.3
		c0.4-0.2,0.9-0.4,1.3-0.6l-0.1-0.4c-0.5-0.2-1-0.4-1.5-0.6c0.3-0.3,0.6-0.6,0.9-0.9C103.1,184.7,101.2,185.7,99.5,185.7
		 M106.9,186.9c0.4,0.3,0.9,0.3,1.3,0C108.2,186.4,106.8,186.3,106.9,186.9 M106.8,187.6c0.4,0,1.1,0.1,1.5,0.2
		c-0.4,0.4-0.8,0.8-1.1,1.2c0.5,0,1-0.1,1.5-0.1c-0.1-0.4-0.3-0.9-0.4-1.3C107.8,187.6,107.3,187.6,106.8,187.6 M94.5,188.4l-0.4,0
		c0.1,0.5,0.1,1,0.2,1.5c0.7-0.1,1.4-0.3,1.9-0.9c-0.3-0.1-0.8-0.4-1.1-0.6C96.7,187.5,93.1,187.5,94.5,188.4 M105,188.6
		c-0.2,0.6,0,0.8,0.7,0.6C105.9,188.6,105.6,188.4,105,188.6 M105.9,189.9c0.2,0.1,0.5,0.3,0.6,0.4c-1.7,0.2-3.8-0.7-5.3,0.6
		c0.2,0.1,0.6,0.2,0.8,0.3c0.1,0.2,0.3,0.5,0.4,0.6c1.2,0.1,2.4-0.1,3.6-0.3c0.1,0.1,0.3,0.4,0.4,0.5c-1.4,0.3-3.6-1-4.3,0.8
		c1.7-0.1,3.4-0.3,5.1-0.3c-0.1,0.1-0.4,0.4-0.5,0.5c-1.3-0.4-3.5-0.7-4,1c0.3,0,0.9-0.1,1.1-0.1c1,0.2,2.1-0.1,3,0.2l0,0.2
		c-1.1,0.3-2.5-0.1-3.7,0.2c0.6,0.1,1.1,0.3,1.7,0.4c-0.3,0.3-0.6,0.6-0.9,0.9c1.2-0.1,2.4,0,3.7-0.2c-0.8-0.1-1.5-0.2-2.3-0.2
		c1-0.4,2.1-0.1,3.1-0.4c-0.3-0.2-0.8-0.6-1.1-0.8c0.3,0,1-0.1,1.3-0.2c-0.4-0.1-0.7-0.2-1.1-0.4c0-0.4-0.1-0.8-0.1-1.2l0.4,0
		c-0.5,1,1.4,0.5,0.8-0.3c-0.1-0.2-0.3-0.7-0.3-1l0.5,0c-0.3-0.3-0.7-0.7-1.1-0.9c0.2-0.1,0.5-0.3,0.6-0.4
		C107.6,189.8,106.8,189.8,105.9,189.9 M94.9,190.6c0.2,0.3,0.4,0.7,0.5,1.1c-0.5,0.5-1,0.9-1.5,1.4c0.2,0.7,0.4,1.4,0.6,2.1
		c-0.1,0.2-0.4,0.7-0.5,0.9c0.5,0,1-0.1,1.5-0.1c0.1-1.8,0.2-3.7,0.3-5.5C95.5,190.4,95.1,190.5,94.9,190.6 M104.2,196.5
		c0.1,0.1,0.2,0.3,0.3,0.4c0,0.2,0.1,0.6,0.2,0.7l-0.4,0.3c1,1.1,2.6,0.8,4,0.8c-0.7-0.4-1.5-0.6-2.3-0.7c0.9,0,1.8,0,2.6,0.1
		c0-0.7,0-1.4-0.1-2.1l-0.4,0.4c-0.7,0-1.4,0-2.1,0.2C105.5,196.1,104.7,196,104.2,196.5 M94.6,196.8c-1.1,0.5,0.5,1.3,0.9,0.5
		C96,196.7,95,196.4,94.6,196.8 M94.5,198.5c-0.5,0.8,1.3,1.1,1.4,0.3C95.7,198.2,94.9,198.2,94.5,198.5 M105.4,199.1
		C105.4,200.4,106.5,198.5,105.4,199.1 M106.4,199.7c-0.1,0.1-0.4,0.4-0.5,0.6l-0.7-0.1c0.4,0.2,0.8,0.4,1.3,0.5
		c-0.1,0.2-0.2,0.7-0.2,0.9c0.9-0.3,1.7-0.5,2.6-0.8c-0.3-0.3-0.5-0.6-0.8-0.9c0.3-0.3,0.6-0.7,0.9-1
		C108,199.1,107.1,199.2,106.4,199.7 M94.4,199.7c0,1.1,0,2.1,0,3.2c0.3,0,0.9,0,1.2,0c0.2-1.1,0.2-2.2,0.1-3.3
		C95.4,199.6,94.7,199.6,94.4,199.7 M106.3,202.5c0.7,0,1.5,0.1,2.2,0.1c0-0.5,0-0.9,0.1-1.4C107.8,201.5,107,202,106.3,202.5z"/>
	<path class="st50" d="M94.2,167.4c0.4-0.5,1.3,0.1,0.9,0.6C94.7,168.5,93.8,167.9,94.2,167.4z"/>
	<path class="st51" d="M96.4,167.8C97.7,167.8,95.8,169,96.4,167.8z"/>
	<path class="st1" d="M107.3,167.7c0.1,0.1,0.4,0.3,0.6,0.4c0.1,0.1,0.4,0.2,0.5,0.3c0.1,0.1,0.4,0.3,0.6,0.3
		c-0.4,0.6-0.5,1.3-0.5,2c-0.2,0-0.5,0-0.6,0c-0.2,0-0.5,0.1-0.6,0.1l-0.3,0.1C107.1,169.8,106.5,168.5,107.3,167.7z"/>
	<path class="st52" d="M107.9,168c0-1,1.5,0.1,0.5,0.3C108.3,168.3,108,168.1,107.9,168z"/>
	<path class="st53" d="M200.5,167.7c2.3,1.5,4.5,3.4,5.5,6c0.7,1.4,1.1,3.2,2.6,4c0.9,0.4,2,0.1,2.8,0.6c1.5,0.8,2.3,2.4,2.5,4.1
		c1,1,2,2.1,2.6,3.3c0.6,0,1.1,0,1.7-0.1c0.4-4.5-0.4-9.3,1.7-13.4c0.8-1.1,2.1-1.6,3.2-2.2c-0.2,1.2-0.4,2.3-0.6,3.5
		c1.4-0.9,2.7-2.1,4.5-1.9c-0.8,1.2-1.4,2.4-1.4,3.8c0.8-0.5,1.6-1.2,2.4-1.7c0.7-0.2,1.4-0.1,2.1-0.1c-0.7,1-1.4,2.1-2,3.2
		c1.3-0.2,2.6-0.5,3.9-0.6c-0.8,1.1-1.9,2-2.6,3.3c-0.5,1.4,0.6,2.8,0,4.2c-0.9,2.1-2.8,3.7-3.1,6.1c-0.6,5.5-0.1,11,0.5,16.4
		c0.2,2.5-0.1,5.1-1.1,7.4c-0.7,1.6-0.4,3.4-0.4,5.1c-1-0.6-2-1-3.1-1c-0.1,2.5,1,4.8,2.4,6.8c0.8-0.9,1.3-2.1,2.1-2.9
		c2.4-0.9,5.2-1,7.1-2.9c0-1.3-0.9-2.4-2-3.1c-0.8-0.5-1.7-0.8-2.2-1.6c-0.6-0.9-0.5-1.9-0.5-2.9c1,0,1.9-0.1,2.9,0
		c4.3-0.3,8,4.1,7.6,8.3c0.3,1.7-0.8,3.1-1.9,4.2c-1,0.9-2.5,0.7-3.4,1.7c-0.9,0.9-1.7,2.1-1.9,3.4c-0.7,3.4-0.6,7-1.5,10.3
		c-0.9,2.8-3.7,4.6-6.4,5.5c-1.4,0.5-3.2,0.5-4.2,1.7c-1.3,1.4-2.8,2.7-3.3,4.6c-1,3.2-0.4,6.6,0.5,9.8c1,2.1,1.9,4.4,1.1,6.7
		c-0.3,0.9-1.4,0.6-2.1,0.7c-5.5,0.2-11-1-16.5-0.2c-1.2,0.2-2.4,0-3.6-0.2c0.2-0.4,0.4-0.9,0.6-1.3c-1.3,0-2.6,0.1-4,0.1
		c0.3-1.1,1.1-1.9,2.1-2.4c-1.4,0-2.9,0-4.3,0c0.2-1.3,1.6-1.6,2.4-2.3c-1.2-0.1-2.3-0.1-3.5-0.2c2.2-2.2,5.6-2,8.4-2
		c2.9-0.1,5.8,0.3,8.7,0.5c-0.4-1-0.9-2-1.1-3.1c-0.2-3.2-0.4-6.4-0.6-9.6c-3.2,0.6-6.6,0.5-9.8,0.1c-2.4-0.2-4.6-1.3-6.9-1.4
		c-0.1,1.8-0.2,3.6,0.4,5.3c0.7,2.1,0.9,4.5-0.3,6.4c-0.5,1-1.7,0.6-2.5,0.7c-2.6,0-4.6-1.8-6.2-3.6c-0.7-1-2-0.9-3.1-1.2
		c-2-0.4-4-1.1-5.4-2.7c-1.1-1.3-3-1.5-4.2-2.8c-0.9-1-1.8-2.1-2.3-3.3c-0.2-0.6-0.7-1-1.2-1.4c0.1-0.4,0.4-1.1,0.6-1.5
		c-0.4-0.2-0.9-0.4-1.3-0.6c0.3-0.9,1-1.7,2-1.4c1.5,0.7,3.1,0.6,4.5,1.6c3.2,0.3,5.6,2.6,8,4.5c0.7-0.1,1.4,0,1.9-0.6
		c1.4-3.1,1.7-6.5,2.7-9.7c0.6-1.8,2.7-1.4,4.1-1.3c2,0.8,3.6,2.4,5.8,2.7c0.1-2-0.8-3.8-1.3-5.7c-0.5-1.9-1.1-3.7-1.9-5.5
		c-0.5-1.1-0.4-2.4-0.3-3.6c-0.7,0.1-1.3,0.3-2,0.5c-0.1,2.4,1.1,4.8,0.5,7.2c-0.6,0.2-1.2,0.3-1.7,0.5c-1.9-1.1-3.1-3-4.7-4.4
		c-1.3-1.5-2.8-2.8-3.8-4.6c-1.5-1-2.4-2.6-3.7-3.7c-1.6-1.5-2.8-3.5-3.9-5.4c-0.8-0.7-1.9-0.9-2.6-1.7c-1.6-1.5-1.5-4-2.9-5.6
		c-1-1.2-2.7-1.2-4-1.6c0.8-1.1,2.1-1.3,3.3-1.7c-1-0.5-2.4-0.5-3.1-1.4c1.3-1.1,3.4-0.6,5.1-0.9c-0.3-0.9-1.7-0.9-1.5-2
		c1.4,0.2,2.7,0.4,4.1,0.5c0-1.2-0.4-2.3-1.1-3.2c0.8,0.2,1.8-0.3,2.4,0.4c1.8,1.8,3.3,3.8,5.1,5.5c0-1.5-0.2-3.1,0-4.6
		c0.3-0.7,0.9-1.2,1.4-1.8c0-1.5,0.3-2.9,0.4-4.4c-0.4-2.5-1.9-4.6-2.5-7c-0.4-2.2-0.5-4.4,0-6.6c1.1,1.8,1.3,4,2.1,6
		c0.5,1.3,1.4,2.3,2.2,3.4c1.3-0.9,2.8-1.7,3.5-3.2c0.8-0.9,2.2-1,3-1.9c1.3-1.6,2.8-3.2,4.7-4c2.5-0.4,4.9-1.3,7.4-1.8
		c2.1-0.5,4.1,0.2,6.2,0c0.3-1.1,0.7-2.2,0.2-3.3C201.7,170.6,200.5,169.4,200.5,167.7z"/>
	<path class="st1" d="M76.4,169.2c0.6-0.5,1.1-1,1.8-1.3c1-0.2,2-0.1,3-0.1c1.3,0.9,2.5,2,3.3,3.4c-0.6-0.1-1.3-0.1-1.9-0.1l-0.5,0
		c-0.3-0.6-0.5-1.3-1.2-1.6c-0.7-0.1-1.3,0-2,0c-0.6,0.8-1.2,1.6-1.4,2.5l-0.3,0c-0.7-0.1-1.5-0.2-2.2-0.1c0.1-0.7,0.4-1.4,0.8-2
		c0.5,0,1.1-0.1,1.6-0.1C77.1,169.5,76.8,169.4,76.4,169.2 M78.3,168.6c-0.1,0.6,1.3,0.5,1.3,0C79.1,168.3,78.7,168.3,78.3,168.6z"
		/>
	<path class="st54" d="M78.3,168.6c0.4-0.3,0.8-0.3,1.3,0C79.6,169.1,78.2,169.2,78.3,168.6z"/>
	<path class="st1" d="M116.5,168.6c1.1,0,2.3,0,3.4,0.1c-0.1,0.3-0.1,0.7-0.2,1c-0.5,0-1.1,0-1.6,0c-0.5,0-1.1,0-1.6,0
		C116.5,169.4,116.5,168.8,116.5,168.6z"/>
	<path class="st55" d="M94.6,169c0.6-0.4,1.9-0.6,2.3,0C96.3,169.1,95,169.6,94.6,169z"/>
	<path class="st1" d="M95.1,169.5c1-0.2,2.1-0.1,3.2-0.1c-0.1,0.7-0.3,1.3-0.4,2c0.1,0,0.4,0.1,0.6,0.1c-0.1,0.2-0.2,0.5-0.2,0.7
		c0.4,0.2,0.7,0.4,1.1,0.5c0.2,0.8,0.3,1.6,0.3,2.5c0.6,0.6,1,1.3,1.4,2c-0.2,0-0.7,0.1-0.9,0.1c-0.3,0-0.8,0-1.1,0
		c0.1,0.4,0.2,0.8,0.3,1.2c0.7,0.1,1.4,0.3,2.1,0.4c-0.9,0.1-1.8,0.2-2.7,0.3c1,0.4,2,0.7,3,1.1c0.7,0.3,1,1.1,1.4,1.7
		c-0.5,0.2-1.1,0.4-1.3,0.9c-1,0-2.1,0-3.1-0.1c0.9-0.4,1.9-0.5,2.8-0.5c-1.2,0-2.5-0.2-3.6-0.6c0.2-0.3,0.5-0.6,0.7-0.9
		c-0.9-0.4-1.4-1.3-2-2c0.3-0.2,0.6-0.4,0.9-0.6c-0.9-1-2.3,0-3.4,0c0.2-0.4,0.5-0.8,0.7-1.3c-0.1-0.2-0.2-0.5-0.2-0.7
		c0.2,0,0.7,0,0.9,0c0.4,0.2,0.8,0.5,1.2,0.7c0.9,0.1,1.9,0,2.7-0.5c-1-0.1-2-0.2-3-0.3c0.6-0.3,1.2-0.6,1.7-1
		c-1.3-0.5-2.7-0.5-4-0.5c0.6-1.3,2.3-0.4,3.4-1.1c-1-0.1-2-0.1-3-0.2c0.3-0.3,0.6-0.5,0.9-0.8c-0.2,0-0.6-0.1-0.8-0.1
		C94.9,171.8,94.3,170.4,95.1,169.5 M96.2,173.5c0.9,0.1,1.8,0.2,2.7,0.2c-0.4-0.5-0.8-0.9-1.2-1.4
		C97.1,172.6,96.4,172.8,96.2,173.5z"/>
	<path class="st56" d="M118.1,169.7c0.5,0,1.1,0,1.6,0l0.1,0.2c0.2,0.3,0.3,0.6,0.5,0.9c-1.3-0.1-2.7,0-4,0
		C116.7,170.2,117.3,169.7,118.1,169.7z"/>
	<path class="st57" d="M119.7,169.7c0.3-0.3,1.3-0.3,1.3,0.3c-0.4,0.3-0.8,0.3-1.2-0.1L119.7,169.7z"/>
	<path class="st58" d="M107.3,170.8c0.2,0,0.5-0.1,0.6-0.1C109.3,171.5,106.7,172.1,107.3,170.8z"/>
	<path class="st59" d="M116.3,170.8c1.3-0.1,2.7-0.1,4,0c0.2,0.1,0.7,0.2,1,0.2c-1.5,0.2-3,0.2-4.6,0.1l-0.1-0.1L116.3,170.8z"/>
	<path class="st60" d="M82.6,171.1c0.6,0,1.3,0.1,1.9,0.1c0.3,0.2,0.1,1,0.2,1.4c-0.8-0.2-1.5-0.3-2.3-0.4
		C82.6,171.9,82.7,171.5,82.6,171.1z"/>
	<path class="st61" d="M116.6,171.1l0.1,0.1c1.4,0.8,3.4-0.3,4.5,1.1l-0.5,0c-1.3,0-2.6,0.1-3.8,0.1
		C116.5,172,116.4,171.6,116.6,171.1z"/>
	<path class="st0" d="M32.6,171.7c2.2-1,5.3,0.2,6,2.6c1.1,3.7,0.8,7.7,0.5,11.6c-0.5,4.3-0.4,8.9-2.4,12.8
		c-1.3,2.1-4.5,1.7-6.1,0.3c-1-1.3-1.3-3-1.7-4.6c-1.3-4.9-1.3-10.1-0.5-15.1C29.1,176.5,29.9,173.3,32.6,171.7 M31.8,175.1
		c-1.4,4.1-2.2,8.4-2.1,12.7c0.1,2.5,0.9,4.8,1.4,7.2c0.4,1.3,0.6,3,2.1,3.4c0.7,0.5,1.5-0.3,1.9-0.9c1.5-2.7,1.4-5.9,1.9-8.9
		c0.3-2.6,0.1-5.2,0.3-7.8c0.2-2.2-0.5-4.3-0.8-6.5c-0.7-0.7-1.5-1.2-2.4-1.7C33.2,173.4,32.2,174,31.8,175.1z"/>
	<path class="st0" d="M48.3,171.9c2.5-0.5,5.2-0.9,7.7,0c-0.3,0.4-0.3,1.2-1,1.2c-1.6,0.1-3.2,0-4.7,0c-0.2,2.5-0.5,5.1-0.5,7.7
		c1.1,0.1,2.2,0.1,3.2,0.4c0,0.3,0,0.9,0,1.2c-1.1,0-2.2,0-3.3,0c-0.1,2.6-0.5,5.1-0.4,7.7c0.2,3.1,0.3,6.3-0.1,9.4
		c-0.5,0.6-1.4,0.4-2.2,0.6c0.1-1.9,0.5-3.8,0.4-5.7c0-3.9-0.1-7.7,0.2-11.6C47.6,179.1,48.4,175.5,48.3,171.9z"/>
	<path class="st62" d="M106.7,171.9c0.6,0,1.3,0,1.9,0c-0.3,0.4-0.7,0.8-1,1.2C106.8,173.4,106.9,172.3,106.7,171.9z"/>
	<path class="st63" d="M82.4,172.3c0.8,0.1,1.5,0.2,2.3,0.4c0.3,0.6,0.5,1.1,0.7,1.7l-0.4-0.2c-0.8-0.4-1.6-0.7-2.5-1
		c0.3,0,1-0.1,1.3-0.2l0-0.3c-0.6,0-1.1,0-1.7,0L82.4,172.3z"/>
	<path class="st64" d="M96.2,173.5c0.2-0.7,0.9-1,1.5-1.2c0.4,0.5,0.8,0.9,1.2,1.4C98,173.7,97.1,173.6,96.2,173.5z"/>
	<path class="st26" d="M116.4,172.4l0.5,0c1.3,0,2.5-0.1,3.8-0.1c0.1,0.3,0.3,0.8,0.3,1c-1.4-0.1-2.8,0.1-4.2-0.3
		C116.8,172.9,116.5,172.5,116.4,172.4z"/>
	<path class="st65" d="M74.4,172.9c0.4-0.6,2-0.5,2.4,0C76.1,173.2,75.2,173.2,74.4,172.9z"/>
	<path class="st66" d="M82,173c0.1,0,0.4,0.1,0.6,0.2c0.8,0.3,1.7,0.5,2.5,1c0.2,0.2,0.5,0.5,0.7,0.6c-0.1,0.2-0.2,0.5-0.3,0.7
		c-0.3,0-0.9,0-1.2,0c-0.1-0.4-0.2-0.7-0.3-1.1c-0.4-0.1-0.7-0.1-1.1-0.2C82.7,173.8,82.4,173.4,82,173z"/>
	<path class="st67" d="M73.6,173.6c1.3-0.4,2.7-0.4,4,0C76.3,174,74.9,174,73.6,173.6z"/>
	<path class="st11" d="M107.3,173.5c0.4-0.5,1.5,0,1,0.6C107.9,174.6,106.9,174.1,107.3,173.5z"/>
	<path class="st68" d="M116.7,173.5c1.4-0.1,2.7-0.1,4.1,0.1c-0.1,0.2-0.4,0.5-0.6,0.6c-0.9,0.1-1.9,0.1-2.8,0.1
		C117.2,174.1,116.9,173.7,116.7,173.5z"/>
	<path class="st51" d="M73.9,174.3c1.2-0.2,2.4-0.1,3.5,0.2C76.3,174.6,74.8,175.3,73.9,174.3z"/>
	<path class="st18" d="M82.3,174.2l0.7,0.1c0.4,0.1,0.7,0.1,1.1,0.2c0.1,0.4,0.2,0.7,0.3,1.1c-0.3,0-0.6,0-0.9,0.1v-0.1
		c0-0.2,0-0.6,0.1-0.8c-0.3,0-0.9-0.1-1.2-0.1L82.3,174.2z"/>
	<path class="st1" d="M116.6,174.4c0.2,0,0.5,0,0.7,0c0.9,0,1.9,0,2.8-0.1l0.2,0c0.2,0.6,0.3,1.2,0.5,1.8c-1.2,0-2.5,0-3.7,0.1
		c1.5,0.8,3.6-0.6,4.7,1.1c1.8,0,3.7-0.2,5.5,0c-0.3,0.6-1,0.7-1.6,0.6c-2.5-0.2-4.9,0.4-7.4,0.4l0,0.3c0.9,0.1,2,0,2.5,1
		c-1.4,0.1-2.8,0.1-4.2,0.1C116.6,177.8,116.6,176.1,116.6,174.4z"/>
	<path class="st69" d="M73.4,175.2c1.3-0.5,2.8-0.2,4.2-0.2v0.4c-0.9,0-1.7,0.1-2.6,0.1c-0.3-0.1-0.8-0.2-1.1-0.2L73.4,175.2z"/>
	<path class="st1" d="M83.6,177.9c-1.5-0.2-1.9-2.4-0.7-3.2c0.1,0.2,0.4,0.6,0.6,0.8v0.1c0.3,0,0.6-0.1,0.9-0.1c0.3,0,0.9,0,1.2,0
		c0.3,0,0.8,0,1,0c0,0.5,0,1,0,1.4c0.2,0.2,0.5,0.7,0.6,0.9c-0.9,0.1-1.8,0.1-2.7,0.2c0,0.1,0,0.2,0,0.3c1,0,2.1-0.2,3,0.4
		c-0.7,0.2-1.4,0.4-2,0.6c0.9,0.2,2.4-0.2,2.1,1.2c-0.3,0-0.9,0-1.2-0.1c-1,0-1.9-0.1-2.9-0.1c0.3-0.4,0.6-0.8,0.9-1.1
		c-0.6,0.1-1.1,0.2-1.3,0.8c-0.2-0.3-0.5-0.5-0.7-0.8c0.5-0.2,0.9-0.4,1.4-0.5c-0.4-0.1-0.9-0.3-1.3-0.4
		C82.8,178.2,83.2,178.1,83.6,177.9z"/>
	<path class="st70" d="M93.9,175c1.4,0,2.7,0,4,0.5c-0.6,0.3-1.2,0.6-1.7,1c1,0.1,2,0.2,3,0.3c-0.8,0.5-1.8,0.6-2.7,0.5
		c-0.4-0.3-0.8-0.5-1.2-0.7c-0.2-0.1-0.6-0.4-0.8-0.5C94.4,175.7,94.1,175.4,93.9,175z"/>
	<path class="st71" d="M73.9,175.3c0.3,0.1,0.8,0.2,1.1,0.2c0.9,0.4,1.8,0.8,2.8,0.4c-0.1,0.9-0.1,1.9-0.2,2.8
		c-0.4-0.6-0.8-1.2-1.2-1.8c-0.2,0-0.7-0.1-0.9-0.2c-0.7-0.2-1.4-0.1-2.1-0.1C73.6,176.3,73.7,175.8,73.9,175.3z"/>
	<path class="st72" d="M73,177.3c0.8-0.3,1.7-0.4,2.5-0.5c0.2,0,0.7,0.1,0.9,0.2l0.2,0.6C75.4,177.5,74.2,177.3,73,177.3z"/>
	<path class="st1" d="M76.4,177c0.4,0.6,0.8,1.2,1.2,1.8c-0.2,0.1-0.7,0.2-1,0.3c0.3,0.2,0.7,0.3,1,0.5c-0.2,0.9-0.5,1.8-0.1,2.8
		c-0.5-0.1-1-0.4-1.2-0.8c-1.1,0-2.3,0-3.4-0.1c0.2-0.2,0.5-0.7,0.6-0.9c-0.5-0.2-1.1-0.3-1.6-0.5c0.5-0.2,1-0.3,1.5-0.4
		c0.1-0.5,0.3-1,0.4-1.4c-0.5-0.1-1-0.1-1.5-0.2c0.2-0.2,0.5-0.5,0.7-0.7c1.2,0,2.4,0.2,3.6,0.3L76.4,177z"/>
	<path class="st73" d="M99,177.4c0.3,0,0.9,0,1.1,0c0.2,0.1,0.7,0.2,0.9,0.3c0.3,0.7,0.7,1.4,1,2.1c-0.1,0.2-0.3,0.6-0.4,0.7
		c-1-0.4-2-0.8-3-1.1c0.9-0.1,1.8-0.2,2.7-0.3c-0.7-0.2-1.4-0.3-2.1-0.4C99.1,178.2,99.1,177.8,99,177.4z"/>
	<path class="st1" d="M94.5,179.3c0.4-0.1,0.8-0.2,1.2-0.3c0,0.8,0.1,1.5,0.1,2.3c-0.2,0-0.5-0.1-0.7-0.1c-0.1-0.1-0.4-0.3-0.5-0.4
		l-0.3-0.2C94.5,180.1,94.5,179.7,94.5,179.3z"/>
	<path class="st1" d="M116.4,179.9c1.4-0.1,2.7-0.1,4.1,0c-0.1,0.5-0.3,0.9-0.4,1.4c-0.1,0.4-0.3,0.7-0.4,1.1c-1,0-1.9-0.1-2.9-0.2
		c0-0.1,0-0.4,0-0.5c0.1-0.2,0.2-0.6,0.2-0.8C116.8,180.5,116.6,180.2,116.4,179.9z"/>
	<path class="st74" d="M82.3,181.2c0.1-0.6,0.6-0.8,1.2-0.8c1,0,1.9,0,2.9,0.1c-0.2,0.1-0.5,0.3-0.7,0.5c-0.2,0.1-0.4,0.2-0.5,0.3
		C84.2,181.2,83.3,181.2,82.3,181.2z"/>
	<path class="st75" d="M107.6,181.4c-0.5,0.1-1-0.8-0.4-1c0.2,0,0.5,0,0.6,0C108.6,180.6,108.3,181.5,107.6,181.4z"/>
	<path class="st76" d="M120.1,181.3c0.4,0.4,0.2,1,0.2,1.5c0,0.1,0.1,0.3,0.1,0.4c-1.2,0-2.3,0-3.5,0.1c1.1,0.4,2.3,0.3,3.5,0.5
		l-0.4,0.1c-0.9-0.1-1.9-0.3-2.8,0l-0.2,0l-0.2-0.2c0-0.6-0.5-1.4-0.1-2c0,0.1,0,0.4,0,0.5c1,0.1,1.9,0.2,2.9,0.2
		C119.8,182,119.9,181.6,120.1,181.3z"/>
	<path class="st1" d="M72,182.5c0.4-0.8,1.5-0.6,2.3-0.7c1.3-0.1,2.5,0.4,3.6,1c0,0.5,0,1-0.1,1.5c-0.9,0.1-1.9,0.1-2.8,0.3
		c0.9,0.2,1.8,0.3,2.8,0.3c-0.1,0.2-0.4,0.6-0.6,0.8c-1.4,0.2-2.8,0.5-4.2,0.5c-0.2-0.1-0.6-0.3-0.8-0.4c0.2-0.7,0.5-1.4,1-1.9
		c-0.3-0.1-0.9-0.3-1.2-0.4c0.8-0.7,1.9-0.4,2.9-0.5c0.2,0.2,0.5,0.6,0.6,0.8c0.6-0.1,1.1-0.2,1.7-0.3
		C75.6,182.5,73.7,182.6,72,182.5z"/>
	<path class="st9" d="M107,182.9c0.5-0.8,2.6,0.6,1.2,0.6c-0.2-0.1-0.7-0.3-0.9-0.3C107.1,183.1,107,183,107,182.9z"/>
	<path class="st24" d="M99.1,183.6c1.4,0,2.7-0.2,4-0.5c-0.4,0.5-0.8,1-1.5,1.2c-0.8,0-1.7,0-2.5,0
		C99.1,184.1,99.1,183.8,99.1,183.6z"/>
	<path class="st77" d="M107.2,183.2c0.2,0.1,0.7,0.3,0.9,0.3l-0.1,0.2c-0.3,0-0.8,0.1-1.1,0.1C107,183.7,107.1,183.4,107.2,183.2z"
		/>
	<path class="st78" d="M106.9,183.9c0.3,0,0.8-0.1,1.1-0.1c0.1,0.5,0.3,1,0.4,1.5c-0.2,0.1-0.6,0.2-0.8,0.2c-0.2,0-0.5,0.1-0.6,0.1
		C106.9,185,106.9,184.5,106.9,183.9z"/>
	<path class="st79" d="M99.1,184.3c0.8,0,1.7,0,2.5,0c0.6,0,1.2,0.1,1.8,0.2c-1.4,0.7-2.9,0.3-4.4,0.2L99.1,184.3z"/>
	<path class="st80" d="M116.9,185c0.2-0.4,0.4-0.7,0.6-1.1c0.7,0,1.5,0.1,2.1,0.5c0.2,0.1,0.7,0.4,0.9,0.5c-0.7,0.2-1.5,0.4-2.2,0.4
		c-0.6,0-1.2,0-1.7,0.1C116.6,185.3,116.8,185.1,116.9,185z"/>
	<path class="st81" d="M94.2,184.8c0.5-0.3,0.7-0.3,0.8,0.3C94.5,185.4,94.3,185.3,94.2,184.8z"/>
	<path class="st82" d="M82.8,185.2l0.1,0c1.4,0.4,2.9,0.4,4.4,0.3c0,0.4-0.1,0.7-0.1,1.1c-0.1,0-0.3-0.1-0.4-0.1
		c-0.9-0.1-1.8-0.3-2.7-0.4c-0.6-0.1-1.2-0.3-1.7-0.4C82.5,185.6,82.7,185.3,82.8,185.2z"/>
	<path class="st1" d="M99.5,185.7c1.7,0,3.6-1,5.1,0c-1.1,0.5-2.3,0.9-3.2,1.8C100.3,187.6,99.9,186.6,99.5,185.7z"/>
	<path class="st83" d="M107,185.6c0.2,0,0.5-0.1,0.6-0.1C108.4,186.4,106.2,186.6,107,185.6z"/>
	<path class="st1" d="M116.6,185.3c0.6,0,1.2-0.1,1.7-0.1c0.7,0.1,1.4,0.2,2.1,0.5c-0.2,0.5-0.5,1-0.7,1.4c-1,0-2,0.1-3,0.1
		C116.6,186.6,116.6,186,116.6,185.3z"/>
	<path class="st84" d="M101.4,187.5c0.9-0.9,2-1.3,3.2-1.8c-0.3,0.3-0.6,0.6-0.9,0.9c0.5,0.2,1,0.4,1.5,0.6l0.1,0.4
		c-0.5-0.1-1-0.2-1.5-0.2c-0.9,0-1.7,0.1-2.6,0.3L101.4,187.5z"/>
	<path class="st73" d="M75.8,186.5c0.5,0,1-0.1,1.4-0.2c0.1,0.5,0.3,1.1,0.4,1.6c-0.2-0.1-0.7-0.2-0.9-0.3c-0.5-0.1-0.9-0.2-1.4-0.3
		C75.5,187.1,75.7,186.7,75.8,186.5z"/>
	<path class="st33" d="M106.9,186.9c-0.1-0.6,1.3-0.6,1.3,0C107.8,187.2,107.4,187.2,106.9,186.9z"/>
	<path class="st63" d="M72.6,187.2c0.4-0.5,1.3-0.3,1.7,0l0,0.2c-0.4,0.1-0.9,0.1-1.3,0.1C72.8,187.4,72.7,187.3,72.6,187.2z"/>
	<path class="st12" d="M72.9,187.5c0.4,0,0.9-0.1,1.3-0.1l-0.3,0.5c-0.2,0-0.6,0.1-0.8,0.2c0.8,0.1,1.6,0.1,2.4,0.2
		c0.8,0.2,1.5,0.3,2.3,0.5c-1.2,0.4-2.6,0.6-3.8,0c-0.6-0.3-1.3-0.2-1.9,0c0.4,0.1,1.3,0.3,1.8,0.4c-0.6,0.3-1.3,0.2-1.9,0.2
		c0-0.2,0.1-0.7,0.1-0.9C72.4,188.2,72.7,187.8,72.9,187.5z"/>
	<path class="st85" d="M101.3,187.7c0.9-0.2,1.7-0.3,2.6-0.3c0.1,0.2,0.1,0.6,0.2,0.8l0.1,0.3c-0.3,0-0.9,0.1-1.2,0.1
		c-0.8,0-1.6,0-2.4,0C100.6,188.2,100.8,187.9,101.3,187.7z"/>
	<path class="st22" d="M73.2,188c0.2,0,0.6-0.1,0.8-0.2c1-0.1,1.9-0.1,2.9-0.2c0.2,0.1,0.7,0.2,0.9,0.3c-0.7,0.2-1.4,0.2-2.1,0.3
		C74.8,188.2,74,188.1,73.2,188z"/>
	<path class="st86" d="M85.5,188.8c0.4-0.4,0.8-0.4,1.2-0.3C86.4,189,86,189.1,85.5,188.8z"/>
	<path class="st1" d="M86.7,188.5l0.3,0.1c1.4,0.2,0.2,1.2-0.6,0.9c0.8,0.3,1,1.1,1.2,1.8c-0.4,0.1-0.9,0.1-1.3,0.2
		c0.3,0.1,0.9,0.2,1.2,0.3c0.2,0.9-0.3,1.5-1,1.9c1.3,0.5,0.1,1.5-0.7,1.8c0.3,0,0.8,0.1,1,0.1c-0.6,0.5-1.1,1.1-1.6,1.7
		c0.2,0.1,0.6,0.3,0.7,0.4c-0.5,0.3-1,0.7-1.5,1.1c0.4,0.1,0.8,0.3,1.2,0.4c-0.4,0.2-0.7,0.5-1.1,0.7c0,0.2,0.1,0.5,0.1,0.6
		c-0.7,0.2-1.3,0.4-2,0.6c0.1,0.2,0.3,0.6,0.4,0.7c-0.7-0.1-1.4-0.3-2.1-0.4c-0.9-0.1-1.5,0.5-2.2,0.9c0-0.4,0-0.9,0-1.3
		c-0.8,0-1.7,0-2.5-0.1c0.2-0.3,0.5-0.6,0.7-0.9c1.6,0,3,1,4.6,0.4c0.4-0.5,0.9-1,1.5-1.3c0.1-0.2,0.2-0.7,0.2-0.9
		c-0.2,0-0.6-0.1-0.8-0.2c0.7-0.3,1.3-0.6,1.9-1c-0.7-0.1-1.4-0.1-2-0.4c0.3-0.2,0.9-0.5,1.2-0.7c-0.3,0-0.8-0.1-1-0.1
		c0.3-0.4,0.7-0.8,1-1.2c-0.3,0-0.8,0-1,0c0.1-0.1,0.4-0.2,0.6-0.3c-0.2-0.3-0.4-0.7-0.6-1c0.3-0.1,0.9-0.2,1.2-0.3
		c-0.2-0.1-0.7-0.3-1-0.5c0.8-0.3,1.6-0.6,2.4-0.8c-0.9,0-2.2,0.6-2.7-0.4c1.2-0.2,2.4-0.5,3.6-0.8c-1,0.1-2,0.1-3,0.2
		c-0.1-0.3-0.3-0.9-0.4-1.2c0.4-0.2,0.9-0.4,1.3-0.6c0.5-0.1,1.1-0.2,1.6-0.2C86,189.1,86.4,189,86.7,188.5 M84.9,192.6
		c0.1,0.7,1.7,0.5,1.7-0.2C86.1,192.2,85.4,192.3,84.9,192.6 M84.4,194.6c-0.4,0.5,0.6,1,0.9,0.5C85.7,194.6,84.8,194.2,84.4,194.6z
		"/>
	<path class="st87" d="M94.1,188.4l0.4,0c0.2,0,0.5,0,0.6,0c0.3,0.1,0.8,0.4,1.1,0.6c-0.4,0.6-1.2,0.8-1.9,0.9
		C94.3,189.5,94.2,188.9,94.1,188.4z"/>
	<path class="st88" d="M100.5,188.7c0.8,0,1.6,0,2.4,0c0.3,0.2,0.6,0.4,0.9,0.7c-1,0-2,0-3,0C100.8,189.1,100.6,188.8,100.5,188.7z"
		/>
	<path class="st83" d="M105,188.6c0.6-0.2,0.9,0,0.7,0.6C105,189.5,104.8,189.3,105,188.6z"/>
	<path class="st1" d="M73.3,189.9c1-1.3,2.8-0.4,4.2-0.4c0,0.5,0.1,0.9,0.1,1.4c-0.3,0-1,0.1-1.3,0.2c-0.1-0.1-0.2-0.2-0.3-0.2
		c-0.7-0.1-1.5-0.2-2.3-0.2C73.7,190.4,73.5,190.1,73.3,189.9z"/>
	<path class="st1" d="M94.9,190.6c0.2-0.1,0.7-0.2,0.9-0.2c-0.1,1.8-0.2,3.7-0.3,5.5c-0.5,0-1,0.1-1.5,0.1c0.1-0.2,0.4-0.7,0.5-0.9
		c-0.2-0.7-0.4-1.4-0.6-2.1c0.5-0.5,1-0.9,1.5-1.4C95.2,191.3,95,190.9,94.9,190.6z"/>
	<path class="st89" d="M101.3,190.9c1.4-1.3,3.5-0.4,5.3-0.6c0.4,0,0.9,0,1.3,0c0.4,0.3,0.7,0.6,1.1,0.9l-0.5,0
		c-0.4,0-0.9,0-1.3,0.1c0.1,0.4,0.1,0.8,0.2,1.2c-1.7-0.1-3.4,0.2-5.1,0.3c0.7-1.8,2.9-0.5,4.3-0.8c-0.1-0.1-0.3-0.4-0.4-0.5
		c-1.3-0.3-2.7-0.2-4.1-0.3C101.9,191.1,101.5,190.9,101.3,190.9z"/>
	<path class="st90" d="M102,191.1c1.4,0.1,2.7,0,4.1,0.3c-1.2,0.2-2.4,0.4-3.6,0.3C102.4,191.6,102.2,191.3,102,191.1z"/>
	<path class="st91" d="M107.1,191.3c0.4,0,0.9,0,1.3-0.1c0.1,0.2,0.3,0.7,0.3,1c-0.2,0.1-0.6,0.2-0.8,0.3l-0.4,0l-0.2,0
		C107.3,192.1,107.2,191.7,107.1,191.3z"/>
	<path class="st92" d="M107.9,192.5c0.2-0.1,0.6-0.2,0.8-0.3C109.4,193,107.4,193.5,107.9,192.5z"/>
	<path class="st93" d="M102.8,194.1c0.5-1.7,2.7-1.4,4-1c0.2,0.2,0.5,0.4,0.7,0.6c-1.2,0-2.4,0.1-3.6,0.3
		C103.6,193.9,103,194,102.8,194.1z"/>
	<path class="st66" d="M116.8,195.9c0.9-1.3,2.9-0.8,4,0C119.5,196.1,118.1,196.1,116.8,195.9z"/>
	<path class="st94" d="M73.9,196c0.7-0.1,1.4-0.3,2.2-0.4c0.5,0.1,0.9,0.3,1.4,0.5c-0.3,0.2-0.6,0.4-1,0.6c-0.1,0-0.4,0-0.6,0.1
		c-0.5-0.4-1.1-0.6-1.7-0.2l-0.2,0.1C74,196.4,74,196.1,73.9,196z"/>
	<path class="st7" d="M74.3,196.5c0.5-0.3,1.2-0.2,1.7,0.2C75.3,197,74.8,196.9,74.3,196.5z"/>
	<path class="st95" d="M104.2,196.5c0.5-0.4,1.3-0.3,1.8,0c-0.5,0.2-1,0.3-1.5,0.3C104.4,196.7,104.3,196.6,104.2,196.5z"/>
	<path class="st96" d="M106,196.5c0.7-0.2,1.4-0.2,2.1-0.2c-0.2,0.4-0.5,0.8-0.7,1.2c-0.9,0-1.8,0-2.7,0.1c0-0.2-0.1-0.6-0.2-0.7
		C105,196.8,105.5,196.6,106,196.5z"/>
	<path class="st62" d="M116.6,196.6c1.3-0.7,2.9-0.3,4.3-0.1C119.5,196.8,118.1,196.8,116.6,196.6z"/>
	<path class="st97" d="M75.9,196.7c0.1,0,0.4,0,0.6-0.1c0.1,0.1,0.4,0.2,0.6,0.2c0,0.2-0.1,0.5-0.2,0.7c-0.1,0-0.4,0-0.5,0
		C76.3,197.4,76.1,197,75.9,196.7z"/>
	<path class="st98" d="M74.7,197.8c-0.7-1,1.3-0.9,0.7,0C75.2,197.8,74.9,197.8,74.7,197.8z"/>
	<path class="st1" d="M75,198.6c1-0.2,2-0.4,3-0.8c-0.1,0.4-0.2,1.1-0.2,1.5C76.8,199.2,75.8,199.1,75,198.6z"/>
	<path class="st66" d="M104.2,197.9c0.6,0,1.1,0,1.7,0.1c0.8,0.1,1.6,0.3,2.3,0.7C106.8,198.7,105.2,199,104.2,197.9z"/>
	<path class="st1" d="M116.8,197.4c0.5,0.1,0.9,0.3,1.4,0.4c0.8,0.4,1.7,0.5,2.5,0.5c0.1,0.8,0.3,1.6,0.4,2.4
		c-1.5,0.1-3.1,0.1-4.6-0.1c-0.1-0.2-0.3-0.5-0.3-0.7c0.6,0,1.1-0.1,1.7-0.1c0.9,0,1.7-0.3,2.5-0.6c-1.3-0.1-2.6-0.1-3.9,0
		C116.6,198.6,116.7,198,116.8,197.4z"/>
	<path class="st44" d="M105.4,199.1C106.5,198.5,105.4,200.4,105.4,199.1z"/>
	<path class="st3" d="M106.4,199.7c0.8-0.5,1.7-0.6,2.5-0.7c-0.3,0.3-0.6,0.7-0.9,1c0.3,0.3,0.5,0.6,0.8,0.9
		c-0.9,0.2-1.8,0.5-2.6,0.8c0.1-0.2,0.2-0.7,0.2-0.9c-0.4-0.2-0.9-0.3-1.3-0.5l0.7,0.1c0.3,0,1.3,0.3,1.2-0.3
		C106.8,199.9,106.5,199.8,106.4,199.7z"/>
	<path class="st99" d="M116.4,199.1c1.3-0.1,2.6-0.1,3.9,0c-0.8,0.4-1.6,0.6-2.5,0.6C117.4,199.6,116.9,199.4,116.4,199.1z"/>
	<path class="st17" d="M76,199.8c0.5-0.3,0.8-0.2,0.8,0.3C76.4,200.4,76.1,200.3,76,199.8z"/>
	<path class="st1" d="M94.4,199.7c0.3,0,0.9-0.1,1.3-0.1c0.1,1.1,0.1,2.2-0.1,3.3c-0.3,0-0.9,0-1.2,0
		C94.4,201.8,94.4,200.7,94.4,199.7z"/>
	<path class="st100" d="M105.8,200.3c0.1-0.1,0.4-0.4,0.5-0.6c0.2,0.1,0.5,0.2,0.6,0.3C107.1,200.5,106.2,200.3,105.8,200.3z"/>
	<path class="st101" d="M106.3,202.5c0.7-0.5,1.4-0.9,2.2-1.3c0,0.5,0,0.9-0.1,1.4C107.8,202.5,107,202.5,106.3,202.5z"/>
	<path class="st102" d="M117.4,201.4c1-0.1,2,0,3,0c-0.9,0.7-2.2,0.8-3.3,1.1c-0.1,0-0.4,0.1-0.6,0.1c-0.1-0.2-0.3-0.5-0.4-0.7
		C116.6,201.6,117,201.5,117.4,201.4z"/>
	<path class="st103" d="M123.2,202.5c0.7,0,1.4-0.1,2,0C125.1,203.3,123.4,203.3,123.2,202.5z"/>
	<path class="st0" d="M55.5,220.6c1.4-0.4,3.1-0.3,4,1c1.1,1.5,1.5,3.5,1.8,5.3c1.1,10.3-0.4,20.8,0.8,31.1c0.2,1.2,0.3,2.4,1.1,3.4
		c0.6,0.6,1.5-0.1,2.2-0.2c0.3,0.8,0.5,1.7,0.8,2.5c-1,0.5-1.9,1.2-3.1,1.2c-1.4-0.2-2.2-1.5-2.7-2.7c-1.2-3.2-1.3-6.7-1.5-10.1
		c-0.3-5.3-0.2-10.6,0-15.9c0.2-3.2,0.2-6.5-0.3-9.6c-0.2-1.1-0.8-2.5-2.1-2.5c-1.6,0.5-2.4,2.1-2.8,3.5c-1.2,4.5-0.8,9.1-0.9,13.7
		c0.1,7.8,0.1,15.7,0.1,23.5c-0.9-0.1-1.9-0.1-2.8-0.1c-0.1-8.6,0.2-17.1,0.2-25.7c0-6,0.2-12-0.3-18c0.8-0.1,1.6-0.2,2.3-0.2
		c0.1,0.9,0.1,1.8,0.1,2.7C53.2,222.3,54.1,221,55.5,220.6z"/>
	<path class="st0" d="M12.8,220.8c0.9,0.2,1.9,0.3,2.9,0.5c0.2,6,0,12,0.3,18c1.8-4.2,3.7-8.3,5.4-12.6c0.9,0.4,1.7,0.9,2.5,1.6
		c-1.4,3.6-3,7.1-4.4,10.7c-0.5,1.4-1.3,2.6-1.5,4.1c3.2,6.9,6.8,13.7,10.1,20.6c-0.9,0.4-1.8,0.8-2.8,1.2
		c-2.3-4.9-4.9-9.7-7.3-14.6c-0.8-1.5-1.3-3.1-2.3-4.4c0.3,6.4,0.3,12.8,0.3,19.2c-1,0-1.9-0.1-2.9-0.1
		C13.1,250.2,12.8,235.5,12.8,220.8z"/>
	<path class="st0" d="M36.1,221.3c1.7-0.5,2.6,2,1.5,3c-0.8,0.7-2.2,0.4-2.5-0.5C34.7,222.9,35.2,221.7,36.1,221.3z"/>
	<path class="st0" d="M87.8,221.8c0.8,0,1.6,0,2.5,0c-0.2,14.5,0.5,29.1,0.7,43.6c-0.9-0.1-1.7-0.2-2.6-0.3c0-1.4,0-2.8-0.1-4.2
		c-2.6,3-6.6,4.8-10.6,4.6c-1.4-0.1-3-0.5-3.7-1.8c-0.9-1.6-0.6-3.6,0.4-5.1c1.3-2,3.4-3.3,5.6-4c2.5-0.9,5.4-1.2,7.9-0.2
		C88,243.5,87.8,232.6,87.8,221.8 M77.2,259.3c-0.6,0.8-1.8,2.2-0.6,2.9c1.1,0.8,2.6,0.6,3.9,0.4c2.8-0.7,5.7-2.1,6.9-4.8
		C84.2,255.8,79.8,256.7,77.2,259.3z"/>
	<path class="st0" d="M35.2,228.9c0.9,0,1.7,0,2.6,0c0.1,8.6-0.3,17.2,0,25.8c0.1,1.7,0.2,3.5,0.7,5.1c0.2,0.6,0.5,1.4,1.3,1.5
		c0.5-0.1,1-0.3,1.6-0.4c0,1.2,0.1,2.5,0,3.7c-1.3,0.2-3,0.9-4.1-0.2c-1.4-1.8-1.6-4.1-1.9-6.3C34.4,248.6,35.1,238.7,35.2,228.9z"
		/>
	<path class="st0" d="M120.5,233.3c1.5-0.7,3.5-0.3,4.4,1c1.5,1.6,1.5,3.9,1.9,6c0.8,5.8,0.9,11.7,0.2,17.5c-0.1,2-0.9,4.2-2.8,5.2
		c-0.9,0.5-2,0.1-2.8-0.5c-1.5-1.4-2.1-3.5-2.6-5.5c-1.5-6.5-0.9-13.2-0.5-19.7C118.6,235.9,119,234,120.5,233.3 M121,235.3
		c-0.8,1.5-1,3.1-1.2,4.8c-0.4,5.2-0.3,10.4,0.6,15.5c0.4,2,0.8,4.2,2.3,5.7c0.8,0.7,1.8-0.3,2-1.1c1-3.2,1.1-6.7,1.1-10.1
		c0-4.2-0.1-8.4-1.2-12.4c-0.3-1.1-1-2.1-1.6-3C122.4,234.8,121.3,234.4,121,235.3z"/>
	<path class="st0" d="M135,233.2c1.5,0,3.3,0.2,4.1,1.7c1.2,2.3,1.7,5,0.9,7.5c-0.4,1.6-1.6,3.2-1.2,5c0.9,4.4,2,8.8,3.4,13
		c0.2,0.7,0.3,1.5,0.3,2.3c-0.6,0-1.1,0-1.7,0c-0.9-4-2.4-7.7-3-11.7c-0.3-1.5-0.4-3-1.1-4.4c-0.6,5.4,0.1,10.8-0.4,16.2
		c-0.6-0.3-1.8,0-1.7-0.9C134.9,252.3,134.9,242.8,135,233.2 M136.7,234.9c-0.3,3.3-0.3,6.6-0.3,9.9c1.2-0.8,2-2.2,2.1-3.6
		C138.6,239.1,138.6,236.5,136.7,234.9z"/>
	<path class="st0" d="M154.7,287.3c0.5,0,1,0,1.5,0c0,5.6-0.1,11.2,0.1,16.8c-0.6,7.2-0.2,14.5-0.3,21.7c0,1,0.1,2-0.2,2.9
		c-0.5,0.1-0.9,0.3-1.4,0.4c-0.3-2-0.8-4-0.4-6c0.3-1.3-0.1-2.6-0.2-3.9c0.1-1.3,0.8-2.5,0.5-3.8c-0.3-1.5-0.7-3.1-0.3-4.6
		c0.4-1.8,0.5-3.7,0.1-5.5c-2.4,0.3-4.9,0.2-7.3,0.2c-0.2,7.9-0.2,15.9-0.4,23.8c-0.7-0.1-1.9-0.2-1.9-1.1c0.5-13.3,0.8-26.7,0.7-40
		c0.6,0,1.3,0,1.9,0c0.1,5.2-0.7,10.3-0.2,15.5c1.8,0.2,3.5-0.3,5.3-0.2c0.7,0.1,1.4,0,2.1-0.2c0-2.8,0.1-5.6,0.2-8.4
		C154.5,292.2,154.3,289.7,154.7,287.3z"/>
	<path class="st0" d="M49.1,289.3c0.1-0.8,0.3-1.6,0.8-2.2c0.9,0.3,1.6,1.1,1.7,2.1c1.1,9.4,2.3,18.9,3.6,28.3
		c0.1,1.2,0.1,2.4,0.5,3.6c0.6,1.9,0.1,3.8,0.6,5.7c0.2,0.6,0.1,1.2-0.1,1.8c-0.3,0-0.8,0-1.1,0c-0.8-1.6-0.8-3.5-1.1-5.3
		c-0.3-2.7-0.6-5.4-1-8c-1.8-0.2-3.7-0.4-5.5,0c-0.5,4.1-1.6,8.1-1.3,12.3c-0.7,0.3-1.4,0.6-2.1,0.8c0.1-4.3,1.6-8.5,1.6-12.9
		C46.9,306.9,48,298.1,49.1,289.3 M50.2,293.7c-0.8,6.5-1.8,13-2.4,19.6c1.6,0,3.2-0.1,4.8-0.2c-0.4-6.5-1.6-12.9-2.1-19.4
		C50.3,293.7,50.2,293.7,50.2,293.7z"/>
	<path class="st0" d="M70.4,287.9c0.6,0,1.1,0,1.7-0.1c1.4,6.2,3.6,12.1,5.4,18.1c1.1,4.3,3.1,8.2,4.3,12.4
		c-0.3-10.1-0.7-20.3-1.3-30.4c0.6,0,1.2,0,1.9,0c0,5.9,1.2,11.7,0.7,17.6c0.6,7-0.2,14.1,1,21.1c-0.6-0.2-1.8,0.3-2-0.6
		c-1.6-6-3.9-11.8-5.7-17.8c-1.5-3.4-2.5-7.1-3.7-10.6c0.2,4.3-0.3,8.6,0.2,12.9c0.3,2.7-0.2,5.4,0.1,8.2c0.2,2.1,0.2,4.1,0.5,6.2
		c0.1,0.7-0.1,1.4-0.2,2c-0.3,0.1-0.8,0.4-1.1,0.5c-0.6-0.4-0.8-1.1-0.7-1.8c0.5-5.4-0.6-10.8-0.5-16.3
		C71.2,302.3,70.6,295.1,70.4,287.9z"/>
	<path class="st0" d="M169.3,288.1c3.2-0.2,6.5-0.2,9.8,0.2c0.6,0.1,0.4,0.8,0.5,1.3c-2.8,0.9-5.7,0.1-8.5,0.4
		c-0.1,5.5-0.7,11-0.2,16.5c2.5,0.4,5-0.1,7.4,0.5c-0.3,0.4-0.1,1.4-0.8,1.5c-2.3,0.3-4.6-0.3-6.8,0.6c-0.2,3.8,0.1,7.5-0.2,11.3
		c-0.1,2.4-0.2,4.7,0,7.1c2.6,0,5.3-0.4,7.9-0.4c0.7,0,0.8,0.9,0.4,1.4c-0.5,1-1.8,0.6-2.7,0.6c-2.5-0.4-5.1-0.3-7.6,0
		c-0.4-4.2,0-8.4,0.3-12.5c0.3-4.2-0.1-8.5,0.1-12.8C169.2,298.5,169,293.3,169.3,288.1z"/>
	<path class="st0" d="M100.3,288.6c1.1-0.4,2.8-0.6,3.4,0.6c2,3.8,2.5,8.2,3,12.4c0.4,8.1,0.5,16.3-0.7,24.4c-0.1,2.1-2.4,3.5-4.3,3
		c-2.3-0.8-3.4-3.1-4.4-5.1c-0.1-2.5-0.8-5-0.8-7.6c-0.1-4.4-0.4-8.8-0.1-13.2c0.6-4.3,0.4-8.9,2.4-12.9
		C99.3,289.7,99.6,288.9,100.3,288.6 M101,289.9c-1.5,4-2.4,8.3-2.5,12.5c-0.1,6.9-0.4,13.8,0.7,20.6c0.3,1.8,1.3,3.6,3,4.4
		c0.9-0.1,2.2-0.7,2.2-1.7c0.2-2,0.4-4,0.6-6c0.4-4.7,0.2-9.4,0.2-14.1c0.1-2.1-0.4-4.2-0.5-6.2c-0.3-2.9-0.7-5.9-2-8.5
		C102.4,290.1,101.6,290.1,101,289.9z"/>
	<path class="st0" d="M191.6,290.8c-0.2-0.8-0.8-2.2,0.4-2.4c1.4-0.1,2.6,0.7,3.9,1.1c1.5,0.7,3.4,1.1,4.3,2.7
		c1.6,2.5,0.6,5.6,0.6,8.3c-0.9,2.9-3.4,4.9-5.9,6.3c0.6,1.4,1.7,2.6,2.1,4.1c1.4,4.2,2.9,8.4,5,12.3c1.1,2.1,1.7,4.4,2.1,6.7h-0.4
		c-0.2-0.1-0.7-0.2-0.9-0.2c-1-2.3-2.4-4.4-3.1-6.8c-0.2-0.1-0.7-0.2-0.9-0.2c0.8-1.9-0.6-3.6-1.3-5.3c-1-2.6-2.6-4.9-3.1-7.6
		c0,3.4,0,6.7,0.4,10.1c0.1,1.5,0.3,3,0,4.4c-0.3,1.6,0.4,3.1,0.6,4.7c-0.8,0-1.5,0-2.3,0c-0.3-3.6-0.2-7.2-0.5-10.7
		c-0.4-3.9-0.2-7.7-0.4-11.6c0.1-2.5,0.2-4.9,0-7.4C192.1,296.5,192.7,293.5,191.6,290.8 M194.6,291.1c-0.5,0.7-0.5,1.6-0.5,2.4
		c0,3.8-0.6,7.7,0.6,11.4c1.2-0.4,2.3-1.2,2.8-2.4c1.1-2.5,2.4-5.3,1.7-8.2c-0.7-1.4-1.9-2.5-3.2-3.3
		C195.7,290.8,194.9,290.6,194.6,291.1z"/>
	<path class="st0" d="M120.3,291c-0.3-0.6-0.6-2,0.4-1.9c3.2-0.5,6.5-0.2,9.7-0.1c0.8,0,0.9,0.9,1,1.5c-1.6,0-3.2,0.1-4.7,0.2
		c-1,7.3,0.1,14.6-0.1,21.9c-0.3,4.9,0.1,9.8-0.2,14.8c0.1,0.8-0.9,1-1.5,1.2c-0.1-0.4-0.3-0.8-0.4-1.2c0.1-5.3,0-10.6,0.1-15.9
		c0-3.9,0.1-7.8-0.2-11.6c0.4-3,0.1-6.1,0.1-9.1C123.2,290.7,121.8,291,120.3,291z"/>
</g>
</svg>
